<svg width="272" height="97" viewBox="0 0 272 97" fill="none" xmlns="http://www.w3.org/2000/svg">
<mask id="mask0_1012_9088" style="mask-type:alpha" maskUnits="userSpaceOnUse" x="0" y="0" width="272" height="97">
<rect y="0.0117188" width="272" height="96" rx="8" fill="#C4C4C4"/>
</mask>
<g mask="url(#mask0_1012_9088)">
</g>
<g clip-path="url(#clip0_1012_9088)">
<path d="M60.903 32.5332C60.903 29.7155 60.903 28.7376 62.6874 28.7376C63.8963 28.7376 63.8964 29.1975 63.8964 31.5553V67.6498C63.8964 68.5128 63.6082 68.685 63.1478 68.685H62.8605V70.9846H72.1283V68.685H71.7252C71.0925 68.685 70.9198 68.4544 70.9198 67.5345V30.2907C70.9198 26.1497 70.0562 24.5393 65.9689 24.5393C63.6082 24.5393 61.8819 25.2871 60.788 27.8742C60.3267 25.5745 59.1182 24.5393 55.9525 24.5393C53.3618 24.5393 51.9801 25.3447 50.9443 27.8742V24.5393L43 25.1722V27.4719H43.345C43.8631 27.4719 44.2659 27.8742 44.2659 29.1403V67.3616C44.2659 68.3967 44.0359 68.685 43.345 68.685H43V70.9846H51.8651V68.685H51.5201C51.0593 68.685 50.9443 68.5124 50.9443 67.8219V32.5332C50.9443 29.7155 50.8862 28.7376 52.6706 28.7376C53.8796 28.7376 53.8795 29.1975 53.8795 31.5553V67.6498C53.8795 68.5128 53.5918 68.685 53.1887 68.685H52.786V70.9846H61.8819V68.685H61.7665C61.1338 68.685 60.903 68.4544 60.903 67.5345V32.5332ZM125.666 70.985H136.777V68.6854H136.028C135.05 68.6854 134.762 68.2823 134.762 66.27V48.9032H140.634V66.2696C140.634 68.2819 140.346 68.685 139.425 68.685H138.561V70.9846H149.614V68.685H148.694C147.714 68.685 147.542 68.2819 147.542 66.2696V30.6166C147.542 28.5466 147.714 28.2012 148.694 28.2012H149.614V25.9015H138.561V28.2012H139.425C140.346 28.2012 140.634 28.5466 140.634 30.6166V46.1996H134.762V30.6166C134.762 28.5466 135.05 28.2012 136.028 28.2012H136.777V25.9015H125.666V28.2012H126.645C127.566 28.2012 127.854 28.5466 127.854 30.6166V67.4192C127.854 68.3971 127.566 68.6854 126.645 68.6854H125.666V70.985ZM209.6 70.985H218.408V68.6854H218.12C217.544 68.6854 217.486 68.5128 217.486 67.8223V44.5332C217.486 41.7155 217.545 40.7376 219.329 40.7376C220.652 40.7376 220.652 41.1975 220.652 43.5553V67.6498C220.652 68.5128 220.423 68.685 220.02 68.685H219.617V70.9846H228.943V68.685H228.54C227.906 68.685 227.791 68.4544 227.791 67.5345V42.2907C227.791 38.1497 226.755 36.5393 222.725 36.5393C220.077 36.5393 218.581 37.3447 217.486 39.8742V25.211L209.025 25.9015V28.2012H209.889C210.463 28.2012 210.809 28.5466 210.809 29.812V67.3616C210.809 68.3967 210.636 68.685 209.889 68.685H209.6V70.985ZM89.4563 70.985H98.3214V68.6854H97.9179C97.401 68.6854 97.401 68.5128 97.401 67.8223V44.5332C97.401 41.7155 97.401 40.7376 99.2419 40.7376C100.509 40.7376 100.567 41.1975 100.567 43.5553V67.6498C100.567 68.5128 100.222 68.685 99.8754 68.685H99.4719V70.9846H108.798V68.685H108.396C107.762 68.685 107.59 68.4544 107.59 67.5345V42.2907C107.59 38.1497 106.611 36.5393 102.523 36.5393C99.9339 36.5393 98.3787 37.3447 97.401 39.8742V36.5393L88.8804 37.1722V39.4719H89.8017C90.3202 39.4719 90.7221 39.8742 90.7221 41.1403V67.3616C90.7221 68.3967 90.4929 68.685 89.8017 68.685H89.4567L89.4563 70.985ZM171.144 71.3873C174.195 71.3873 175.347 69.8931 175.979 68.1097C176.555 70.7549 177.188 71.3873 180.642 71.3873C184.672 71.3873 185.19 68.9728 185.133 64.2569H183.233C183.233 67.6502 183.175 67.9949 182.542 67.9949C181.966 67.9949 181.966 67.7074 181.966 65.8092V43.4404C181.966 38.8974 180.47 36.5397 175.174 36.5397C170.972 36.5397 166.826 37.805 167.056 42.3476C167.172 44.4183 167.978 46.6031 170.165 46.4878C172.18 46.3729 173.101 45.2809 173.101 43.6125C173.101 42.4629 172.237 40.5647 170.857 39.5295C171.374 39.2997 172.18 39.0688 173.504 39.0688C175.002 39.0688 175.289 40.2192 175.289 42.4044V48.6722C167.632 51.2601 166.021 52.2953 166.021 61.8988C166.021 68.8002 167.691 71.3873 171.144 71.3873ZM157.962 71.3873C163.66 71.3873 164.984 69.6625 164.696 60.2319H162.336C162.336 67.7074 162.106 68.2823 159.458 68.2823C156.292 68.2823 156.292 66.902 156.292 54.0794V53.0434H165.501C165.501 40.1055 164.063 36.5401 157.961 36.5401C152.435 36.5401 149.556 39.9334 149.556 54.1939C149.557 67.7647 151.744 71.4454 157.962 71.3873ZM81.4539 71.3873C87.0387 71.3873 88.5927 69.6625 88.3619 60.2319H86.0029C86.0029 67.7074 85.6575 68.2823 82.9514 68.2823C79.5549 68.2823 79.7276 66.902 79.7276 54.0794V53.0434H88.6504C88.6504 40.1055 87.4419 36.5401 81.4543 36.5401C75.8715 36.5401 72.9927 39.9334 72.9927 54.1939C72.9923 67.7647 75.1794 71.4454 81.4539 71.3873ZM186.4 70.985H195.611V68.6854H194.92C194.344 68.6854 194.114 68.3971 194.114 67.4777V25.211L185.537 25.9015V28.2012H186.516C187.091 28.2012 187.321 28.4309 187.321 29.3516V67.5926C187.321 68.4548 187.263 68.6854 186.861 68.6854H186.4L186.4 70.985ZM119.161 71.3873C123.364 71.3873 125.552 68.6269 125.552 64.4875C125.552 54.7691 116.744 49.1334 116.744 42.1751C116.744 40.0471 117.492 39.4146 118.989 39.4146C121.176 39.4146 121.522 40.3349 121.925 43.6125L122.269 46.8325H124.802V36.8267H122.789C122.673 38.0929 122.386 38.5524 122.269 38.3795C121.637 37.6321 120.14 36.5397 117.665 36.5397C113.98 36.5397 110.757 38.2073 110.757 43.6702C110.757 52.1808 119.507 58.6792 119.507 65.1772C119.507 67.9949 118.874 68.4548 116.859 68.4548C114.845 68.4548 114.327 67.5353 113.924 63.2798L113.636 60.4613H110.988V70.985H113.29C113.463 69.8346 113.867 69.0877 114.211 69.4323C114.959 70.2953 115.765 71.3873 119.161 71.3873ZM197.338 63.855C197.338 69.3174 198.144 71.3873 203.555 71.3873C207.354 71.3873 208.218 69.893 208.218 65.6952V60.0014H205.915V65.9826C205.915 67.9949 205.742 68.2246 204.995 68.2246C204.246 68.2246 204.073 67.9949 204.073 66.2123V39.4146H208.276V36.8267H204.131V28.2012H201.771C200.101 35.85 198.663 36.8267 196.417 36.8267H195.785V39.357H197.338L197.338 63.855ZM109.605 38.2654C115.361 34.009 116.513 30.7891 114.613 27.8565C113.577 26.2465 111.216 25.2114 109.489 26.6488C107.417 28.3737 107.935 31.3647 111.792 33.09C111.101 33.8946 109.489 35.4481 108.165 36.7707L109.605 38.2654ZM173.908 67.3616C172.526 67.3616 172.526 65.9249 172.526 61.382C172.526 53.1011 172.526 52.0083 175.289 50.5132V64.7168C175.289 66.8444 175.002 67.3616 173.908 67.3616ZM79.7272 50.6285C79.8422 39.8746 80.0153 39.3574 81.512 39.3574C82.951 39.3574 82.8364 39.933 82.8364 50.6285H79.7272ZM156.293 50.6285C156.465 39.8746 156.581 39.3574 158.077 39.3574C159.574 39.3574 159.343 39.933 159.343 50.6285H156.293Z" fill="#ECEFF5"/>
</g>
<defs>
<clipPath id="clip0_1012_9088">
<rect width="186" height="48" fill="white" transform="translate(43 24)"/>
</clipPath>
</defs>
</svg>
