<svg width="652" height="240" viewBox="0 0 652 240" fill="none" xmlns="http://www.w3.org/2000/svg">
<path opacity="0.2" d="M261.693 -150.866C233.917 -150.051 207.574 -144.576 184.029 -132.466C126.371 -102.802 91.7088 -42.6729 78.095 19.1346C60.949 96.9212 56.7586 241.144 139.35 282.361C164.61 294.966 195.075 291.142 218.849 276.972C265.441 249.206 281.031 191.271 331.203 164.923C387.647 135.283 457.105 137.03 514.551 162.859C557.207 182.03 603.634 197.29 644.784 165.968C679.474 139.555 691.565 91.8104 676.854 51.2439C650 -22.8247 576.575 -65.9707 507.357 -93.8221C433.05 -123.72 342.248 -153.232 261.693 -150.866ZM258.7 226.18C259.704 224.804 260.812 223.47 261.82 222.129L258.7 226.18Z" fill="#101C2D"/>
<path opacity="0.15" d="M453.574 229.002C421.987 218.872 389.444 192.02 358.971 178.161C313.244 157.364 260.154 156.649 211.436 165.385C213.654 165.155 215.868 164.887 218.077 164.58C184.581 169.194 151.874 178.068 120.843 191.597C95.1458 202.804 72.0734 220.744 43.9061 225.262C-3.56472 232.876 -47.1604 205.622 -36.33 153.204C-24.1394 94.2117 32.8804 48.6657 77.2059 12.6748C188.816 -77.932 356.196 -168.03 478.736 -41.4181C530.575 12.145 578.601 121.549 534.975 192.966C510.148 233.609 482.258 238.203 453.574 229.002ZM368.174 182.517C365.909 181.564 363.651 180.586 361.387 179.64L368.174 182.517Z" fill="#5189CD"/>
</svg>
