<svg width="1196" height="168" viewBox="0 0 1196 168" fill="none" xmlns="http://www.w3.org/2000/svg">
<path opacity="0.2" d="M496.562 -440.779C450.449 -439.428 406.716 -430.352 367.627 -410.279C271.905 -361.108 214.36 -261.438 191.759 -158.986C163.294 -30.0474 156.337 209.017 293.453 277.337C335.388 298.231 385.965 291.892 425.434 268.404C502.785 222.38 528.665 126.347 611.96 82.672C705.666 33.5411 820.978 36.4372 916.347 79.2514C987.163 111.029 1064.24 136.324 1132.56 84.4051C1190.15 40.6217 1210.22 -38.519 1185.8 -105.762C1141.22 -228.538 1019.32 -300.056 904.403 -346.223C781.042 -395.781 630.297 -444.701 496.562 -440.779ZM491.593 184.212C493.261 181.931 495.099 179.719 496.773 177.496L491.593 184.212Z" fill="#101C2D"/>
<path opacity="0.15" d="M816.512 188.368C764.046 171.565 709.992 127.024 659.376 104.034C583.423 69.5384 495.24 68.3512 414.318 82.8425C418.002 82.462 421.679 82.0168 425.348 81.5069C369.712 89.1606 315.385 103.88 263.841 126.322C221.157 144.911 182.834 174.67 136.047 182.164C57.1976 194.794 -15.2156 149.585 2.77391 62.6381C23.0228 -35.2162 117.734 -110.766 191.359 -170.466C376.746 -320.76 654.766 -470.21 858.307 -260.193C944.413 -171.345 1024.19 10.1295 951.721 128.593C910.483 196.01 864.158 203.629 816.512 188.368ZM674.662 111.26C670.9 109.679 667.15 108.058 663.388 106.488L674.662 111.26Z" fill="#5189CD"/>
</svg>
