<svg width="308" height="56" viewBox="0 0 308 56" fill="none" xmlns="http://www.w3.org/2000/svg">
<path d="M84.975 30.01C85.175 30.39 85.365 30.785 85.545 31.195C85.735 31.605 85.915 32.025 86.085 32.455C86.255 32.015 86.435 31.59 86.625 31.18C86.815 30.76 87.01 30.355 87.21 29.965L92.82 18.925C92.92 18.735 93.02 18.59 93.12 18.49C93.23 18.38 93.35 18.3 93.48 18.25C93.61 18.2 93.755 18.17 93.915 18.16C94.085 18.15 94.28 18.145 94.5 18.145H98.37V40H93.9V27.43C93.9 26.82 93.93 26.16 93.99 25.45L88.2 36.685C88.02 37.035 87.775 37.3 87.465 37.48C87.165 37.66 86.82 37.75 86.43 37.75H85.74C85.35 37.75 85 37.66 84.69 37.48C84.39 37.3 84.15 37.035 83.97 36.685L78.15 25.435C78.19 25.785 78.22 26.135 78.24 26.485C78.26 26.825 78.27 27.14 78.27 27.43V40H73.8V18.145H77.67C77.89 18.145 78.08 18.15 78.24 18.16C78.41 18.17 78.56 18.2 78.69 18.25C78.82 18.3 78.935 18.38 79.035 18.49C79.145 18.59 79.25 18.735 79.35 18.925L84.975 30.01ZM107.534 40H102.434V18.145H107.534V40ZM114.263 18.145C114.483 18.145 114.668 18.155 114.818 18.175C114.968 18.195 115.103 18.235 115.223 18.295C115.343 18.345 115.458 18.42 115.568 18.52C115.678 18.62 115.803 18.755 115.943 18.925L126.323 32.05C126.283 31.63 126.253 31.225 126.233 30.835C126.213 30.435 126.203 30.06 126.203 29.71V18.145H130.673V40H128.033C127.643 40 127.313 39.94 127.043 39.82C126.773 39.7 126.513 39.48 126.263 39.16L115.958 26.14C115.988 26.52 116.013 26.895 116.033 27.265C116.053 27.625 116.063 27.965 116.063 28.285V40H111.593V18.145H114.263ZM154.099 29.065C154.099 30.645 153.824 32.105 153.274 33.445C152.734 34.775 151.969 35.93 150.979 36.91C149.989 37.88 148.794 38.64 147.394 39.19C146.004 39.73 144.459 40 142.759 40H134.269V18.145H142.759C144.459 18.145 146.004 18.42 147.394 18.97C148.794 19.52 149.989 20.28 150.979 21.25C151.969 22.22 152.734 23.375 153.274 24.715C153.824 26.045 154.099 27.495 154.099 29.065ZM148.909 29.065C148.909 27.985 148.769 27.01 148.489 26.14C148.209 25.27 147.804 24.535 147.274 23.935C146.754 23.325 146.114 22.86 145.354 22.54C144.594 22.21 143.729 22.045 142.759 22.045H139.369V36.1H142.759C143.729 36.1 144.594 35.94 145.354 35.62C146.114 35.29 146.754 34.825 147.274 34.225C147.804 33.615 148.209 32.875 148.489 32.005C148.769 31.135 148.909 30.155 148.909 29.065Z" fill="white"/>
<path d="M154.884 18.145H159.144C159.584 18.145 159.949 18.245 160.239 18.445C160.539 18.645 160.734 18.91 160.824 19.24L163.824 30.64C163.924 31.01 164.024 31.405 164.124 31.825C164.224 32.245 164.299 32.685 164.349 33.145C164.449 32.675 164.559 32.235 164.679 31.825C164.799 31.405 164.914 31.01 165.024 30.64L168.564 19.24C168.654 18.96 168.844 18.71 169.134 18.49C169.434 18.26 169.794 18.145 170.214 18.145H171.714C172.154 18.145 172.514 18.245 172.794 18.445C173.084 18.635 173.284 18.9 173.394 19.24L176.904 30.64C177.014 30.99 177.129 31.365 177.249 31.765C177.369 32.155 177.474 32.575 177.564 33.025C177.644 32.585 177.724 32.165 177.804 31.765C177.894 31.365 177.984 30.99 178.074 30.64L181.074 19.24C181.154 18.95 181.344 18.695 181.644 18.475C181.944 18.255 182.304 18.145 182.724 18.145H186.714L179.964 40H175.374L171.264 26.455C171.194 26.245 171.119 26.015 171.039 25.765C170.969 25.515 170.899 25.25 170.829 24.97C170.759 25.25 170.684 25.515 170.604 25.765C170.534 26.015 170.464 26.245 170.394 26.455L166.224 40H161.634L154.884 18.145ZM202.743 18.145V22.045H193.773V27.145H200.643V30.895H193.773V36.1H202.743V40H188.673V18.145H202.743ZM210.706 35.95H218.806V40H205.636V18.145H210.706V35.95ZM226.263 35.95H234.363V40H221.193V18.145H226.263V35.95ZM239.419 18.145C239.639 18.145 239.824 18.155 239.974 18.175C240.124 18.195 240.259 18.235 240.379 18.295C240.499 18.345 240.614 18.42 240.724 18.52C240.834 18.62 240.959 18.755 241.099 18.925L251.479 32.05C251.439 31.63 251.409 31.225 251.389 30.835C251.369 30.435 251.359 30.06 251.359 29.71V18.145H255.829V40H253.189C252.799 40 252.469 39.94 252.199 39.82C251.929 39.7 251.669 39.48 251.419 39.16L241.114 26.14C241.144 26.52 241.169 26.895 241.189 27.265C241.209 27.625 241.219 27.965 241.219 28.285V40H236.749V18.145H239.419ZM273.495 18.145V22.045H264.525V27.145H271.395V30.895H264.525V36.1H273.495V40H259.425V18.145H273.495ZM288.568 22.585C288.418 22.825 288.258 23.005 288.088 23.125C287.928 23.245 287.718 23.305 287.458 23.305C287.228 23.305 286.978 23.235 286.708 23.095C286.448 22.945 286.148 22.78 285.808 22.6C285.478 22.42 285.098 22.26 284.668 22.12C284.238 21.97 283.748 21.895 283.198 21.895C282.248 21.895 281.538 22.1 281.068 22.51C280.608 22.91 280.378 23.455 280.378 24.145C280.378 24.585 280.518 24.95 280.798 25.24C281.078 25.53 281.443 25.78 281.893 25.99C282.353 26.2 282.873 26.395 283.453 26.575C284.043 26.745 284.643 26.94 285.253 27.16C285.863 27.37 286.458 27.62 287.038 27.91C287.628 28.2 288.148 28.57 288.598 29.02C289.058 29.47 289.428 30.02 289.708 30.67C289.988 31.31 290.128 32.085 290.128 32.995C290.128 34.005 289.953 34.95 289.603 35.83C289.253 36.71 288.743 37.48 288.073 38.14C287.413 38.79 286.593 39.305 285.613 39.685C284.643 40.055 283.538 40.24 282.298 40.24C281.618 40.24 280.923 40.17 280.213 40.03C279.513 39.89 278.833 39.695 278.173 39.445C277.513 39.185 276.893 38.88 276.313 38.53C275.733 38.18 275.228 37.79 274.798 37.36L276.298 34.99C276.408 34.81 276.563 34.665 276.763 34.555C276.963 34.445 277.178 34.39 277.408 34.39C277.708 34.39 278.008 34.485 278.308 34.675C278.618 34.865 278.963 35.075 279.343 35.305C279.733 35.535 280.178 35.745 280.678 35.935C281.178 36.125 281.768 36.22 282.448 36.22C283.368 36.22 284.083 36.02 284.593 35.62C285.103 35.21 285.358 34.565 285.358 33.685C285.358 33.175 285.218 32.76 284.938 32.44C284.658 32.12 284.288 31.855 283.828 31.645C283.378 31.435 282.863 31.25 282.283 31.09C281.703 30.93 281.108 30.755 280.498 30.565C279.888 30.365 279.293 30.125 278.713 29.845C278.133 29.555 277.613 29.18 277.153 28.72C276.703 28.25 276.338 27.67 276.058 26.98C275.778 26.28 275.638 25.42 275.638 24.4C275.638 23.58 275.803 22.78 276.133 22C276.463 21.22 276.948 20.525 277.588 19.915C278.228 19.305 279.013 18.82 279.943 18.46C280.873 18.09 281.938 17.905 283.138 17.905C283.808 17.905 284.458 17.96 285.088 18.07C285.728 18.17 286.333 18.325 286.903 18.535C287.473 18.735 288.003 18.98 288.493 19.27C288.993 19.55 289.438 19.87 289.828 20.23L288.568 22.585ZM304.828 22.585C304.678 22.825 304.518 23.005 304.348 23.125C304.188 23.245 303.978 23.305 303.718 23.305C303.488 23.305 303.238 23.235 302.968 23.095C302.708 22.945 302.408 22.78 302.068 22.6C301.738 22.42 301.358 22.26 300.928 22.12C300.498 21.97 300.008 21.895 299.458 21.895C298.508 21.895 297.798 22.1 297.328 22.51C296.868 22.91 296.638 23.455 296.638 24.145C296.638 24.585 296.778 24.95 297.058 25.24C297.338 25.53 297.703 25.78 298.153 25.99C298.613 26.2 299.133 26.395 299.713 26.575C300.303 26.745 300.903 26.94 301.513 27.16C302.123 27.37 302.718 27.62 303.298 27.91C303.888 28.2 304.408 28.57 304.858 29.02C305.318 29.47 305.688 30.02 305.968 30.67C306.248 31.31 306.388 32.085 306.388 32.995C306.388 34.005 306.213 34.95 305.863 35.83C305.513 36.71 305.003 37.48 304.333 38.14C303.673 38.79 302.853 39.305 301.873 39.685C300.903 40.055 299.798 40.24 298.558 40.24C297.878 40.24 297.183 40.17 296.473 40.03C295.773 39.89 295.093 39.695 294.433 39.445C293.773 39.185 293.153 38.88 292.573 38.53C291.993 38.18 291.488 37.79 291.058 37.36L292.558 34.99C292.668 34.81 292.823 34.665 293.023 34.555C293.223 34.445 293.438 34.39 293.668 34.39C293.968 34.39 294.268 34.485 294.568 34.675C294.878 34.865 295.223 35.075 295.603 35.305C295.993 35.535 296.438 35.745 296.938 35.935C297.438 36.125 298.028 36.22 298.708 36.22C299.628 36.22 300.343 36.02 300.853 35.62C301.363 35.21 301.618 34.565 301.618 33.685C301.618 33.175 301.478 32.76 301.198 32.44C300.918 32.12 300.548 31.855 300.088 31.645C299.638 31.435 299.123 31.25 298.543 31.09C297.963 30.93 297.368 30.755 296.758 30.565C296.148 30.365 295.553 30.125 294.973 29.845C294.393 29.555 293.873 29.18 293.413 28.72C292.963 28.25 292.598 27.67 292.318 26.98C292.038 26.28 291.898 25.42 291.898 24.4C291.898 23.58 292.063 22.78 292.393 22C292.723 21.22 293.208 20.525 293.848 19.915C294.488 19.305 295.273 18.82 296.203 18.46C297.133 18.09 298.198 17.905 299.398 17.905C300.068 17.905 300.718 17.96 301.348 18.07C301.988 18.17 302.593 18.325 303.163 18.535C303.733 18.735 304.263 18.98 304.753 19.27C305.253 19.55 305.698 19.87 306.088 20.23L304.828 22.585Z" fill="#D3DFF0"/>
<path fill-rule="evenodd" clip-rule="evenodd" d="M28 0C43.464 0 56 12.536 56 28C56 43.464 43.464 56 28 56C12.536 56 0 43.464 0 28C0 12.536 12.536 0 28 0ZM27.4104 3.38889C29.8583 3.38889 30.7778 4.91633 30.7778 7.44444C30.7778 9.42222 30.8638 11.0067 30.4444 11.8889C29.9333 12.9634 28.8222 13.2222 27.7778 13.2222C26.0143 13.2222 23.2222 9.80267 23.2222 7.22222C23.2222 4.72478 25.5082 3.38889 27.4104 3.38889ZM6.66667 9.77778C6.66667 9.77778 18.0184 14.0352 28.3461 13.1936C33.3745 12.7839 38.2038 10.9294 41.4444 9.33333C44.4151 7.87022 46 6.55556 46 6.55556C46.429 6.86154 46.8373 7.19561 47.2222 7.55556C47.6174 7.93974 47.9884 8.34792 48.3333 8.77778C48.3333 8.77778 36.4381 12.4272 35.1111 17.2222C34.8376 18.2111 34.0431 20.5667 34.3333 23.4444C34.5044 25.1411 36.2816 30.4247 36.5556 37.8889C36.8491 45.885 35.3333 55 35.3333 55C35.3333 55 34.5343 55.2569 33.6667 55.4444C32.5186 55.6927 31.2222 55.8889 31.2222 55.8889C31.2222 55.8889 33.0523 48.1612 33 45.2222C32.9694 43.5026 33.6601 30.8641 31.4134 31.569C29.7017 32.106 27.7751 37.8622 27.4444 38.5556C25.8906 41.8136 22.3333 55.4444 22.3333 55.4444C22.3333 55.4444 21.3259 55.2682 20.3333 55C19.2726 54.7133 18.2222 54.3333 18.2222 54.3333C18.2222 54.3333 21.5619 47.237 23.8889 40.2222C25.7752 34.5358 26.4229 28.671 26.4444 28.4444C26.699 25.769 25.9096 22.2988 25.7731 21.4478C25.0572 16.9837 17.3478 14.5916 11.3333 13.5556C9.05105 13.1598 6.74217 12.9367 4.42633 12.8882C4.44344 12.8861 5.02744 11.9364 5.66667 11.1111C6.37578 10.1956 6.66667 9.77778 6.66667 9.77778Z" fill="white"/>
</svg>
