<svg width="272" height="97" viewBox="0 0 272 97" fill="none" xmlns="http://www.w3.org/2000/svg">
<mask id="mask0_1012_9074" style="mask-type:alpha" maskUnits="userSpaceOnUse" x="0" y="0" width="272" height="97">
<rect y="0.0117188" width="272" height="96" rx="8" fill="#C4C4C4"/>
</mask>
<g mask="url(#mask0_1012_9074)">
<path d="M208.579 25.2113C198.176 25.2857 189.666 36.8479 189.666 46.9329C189.666 57.5456 195.904 70.4914 208.579 70.4494C221.255 70.4074 227.834 56.4701 227.834 46.9329C227.834 36.3983 218.983 25.1369 208.579 25.2113ZM208.579 25.6069C217.287 25.6069 219.636 35.2231 219.636 46.9329C219.636 62.3837 216.802 70.0064 208.579 69.9919C200.357 69.9773 197.682 63.7385 197.682 46.9329C197.682 36.4055 199.872 25.6069 208.579 25.6069Z" fill="#ECEFF5"/>
<path d="M151.9 47.2169C151.853 35.7418 161.037 25.5771 168.812 25.0728C171.621 24.8738 175.231 26.1598 177.338 27.0759C178.868 27.7411 181.993 26.7782 182.547 25.0117H182.85V40.643H182.547C182.547 39.9766 179.652 25.4658 168.812 25.4658C160.806 25.4658 160.032 39.5439 160.032 47.2169C160.032 54.8898 160.265 70.0797 169.609 70.0797C174.135 70.0797 177.485 68.0995 178.354 64.0935V51.9127H174.555V51.3939H189.281V51.9127H185.649V69.7209H185.353C185.353 69.7209 184.763 67.1514 181.766 67.16C177.937 67.171 174.325 70.4981 169.922 70.4576C158.279 70.3505 151.946 58.692 151.9 47.2169Z" fill="#ECEFF5"/>
<path d="M49.5854 26.7498H45V26.2344H61.0628V26.7498H57.0331L68.5104 57.9171C72.0994 46.8682 74.8797 38.7008 78.6213 26.7498H74.6354V26.2344H83.1166V26.7498H79.2543L65.3049 70.2341L49.5854 26.7498Z" fill="#ECEFF5"/>
<path d="M87.0446 59.588L86.972 26.6997H82.6074V26.207H98.6875V26.6997H94.3254L94.4223 62.7599C95.3879 66.8891 97.1048 70.0223 102.97 70.0689C108.836 70.1156 112.823 66.5992 114.305 61.7938V26.6997H109.312L109.312 26.2215H150.179L150.264 42.0092H149.871C149.113 31.8157 145.179 27.9633 138.3 26.8394C135.933 26.4527 133.45 26.7394 130.31 26.715V46.8642C133.044 47.0754 135.956 46.9026 137.919 45.2172C139.703 43.6846 140.208 40.1436 140.339 38.7051H140.684V56.2488H140.31C140.202 56.2488 140.059 51.8463 137.919 49.7576C135.764 47.6552 133.021 47.1383 130.31 47.6392V69.163C134.14 69.163 137.192 69.4873 139.843 68.7606C147.9 66.5517 150.737 59.7544 150.715 52.9369H151.163V69.6725H119.108V69.163H122.733V26.6997H114.902V61.7938C114.015 65.1517 110.771 70.7068 102.457 70.6689C94.7276 70.6336 87.0613 67.149 87.0446 59.588Z" fill="#ECEFF5"/>
</g>
</svg>
