<svg width="272" height="97" viewBox="0 0 272 97" fill="none" xmlns="http://www.w3.org/2000/svg">
<mask id="mask0_1012_9039" style="mask-type:alpha" maskUnits="userSpaceOnUse" x="0" y="0" width="272" height="97">
<rect y="0.0117188" width="272" height="96" rx="8" fill="#C4C4C4"/>
</mask>
<g mask="url(#mask0_1012_9039)">
</g>
<g clip-path="url(#clip0_1012_9039)">
<path d="M60.903 32.5329C60.903 29.7153 60.903 28.7374 62.6874 28.7374C63.8963 28.7374 63.8964 29.1973 63.8964 31.555V67.6496C63.8964 68.5126 63.6082 68.6847 63.1478 68.6847H62.8605V70.9844H72.1283V68.6847H71.7252C71.0925 68.6847 70.9198 68.4541 70.9198 67.5343V30.2905C70.9198 26.1494 70.0562 24.5391 65.9689 24.5391C63.6082 24.5391 61.8819 25.2868 60.788 27.8739C60.3267 25.5742 59.1182 24.5391 55.9525 24.5391C53.3618 24.5391 51.9801 25.3445 50.9443 27.8739V24.5391L43 25.1719V27.4716H43.345C43.8631 27.4716 44.2659 27.8739 44.2659 29.1401V67.3613C44.2659 68.3965 44.0359 68.6847 43.345 68.6847H43V70.9844H51.8651V68.6847H51.5201C51.0593 68.6847 50.9443 68.5122 50.9443 67.8217V32.5329C50.9443 29.7153 50.8862 28.7374 52.6706 28.7374C53.8796 28.7374 53.8795 29.1973 53.8795 31.555V67.6496C53.8795 68.5126 53.5918 68.6847 53.1887 68.6847H52.786V70.9844H61.8819V68.6847H61.7665C61.1338 68.6847 60.903 68.4541 60.903 67.5343V32.5329ZM125.666 70.9848H136.777V68.6851H136.028C135.05 68.6851 134.762 68.282 134.762 66.2697V48.903H140.634V66.2693C140.634 68.2816 140.346 68.6847 139.425 68.6847H138.561V70.9844H149.614V68.6847H148.694C147.714 68.6847 147.542 68.2816 147.542 66.2693V30.6163C147.542 28.5464 147.714 28.2009 148.694 28.2009H149.614V25.9012H138.561V28.2009H139.425C140.346 28.2009 140.634 28.5464 140.634 30.6163V46.1994H134.762V30.6163C134.762 28.5464 135.05 28.2009 136.028 28.2009H136.777V25.9012H125.666V28.2009H126.645C127.566 28.2009 127.854 28.5464 127.854 30.6163V67.419C127.854 68.3969 127.566 68.6851 126.645 68.6851H125.666V70.9848ZM209.6 70.9848H218.408V68.6851H218.12C217.544 68.6851 217.486 68.5126 217.486 67.8221V44.5329C217.486 41.7153 217.545 40.7374 219.329 40.7374C220.652 40.7374 220.652 41.1973 220.652 43.555V67.6496C220.652 68.5126 220.423 68.6847 220.02 68.6847H219.617V70.9844H228.943V68.6847H228.54C227.906 68.6847 227.791 68.4541 227.791 67.5343V42.2905C227.791 38.1494 226.755 36.5391 222.725 36.5391C220.077 36.5391 218.581 37.3445 217.486 39.8739V25.2107L209.025 25.9012V28.2009H209.889C210.463 28.2009 210.809 28.5464 210.809 29.8117V67.3613C210.809 68.3965 210.636 68.6847 209.889 68.6847H209.6V70.9848ZM89.4563 70.9848H98.3214V68.6851H97.9179C97.401 68.6851 97.401 68.5126 97.401 67.8221V44.5329C97.401 41.7153 97.401 40.7374 99.2419 40.7374C100.509 40.7374 100.567 41.1973 100.567 43.555V67.6496C100.567 68.5126 100.222 68.6847 99.8754 68.6847H99.4719V70.9844H108.798V68.6847H108.396C107.762 68.6847 107.59 68.4541 107.59 67.5343V42.2905C107.59 38.1494 106.611 36.5391 102.523 36.5391C99.9339 36.5391 98.3787 37.3445 97.401 39.8739V36.5391L88.8804 37.1719V39.4716H89.8017C90.3202 39.4716 90.7221 39.8739 90.7221 41.1401V67.3613C90.7221 68.3965 90.4929 68.6847 89.8017 68.6847H89.4567L89.4563 70.9848ZM171.144 71.3871C174.195 71.3871 175.347 69.8928 175.979 68.1095C176.555 70.7546 177.188 71.3871 180.642 71.3871C184.672 71.3871 185.19 68.9725 185.133 64.2567H183.233C183.233 67.65 183.175 67.9946 182.542 67.9946C181.966 67.9946 181.966 67.7072 181.966 65.809V43.4401C181.966 38.8972 180.47 36.5395 175.174 36.5395C170.972 36.5395 166.826 37.8048 167.056 42.3473C167.172 44.4181 167.978 46.6029 170.165 46.4876C172.18 46.3727 173.101 45.2807 173.101 43.6123C173.101 42.4626 172.237 40.5644 170.857 39.5293C171.374 39.2995 172.18 39.0685 173.504 39.0685C175.002 39.0685 175.289 40.219 175.289 42.4042V48.672C167.632 51.2599 166.021 52.2951 166.021 61.8985C166.021 68.8 167.691 71.3871 171.144 71.3871ZM157.962 71.3871C163.66 71.3871 164.984 69.6622 164.696 60.2317H162.336C162.336 67.7072 162.106 68.282 159.458 68.282C156.292 68.282 156.292 66.9018 156.292 54.0792V53.0432H165.501C165.501 40.1053 164.063 36.5399 157.961 36.5399C152.435 36.5399 149.556 39.9332 149.556 54.1937C149.557 67.7644 151.744 71.4451 157.962 71.3871ZM81.4539 71.3871C87.0387 71.3871 88.5927 69.6622 88.3619 60.2317H86.0029C86.0029 67.7072 85.6575 68.282 82.9514 68.282C79.5549 68.282 79.7276 66.9018 79.7276 54.0792V53.0432H88.6504C88.6504 40.1053 87.4419 36.5399 81.4543 36.5399C75.8715 36.5399 72.9927 39.9332 72.9927 54.1937C72.9923 67.7644 75.1794 71.4451 81.4539 71.3871ZM186.4 70.9848H195.611V68.6851H194.92C194.344 68.6851 194.114 68.3969 194.114 67.4774V25.2107L185.537 25.9012V28.2009H186.516C187.091 28.2009 187.321 28.4307 187.321 29.3514V67.5923C187.321 68.4545 187.263 68.6851 186.861 68.6851H186.4L186.4 70.9848ZM119.161 71.3871C123.364 71.3871 125.552 68.6267 125.552 64.4872C125.552 54.7689 116.744 49.1331 116.744 42.1748C116.744 40.0468 117.492 39.4144 118.989 39.4144C121.176 39.4144 121.522 40.3347 121.925 43.6123L122.269 46.8322H124.802V36.8265H122.789C122.673 38.0926 122.386 38.5521 122.269 38.3792C121.637 37.6319 120.14 36.5395 117.665 36.5395C113.98 36.5395 110.757 38.2071 110.757 43.6699C110.757 52.1806 119.507 58.679 119.507 65.1769C119.507 67.9946 118.874 68.4545 116.859 68.4545C114.845 68.4545 114.327 67.5351 113.924 63.2795L113.636 60.4611H110.988V70.9848H113.29C113.463 69.8344 113.867 69.0874 114.211 69.4321C114.959 70.2951 115.765 71.3871 119.161 71.3871ZM197.338 63.8548C197.338 69.3172 198.144 71.3871 203.555 71.3871C207.354 71.3871 208.218 69.8928 208.218 65.6949V60.0011H205.915V65.9823C205.915 67.9946 205.742 68.2244 204.995 68.2244C204.246 68.2244 204.073 67.9946 204.073 66.2121V39.4144H208.276V36.8265H204.131V28.2009H201.771C200.101 35.8498 198.663 36.8265 196.417 36.8265H195.785V39.3567H197.338L197.338 63.8548ZM109.605 38.2651C115.361 34.0088 116.513 30.7888 114.613 27.8563C113.577 26.2463 111.216 25.2111 109.489 26.6486C107.417 28.3735 107.935 31.3645 111.792 33.0897C111.101 33.8943 109.489 35.4479 108.165 36.7704L109.605 38.2651ZM173.908 67.3613C172.526 67.3613 172.526 65.9247 172.526 61.3817C172.526 53.1009 172.526 52.008 175.289 50.5129V64.7166C175.289 66.8442 175.002 67.3613 173.908 67.3613ZM79.7272 50.6282C79.8422 39.8743 80.0153 39.3571 81.512 39.3571C82.951 39.3571 82.8364 39.9328 82.8364 50.6282H79.7272ZM156.293 50.6282C156.465 39.8743 156.581 39.3571 158.077 39.3571C159.574 39.3571 159.343 39.9328 159.343 50.6282H156.293Z" fill="#404957"/>
</g>
<defs>
<clipPath id="clip0_1012_9039">
<rect width="186" height="48" fill="white" transform="translate(43 24)"/>
</clipPath>
</defs>
</svg>
