<svg width="272" height="97" viewBox="0 0 272 97" fill="none" xmlns="http://www.w3.org/2000/svg">
<mask id="mask0_1012_9095" style="mask-type:alpha" maskUnits="userSpaceOnUse" x="0" y="0" width="272" height="97">
<rect y="0.0117188" width="272" height="96" rx="8" fill="#C4C4C4"/>
</mask>
<g mask="url(#mask0_1012_9095)">
</g>
<path d="M30.9158 53.3895V39.3693H27V35.5365L30.9158 35.0153V30.2337L39.3642 29.0571V35.0184H44.9672V39.388H39.3642V52.6841C39.3642 55.181 40.0662 56.4607 42.5434 56.4607C43.4248 56.4607 44.6272 56.367 45.241 56.2422V59.485C43.8875 60.2778 40.9916 60.952 38.316 60.952C33.2797 60.952 30.9189 58.7516 30.9189 53.3895H30.9158ZM87.2441 37.2407C89.3657 37.2407 90.5115 37.6152 90.5115 45.0498L83.4291 45.4618C83.5235 38.7201 84.5497 37.2407 87.2441 37.2407ZM83.4984 48.4861H98.727C98.727 37.8555 95.0442 34.466 87.3858 34.466C79.7778 34.466 74.7855 39.3225 74.7855 47.6622C74.7855 56.2765 79.3119 61.0425 88.0877 61.0425C92.803 61.0425 96.6117 58.9513 97.7953 57.3595V54.8938C96.0231 55.4244 94.2006 55.7678 90.9333 55.7678C86.3219 55.7678 83.9453 53.3957 83.4984 48.4643V48.4861ZM45.9713 58.1117L48.6783 56.8758V29.3161L45.8296 28.0052V25.7049L56.3619 24.0195H57.0764V37.8087H57.3597C59.6576 35.7488 62.7423 34.4629 66.1733 34.4629C70.4857 34.4629 72.6261 36.5915 72.6261 41.2357V56.8727L75.3647 58.1117V60.4432H61.4203V58.1117L64.1588 56.8727V43.1303C64.1588 40.5585 63.0256 39.5971 60.7278 39.5971C59.4687 39.5971 58.2726 39.825 57.2338 40.2401V56.8758L59.9723 58.118V60.4495H45.9933V58.1086L45.9713 58.1117Z" fill="#ECEFF5"/>
<path d="M199.796 36.1194V38.4228L202.642 39.7337V56.8999L199.928 58.1484V60.4892H213.851V58.1796L211.137 56.9311V34.4589H210.423L199.796 36.1412V36.1194ZM214.534 58.1172L217.241 56.8999V39.7337L214.392 38.4228V36.1444L224.928 34.4901H225.642V37.861H225.925C228.223 35.801 231.308 34.5214 234.739 34.5214C239.051 34.5214 241.192 36.6437 241.192 41.2942V56.9311L243.93 58.1796V60.5205H229.986V58.2108L232.725 56.9873V43.1326C232.725 40.5608 231.591 39.5995 229.294 39.5995C228.034 39.5995 226.838 39.8273 225.8 40.2424V56.8781L228.507 58.1203V60.4518H214.594V58.1109L214.534 58.1172ZM187.967 29.3403L185.128 28.0606V25.751L195.748 24.0655H196.463V56.1196L199.17 57.5866V59.7714L189.097 60.9262H188.405V58.3044H188.121C187.051 59.6465 184.879 61.051 181.7 61.051C177.041 61.051 171.47 58.1172 171.47 48.4104C171.47 38.2043 177.167 34.5214 183.935 34.5214C185.351 34.5214 187.02 34.8335 188.058 35.5825V29.3403H187.967ZM187.967 55.9948V38.8566C187.306 38.3572 186.614 37.9421 185.071 37.9421C182.414 37.9421 180.381 40.3142 180.381 47.4616C180.381 53.7226 181.986 56.4505 185.348 56.4505C186.654 56.4505 187.388 56.1883 187.961 55.9573L187.967 55.9948ZM113.6 68.8851C108.961 68.8851 107.368 67.2621 107.368 65.5143C107.368 64.297 107.695 63.4543 108.35 62.674H117.33C119.43 62.674 120.384 63.2983 120.384 64.6091C120.39 67.2309 118.92 68.8851 113.6 68.8851ZM113.673 37.424C115.53 37.424 116.726 38.2355 116.726 43.2918C116.726 48.348 115.527 48.8755 113.701 48.8755C111.875 48.8755 110.698 48.4541 110.698 43.298C110.698 38.1481 111.863 37.4303 113.714 37.4303L113.673 37.424ZM119.307 54.996H110.179C109.203 54.996 108.385 54.247 108.385 53.373C108.385 52.6864 108.888 51.9685 109.518 51.5004C110.903 51.9061 112.036 52.031 113.736 52.031C120.314 52.031 124.816 49.0659 124.816 43.5415C124.816 41.0758 123.777 39.6712 122.14 38.2355V38.0482L126.358 39.5152L126.925 39.5464V34.4558H126.453L119.959 35.7355H119.597C117.979 35.1425 115.725 34.5182 113.679 34.5182C107.1 34.5182 102.549 37.7549 102.549 43.2512C102.549 46.6002 104.249 49.094 106.789 50.4735V50.7388C105.322 51.7625 102.508 53.8662 102.508 56.5597C102.508 58.526 103.817 60.4705 106.556 61.0542V61.3257C103.676 61.9187 100.449 62.8551 100.449 66.1323C100.449 69.5031 105.375 72 113.405 72C123.383 72 127.702 68.1922 127.702 62.1684C127.702 57.2058 124.932 54.8962 119.298 54.8962L119.307 54.996ZM152.237 36.1444V38.454L155.102 39.7649V56.9311L152.395 58.1796V60.5205H167.06V58.2108L163.566 56.9624V42.8205C165.014 42.1338 166.918 41.9029 169.2 41.9029C169.95 41.9029 170.837 41.9965 171.35 42.1307V34.7367C171.067 34.6431 170.51 34.5994 170.091 34.5994C167.29 34.5994 165.001 36.3878 163.506 39.7805H163.254V34.4371H162.53L152.237 36.1163V36.1444ZM140.528 55.5891V48.7225L138.576 48.9098C136.625 49.0971 135.019 50.408 135.019 52.8425C135.019 55.6515 136.562 56.5566 138.198 56.5566C139.143 56.5566 140.106 56.0884 140.572 55.5891H140.528ZM134.516 37.8922L132.721 43.0733H128.315V36.3909C130.707 35.6606 133.603 34.4683 138.073 34.4683C144.903 34.4683 148.995 36.4658 148.995 42.1463V56.8781L151.702 58.1265V60.0367C150.884 60.4799 148.995 61.0448 146.949 61.0448C144.305 61.0448 141.913 60.2021 141.535 57.4555H141.283C140.15 59.7027 137.128 61.076 133.968 61.076C129.445 61.076 126.602 58.1734 126.602 53.9598C126.602 48.7787 130.055 47.936 135.655 46.7812L140.559 45.9385V42.6332C140.559 39.381 139.571 37.7642 136.31 37.7642C135.885 37.7642 135.082 37.8204 134.572 37.8703L134.516 37.8922ZM206.721 24C209.239 24 211.27 26.0194 211.27 28.5132C211.27 31.0038 209.233 33.0263 206.718 33.0263C204.2 33.0263 202.154 31.0288 202.154 28.5319C202.154 26.035 204.2 24.0375 206.718 24.0375L206.721 24ZM242.574 59.0691L243.93 59.35L242.574 59.0691Z" fill="#ADBBCC"/>
</svg>
