<svg width="272" height="97" viewBox="0 0 272 97" fill="none" xmlns="http://www.w3.org/2000/svg">
<mask id="mask0_1012_9081" style="mask-type:alpha" maskUnits="userSpaceOnUse" x="0" y="0" width="272" height="97">
<rect y="0.0117188" width="272" height="96" rx="8" fill="#C4C4C4"/>
</mask>
<g mask="url(#mask0_1012_9081)">
</g>
<path d="M139 48.0357C139 46.8228 139 47.0278 139 45.9806H125.343C126.905 51.7403 123.261 55.4056 123.261 55.4056C123.261 55.4056 120.657 58.5472 115.451 58.5472C110.537 58.5472 105.633 54.4286 105.522 48.1546C105.406 41.6545 110.838 37.4178 115.971 37.6029C120.141 37.7532 122.175 39.7019 124.5 42.0117C124.5 42.0117 137.646 42.0117 138 42.0117C137.597 40.4468 136.678 37.3362 134.969 34.8885C134.826 34.6847 134.681 34.4793 134.527 34.2756C131.109 29.6836 125.17 25.0217 115.943 25.0117C105.101 24.9964 96.7331 32.3123 93.9736 41.2698C93.9408 41.3778 93.9092 41.4859 93.8767 41.5948C93.8767 41.5998 93.8747 41.6072 93.8726 41.6114C93.3061 43.6156 93 45.7309 93 47.9152C93.0205 50.0069 93.2897 52.009 93.7787 53.8982C95.5199 60.4335 100.052 65.8272 106.018 68.7201C106.066 68.7429 106.114 68.7665 106.163 68.788C106.194 68.8046 106.225 68.8166 106.254 68.8311C109.265 70.2133 112.647 70.9831 116.238 71.0117C123.853 70.9496 130.588 67.1887 134.737 61.4332C134.822 61.3143 139 55.2146 139 48.0357Z" fill="#ECEFF5"/>
<path d="M173.729 34.8184C173.729 34.8184 177.98 40.2709 177.996 47.531C178.03 61.7891 168.086 70.991 154.214 71.0117C146.178 71.0241 138.769 66.7309 134.974 61.5799C131.599 56.9972 131.043 53.1791 131.043 50.4019C130.883 46.9466 131.221 45.3126 131.221 45.3126C132 41.5117 133.102 38.1759 135.236 35.0892C139.277 29.2461 145.985 25.0117 154.294 25.0117C159.808 25.0109 163.709 27.6125 164.414 27.9886L165.875 26.2887H180L173.729 34.8184ZM165.131 44.8234L163.925 46.3116H149.596L155.421 38.0061C149.359 36.8127 143.63 41.9865 143.713 47.9129C143.798 53.9681 148.664 58.4655 154.481 58.4262C160.868 58.3856 167.24 51.4307 165.131 44.8234Z" fill="#ADBBCC"/>
<path opacity="0.5" d="M138 42.0117C137.638 40.3747 136.741 37.8981 135.207 35.3388C135.143 35.23 135.073 35.1213 135.007 35.0117C135.154 35.251 135.3 35.4358 135.124 35.2022C133.505 37.7745 132.5 39.5117 132 42.0117C134.958 42.0126 137.847 42.0117 138 42.0117Z" fill="#707781"/>
<path opacity="0.5" d="M139 48.291C139 47.0133 139 46.0111 139 46.0111H131C131 45.608 131 46.4124 131 46.0111C130.846 49.6505 131 52.0098 131 52.0098C131.5 55.5098 132.5 58.0098 135 61.5098C135.881 59.9961 139 56.5117 139 48.291Z" fill="#707781"/>
</svg>
