<svg width="272" height="97" viewBox="0 0 272 97" fill="none" xmlns="http://www.w3.org/2000/svg">
<mask id="mask0_1012_9066" style="mask-type:alpha" maskUnits="userSpaceOnUse" x="0" y="0" width="272" height="97">
<rect y="0.0117188" width="272" height="96" rx="8" fill="#C4C4C4"/>
</mask>
<g mask="url(#mask0_1012_9066)">
</g>
<g clip-path="url(#clip0_1012_9066)">
<path d="M82.4679 69.149C82.1018 70.68 82.0352 70.8131 81.6359 70.8131H77.2759V71.1126H87.1274V70.8131H82.6343C82.3348 70.8131 82.4013 70.6134 82.7342 69.2155L85.7628 57.4669H97.7444L101.405 70.8131H96.5463V71.1126H112.921V70.8131H107.829L94.2498 23.7188H94.1833L82.4679 69.149ZM91.554 34.9681L97.6446 57.1674H85.8294L91.554 34.9681ZM188.485 47.6154H192.246C195.574 47.6154 200.466 49.0465 200.466 54.8376V65.3548C200.466 69.6482 202.829 72.3774 207.023 72.3774C211.416 72.3774 211.35 67.9175 211.35 64.7224V61.3277H211.05V64.7224C211.05 68.3835 210.617 71.5453 208.454 71.5453C206.557 71.5453 206.158 70.3804 206.158 65.4214V54.8709C206.158 49.9784 202.197 48.1812 196.073 47.4823C203.695 46.5836 206.557 41.7244 206.557 36.3327C206.557 28.3783 202.896 25.0168 193.41 25.0168H178.4V25.3163H182.327C182.627 25.3163 182.76 25.3829 182.76 25.5493V70.5801C182.76 70.7465 182.627 70.8131 182.327 70.8131H178.4V71.1126H192.212V70.8131H188.884C188.584 70.8131 188.451 70.7465 188.451 70.5801V47.6154H188.485ZM188.485 25.3163H192.512C198.736 25.3163 200.5 30.0424 200.5 36.3327C200.5 42.1904 198.736 47.3491 192.512 47.3491H188.485V25.3163ZM135.786 70.5801C135.819 70.68 135.786 70.8131 135.553 70.8131H124.803C121.508 70.8131 117.215 65.9206 117.215 50.1448V48.514H116.915V71.1126H142.576L123.139 25.5493C123.105 25.4494 123.139 25.3163 123.372 25.3163H134.788C137.783 25.3163 142.143 30.7746 142.143 45.9846V47.6154H142.442V25.0168H116.316L135.786 70.5801ZM59.5697 25.3163C65.7935 25.3163 68.323 30.0424 68.323 36.3327C68.323 42.1904 65.7935 46.8832 59.5697 46.8832H56.7408V25.3163H59.5697ZM46.6562 25.0168V25.3163H50.5836C50.8831 25.3163 51.0162 25.3829 51.0162 25.5493V70.5801C51.0162 70.7465 50.8831 70.8131 50.5836 70.8131H46.6562V71.1126H61.3337C70.7859 71.1126 75.8447 67.1853 75.8447 59.2309C75.8447 53.706 72.8493 48.1146 63.4305 46.983C71.4182 46.2508 74.1806 41.2252 74.1806 36.2994C74.1806 29.1437 69.8872 24.9835 60.4018 24.9835L46.6562 25.0168ZM59.5697 47.1827C66.5923 47.1827 69.388 51.9754 69.388 59.2309C69.388 65.4879 66.8918 70.8464 61.0674 70.8464H57.1734C56.8739 70.8464 56.7408 70.7798 56.7408 70.6134V47.1827H59.5697ZM150.197 69.149C149.798 70.68 149.765 70.8131 149.365 70.8131H145.005V71.1126H154.857V70.8131H150.364C150.064 70.8131 150.131 70.6134 150.463 69.2155L153.492 57.4669H165.474L169.135 70.8131H164.276V71.1126H180.65V70.8131H175.558L161.979 23.7188H161.879L150.197 69.149ZM159.317 34.9681L165.407 57.1674H153.592L159.317 34.9681Z" fill="#404957"/>
<path d="M226.662 25.1511H212.55V25.4507H216.478C216.777 25.4507 216.91 25.5172 216.91 25.6836V70.7145C216.91 70.8809 216.777 70.9474 216.478 70.9474H213.254V71.247H226.362V70.9474H223.034C222.735 70.9474 222.602 70.8809 222.602 70.7145L222.634 48.2304L222.635 47.7497V25.4507H226.662V25.1511Z" fill="#404957"/>
</g>
<defs>
<clipPath id="clip0_1012_9066">
<rect width="181" height="48" fill="white" transform="translate(46 24.0117)"/>
</clipPath>
</defs>
</svg>
