<svg width="310" height="57" viewBox="0 0 310 57" fill="none" xmlns="http://www.w3.org/2000/svg">
<path d="M98.28 19.2311V40.9961H94.305V27.6311C94.305 27.3511 94.31 27.0511 94.32 26.7311C94.34 26.4111 94.37 26.0861 94.41 25.7561L88.185 37.5611C87.845 38.2111 87.32 38.5361 86.61 38.5361H85.98C85.63 38.5361 85.32 38.4561 85.05 38.2961C84.78 38.1261 84.565 37.8811 84.405 37.5611L78.15 25.7111C78.18 26.0611 78.205 26.4011 78.225 26.7311C78.245 27.0511 78.255 27.3511 78.255 27.6311V40.9961H74.28V19.2311H77.7C77.89 19.2311 78.06 19.2361 78.21 19.2461C78.36 19.2561 78.49 19.2861 78.6 19.3361C78.72 19.3761 78.825 19.4461 78.915 19.5461C79.015 19.6361 79.11 19.7661 79.2 19.9361L85.29 31.5461C85.48 31.8961 85.655 32.2561 85.815 32.6261C85.985 32.9961 86.145 33.3761 86.295 33.7661C86.445 33.3661 86.6 32.9761 86.76 32.5961C86.93 32.2161 87.11 31.8511 87.3 31.5011L93.345 19.9361C93.435 19.7661 93.53 19.6361 93.63 19.5461C93.73 19.4461 93.835 19.3761 93.945 19.3361C94.065 19.2861 94.195 19.2561 94.335 19.2461C94.485 19.2361 94.66 19.2311 94.86 19.2311H98.28ZM107.345 40.9961H102.815V19.2311H107.345V40.9961ZM130.542 19.2311V40.9961H128.217C127.867 40.9961 127.572 40.9411 127.332 40.8311C127.092 40.7111 126.857 40.5111 126.627 40.2311L115.782 26.4311C115.812 26.7811 115.832 27.1261 115.842 27.4661C115.862 27.8061 115.872 28.1211 115.872 28.4111V40.9961H111.897V19.2311H114.267C114.457 19.2311 114.617 19.2411 114.747 19.2611C114.887 19.2711 115.012 19.3061 115.122 19.3661C115.232 19.4161 115.337 19.4861 115.437 19.5761C115.537 19.6661 115.647 19.7861 115.767 19.9361L126.687 33.7961C126.647 33.4161 126.617 33.0511 126.597 32.7011C126.577 32.3411 126.567 32.0011 126.567 31.6811V19.2311H130.542ZM154.615 30.1061C154.615 31.6961 154.345 33.1611 153.805 34.5011C153.275 35.8311 152.52 36.9761 151.54 37.9361C150.57 38.8961 149.4 39.6461 148.03 40.1861C146.66 40.7261 145.14 40.9961 143.47 40.9961H135.1V19.2311H143.47C145.14 19.2311 146.66 19.5011 148.03 20.0411C149.4 20.5811 150.57 21.3361 151.54 22.3061C152.52 23.2661 153.275 24.4111 153.805 25.7411C154.345 27.0711 154.615 28.5261 154.615 30.1061ZM149.995 30.1061C149.995 28.9661 149.845 27.9411 149.545 27.0311C149.245 26.1211 148.815 25.3511 148.255 24.7211C147.695 24.0911 147.01 23.6061 146.2 23.2661C145.4 22.9261 144.49 22.7561 143.47 22.7561H139.63V37.4711H143.47C144.49 37.4711 145.4 37.3061 146.2 36.9761C147.01 36.6361 147.695 36.1511 148.255 35.5211C148.815 34.8811 149.245 34.1061 149.545 33.1961C149.845 32.2861 149.995 31.2561 149.995 30.1061Z" fill="#314B6B"/>
<path d="M187.203 19.2311L180.453 40.9961H176.388L171.933 26.7611C171.863 26.5611 171.793 26.3411 171.723 26.1011C171.653 25.8611 171.588 25.6061 171.528 25.3361C171.468 25.6061 171.403 25.8611 171.333 26.1011C171.263 26.3411 171.193 26.5611 171.123 26.7611L166.623 40.9961H162.543L155.808 19.2311H159.588C159.978 19.2311 160.303 19.3211 160.563 19.5011C160.833 19.6811 161.008 19.9211 161.088 20.2211L164.463 32.4911C164.543 32.8311 164.623 33.2011 164.703 33.6011C164.793 33.9911 164.878 34.4061 164.958 34.8461C165.048 34.3961 165.143 33.9761 165.243 33.5861C165.343 33.1961 165.453 32.8311 165.573 32.4911L169.503 20.2211C169.583 19.9711 169.753 19.7461 170.013 19.5461C170.283 19.3361 170.608 19.2311 170.988 19.2311H172.308C172.698 19.2311 173.013 19.3261 173.253 19.5161C173.503 19.6961 173.688 19.9311 173.808 20.2211L177.723 32.4911C177.843 32.8111 177.953 33.1611 178.053 33.5411C178.153 33.9111 178.248 34.3061 178.338 34.7261C178.418 34.3061 178.493 33.9111 178.563 33.5411C178.643 33.1611 178.723 32.8111 178.803 32.4911L182.178 20.2211C182.248 19.9611 182.418 19.7311 182.688 19.5311C182.958 19.3311 183.283 19.2311 183.663 19.2311H187.203ZM194.181 22.7561V28.3511H201.441V31.7561H194.181V37.4711H203.511V40.9961H189.651V19.2311H203.511V22.7561H194.181ZM219.793 37.3361V40.9961H206.878V19.2311H211.378V37.3361H219.793ZM235.466 37.3361V40.9961H222.551V19.2311H227.051V37.3361H235.466ZM256.87 19.2311V40.9961H254.545C254.195 40.9961 253.9 40.9411 253.66 40.8311C253.42 40.7111 253.185 40.5111 252.955 40.2311L242.11 26.4311C242.14 26.7811 242.16 27.1261 242.17 27.4661C242.19 27.8061 242.2 28.1211 242.2 28.4111V40.9961H238.225V19.2311H240.595C240.785 19.2311 240.945 19.2411 241.075 19.2611C241.215 19.2711 241.34 19.3061 241.45 19.3661C241.56 19.4161 241.665 19.4861 241.765 19.5761C241.865 19.6661 241.975 19.7861 242.095 19.9361L253.015 33.7961C252.975 33.4161 252.945 33.0511 252.925 32.7011C252.905 32.3411 252.895 32.0011 252.895 31.6811V19.2311H256.87ZM265.958 22.7561V28.3511H273.218V31.7561H265.958V37.4711H275.288V40.9961H261.428V19.2311H275.288V22.7561H265.958ZM290.445 23.4011C290.305 23.6311 290.16 23.8011 290.01 23.9111C289.87 24.0111 289.685 24.0611 289.455 24.0611C289.235 24.0611 288.995 23.9861 288.735 23.8361C288.485 23.6761 288.19 23.5061 287.85 23.3261C287.51 23.1461 287.12 22.9811 286.68 22.8311C286.24 22.6711 285.725 22.5911 285.135 22.5911C284.095 22.5911 283.315 22.8261 282.795 23.2961C282.275 23.7561 282.015 24.3611 282.015 25.1111C282.015 25.5911 282.155 25.9911 282.435 26.3111C282.725 26.6211 283.1 26.8911 283.56 27.1211C284.03 27.3511 284.56 27.5561 285.15 27.7361C285.74 27.9161 286.345 28.1161 286.965 28.3361C287.585 28.5461 288.19 28.7961 288.78 29.0861C289.37 29.3761 289.895 29.7411 290.355 30.1811C290.825 30.6211 291.2 31.1611 291.48 31.8011C291.77 32.4311 291.915 33.2011 291.915 34.1111C291.915 35.1011 291.74 36.0311 291.39 36.9011C291.05 37.7611 290.555 38.5161 289.905 39.1661C289.255 39.8061 288.45 40.3111 287.49 40.6811C286.54 41.0511 285.46 41.2361 284.25 41.2361C283.56 41.2361 282.87 41.1661 282.18 41.0261C281.5 40.8861 280.84 40.6911 280.2 40.4411C279.57 40.1911 278.975 39.8911 278.415 39.5411C277.855 39.1911 277.365 38.8011 276.945 38.3711L278.265 36.2411C278.375 36.0811 278.52 35.9511 278.7 35.8511C278.88 35.7411 279.07 35.6861 279.27 35.6861C279.54 35.6861 279.825 35.7861 280.125 35.9861C280.425 36.1861 280.77 36.4061 281.16 36.6461C281.55 36.8861 282 37.1061 282.51 37.3061C283.03 37.5061 283.65 37.6061 284.37 37.6061C285.42 37.6061 286.23 37.3661 286.8 36.8861C287.38 36.4061 287.67 35.6911 287.67 34.7411C287.67 34.1911 287.525 33.7461 287.235 33.4061C286.955 33.0661 286.585 32.7811 286.125 32.5511C285.665 32.3211 285.14 32.1261 284.55 31.9661C283.96 31.7961 283.355 31.6111 282.735 31.4111C282.115 31.2111 281.51 30.9711 280.92 30.6911C280.33 30.4111 279.805 30.0411 279.345 29.5811C278.885 29.1211 278.51 28.5511 278.22 27.8711C277.94 27.1911 277.8 26.3461 277.8 25.3361C277.8 24.5261 277.96 23.7411 278.28 22.9811C278.6 22.2211 279.07 21.5461 279.69 20.9561C280.31 20.3661 281.07 19.8911 281.97 19.5311C282.88 19.1711 283.92 18.9911 285.09 18.9911C286.4 18.9911 287.61 19.1961 288.72 19.6061C289.84 20.0061 290.785 20.5661 291.555 21.2861L290.445 23.4011ZM306.968 23.4011C306.828 23.6311 306.683 23.8011 306.533 23.9111C306.393 24.0111 306.208 24.0611 305.978 24.0611C305.758 24.0611 305.518 23.9861 305.258 23.8361C305.008 23.6761 304.713 23.5061 304.373 23.3261C304.033 23.1461 303.643 22.9811 303.203 22.8311C302.763 22.6711 302.248 22.5911 301.658 22.5911C300.618 22.5911 299.838 22.8261 299.318 23.2961C298.798 23.7561 298.538 24.3611 298.538 25.1111C298.538 25.5911 298.678 25.9911 298.958 26.3111C299.248 26.6211 299.623 26.8911 300.083 27.1211C300.553 27.3511 301.083 27.5561 301.673 27.7361C302.263 27.9161 302.868 28.1161 303.488 28.3361C304.108 28.5461 304.713 28.7961 305.303 29.0861C305.893 29.3761 306.418 29.7411 306.878 30.1811C307.348 30.6211 307.723 31.1611 308.003 31.8011C308.293 32.4311 308.438 33.2011 308.438 34.1111C308.438 35.1011 308.263 36.0311 307.913 36.9011C307.573 37.7611 307.078 38.5161 306.428 39.1661C305.778 39.8061 304.973 40.3111 304.013 40.6811C303.063 41.0511 301.983 41.2361 300.773 41.2361C300.083 41.2361 299.393 41.1661 298.703 41.0261C298.023 40.8861 297.363 40.6911 296.723 40.4411C296.093 40.1911 295.498 39.8911 294.938 39.5411C294.378 39.1911 293.888 38.8011 293.468 38.3711L294.788 36.2411C294.898 36.0811 295.043 35.9511 295.223 35.8511C295.403 35.7411 295.593 35.6861 295.793 35.6861C296.063 35.6861 296.348 35.7861 296.648 35.9861C296.948 36.1861 297.293 36.4061 297.683 36.6461C298.073 36.8861 298.523 37.1061 299.033 37.3061C299.553 37.5061 300.173 37.6061 300.893 37.6061C301.943 37.6061 302.753 37.3661 303.323 36.8861C303.903 36.4061 304.193 35.6911 304.193 34.7411C304.193 34.1911 304.048 33.7461 303.758 33.4061C303.478 33.0661 303.108 32.7811 302.648 32.5511C302.188 32.3211 301.663 32.1261 301.073 31.9661C300.483 31.7961 299.878 31.6111 299.258 31.4111C298.638 31.2111 298.033 30.9711 297.443 30.6911C296.853 30.4111 296.328 30.0411 295.868 29.5811C295.408 29.1211 295.033 28.5511 294.743 27.8711C294.463 27.1911 294.323 26.3461 294.323 25.3361C294.323 24.5261 294.483 23.7411 294.803 22.9811C295.123 22.2211 295.593 21.5461 296.213 20.9561C296.833 20.3661 297.593 19.8911 298.493 19.5311C299.403 19.1711 300.443 18.9911 301.613 18.9911C302.923 18.9911 304.133 19.1961 305.243 19.6061C306.363 20.0061 307.308 20.5661 308.078 21.2861L306.968 23.4011Z" fill="#E9EFF7"/>
<g clip-path="url(#clip0_1544_1299)">
<path fill-rule="evenodd" clip-rule="evenodd" d="M28 0.996094C43.464 0.996094 56 13.5321 56 28.9961C56 44.4601 43.464 56.9961 28 56.9961C12.536 56.9961 0 44.4601 0 28.9961C0 13.5321 12.536 0.996094 28 0.996094ZM27.4104 4.38498C29.8583 4.38498 30.7778 5.91243 30.7778 8.44054C30.7778 10.4183 30.8638 12.0028 30.4444 12.885C29.9333 13.9595 28.8222 14.2183 27.7778 14.2183C26.0143 14.2183 23.2222 10.7988 23.2222 8.21832C23.2222 5.72087 25.5082 4.38498 27.4104 4.38498ZM6.66667 10.7739C6.66667 10.7739 18.0184 15.0313 28.3461 14.1897C33.3745 13.78 38.2038 11.9255 41.4444 10.3294C44.4151 8.86632 46 7.55165 46 7.55165C46.429 7.85764 46.8373 8.1917 47.2222 8.55165C47.6174 8.93584 47.9884 9.34402 48.3333 9.77387C48.3333 9.77387 36.4381 13.4233 35.1111 18.2183C34.8376 19.2072 34.0431 21.5628 34.3333 24.4405C34.5044 26.1372 36.2816 31.4208 36.5556 38.885C36.8491 46.8811 35.3333 55.9961 35.3333 55.9961C35.3333 55.9961 34.5343 56.253 33.6667 56.4405C32.5186 56.6888 31.2222 56.885 31.2222 56.885C31.2222 56.885 33.0523 49.1573 33 46.2183C32.9694 44.4986 33.6601 31.8602 31.4134 32.5651C29.7017 33.1021 27.7751 38.8583 27.4444 39.5517C25.8906 42.8097 22.3333 56.4405 22.3333 56.4405C22.3333 56.4405 21.3259 56.2643 20.3333 55.9961C19.2726 55.7094 18.2222 55.3294 18.2222 55.3294C18.2222 55.3294 21.5619 48.2331 23.8889 41.2183C25.7752 35.5319 26.4229 29.6671 26.4444 29.4405C26.699 26.7651 25.9096 23.2949 25.7731 22.4439C25.0572 17.9798 17.3478 15.5876 11.3333 14.5516C9.05105 14.1558 6.74217 13.9328 4.42633 13.8843C4.44344 13.8822 5.02744 12.9325 5.66667 12.1072C6.37578 11.1916 6.66667 10.7739 6.66667 10.7739Z" fill="#314B6B"/>
</g>
<defs>
<clipPath id="clip0_1544_1299">
<rect width="56" height="56" fill="white" transform="translate(0 0.996094)"/>
</clipPath>
</defs>
</svg>
