<svg width="272" height="44" viewBox="0 0 272 44" fill="none" xmlns="http://www.w3.org/2000/svg">
<path d="M16.1997 24.888C16.2077 24.888 16.2117 24.884 16.2117 24.876C16.2197 24.868 16.2317 24.86 16.2477 24.852L16.1757 24.888C16.0957 24.856 16.0077 24.82 15.9117 24.78C15.8237 24.74 15.7477 24.688 15.6837 24.624C15.6197 24.56 15.5877 24.484 15.5877 24.396C15.5957 24.308 15.6557 24.196 15.7677 24.06C15.8797 23.932 16.0637 23.78 16.3197 23.604C16.5757 23.42 16.9317 23.208 17.3877 22.968L17.3757 22.98C17.5597 22.868 17.7757 22.732 18.0237 22.572C18.2717 22.412 18.5037 22.252 18.7197 22.092C18.9117 21.932 19.1037 21.76 19.2957 21.576C19.4957 21.384 19.6557 21.176 19.7757 20.952H19.7637C19.8277 20.84 19.8757 20.732 19.9077 20.628C19.9397 20.516 19.9517 20.404 19.9437 20.292C19.9277 20.132 19.8437 20.008 19.6917 19.92C19.5717 19.856 19.4437 19.812 19.3077 19.788C19.1717 19.756 19.0317 19.732 18.8877 19.716H18.8157C18.7517 19.708 18.6877 19.704 18.6237 19.704C18.5677 19.696 18.5117 19.692 18.4557 19.692C18.3757 19.692 18.2797 19.696 18.1677 19.704C18.0557 19.704 17.9477 19.712 17.8437 19.728C17.4677 19.768 17.0757 19.828 16.6677 19.908C16.2677 19.98 15.8957 20.064 15.5517 20.16C15.5517 20.168 15.5477 20.172 15.5397 20.172C15.5317 20.172 15.5237 20.176 15.5157 20.184C15.5157 20.184 15.5077 20.184 15.4917 20.184C15.4357 20.2 15.3877 20.212 15.3477 20.22C15.3157 20.22 15.2917 20.224 15.2757 20.232C14.6037 20.4 14.1397 20.476 13.8837 20.46C13.6357 20.436 13.5317 20.34 13.5717 20.172C13.6117 19.996 13.7637 19.76 14.0277 19.464C14.2997 19.168 14.6157 18.828 14.9757 18.444L15.4437 17.952C16.0197 17.304 16.6197 16.62 17.2437 15.9C17.8677 15.18 18.4837 14.444 19.0917 13.692C19.4037 13.308 19.7157 12.92 20.0277 12.528C20.3477 12.136 20.6637 11.728 20.9757 11.304C21.2797 10.88 21.5837 10.448 21.8877 10.008C22.1997 9.56 22.4797 9.116 22.7277 8.676H22.7157C22.8757 8.388 23.0117 8.112 23.1237 7.848C23.2437 7.576 23.3237 7.332 23.3637 7.116V7.14C23.3717 7.044 23.3797 6.996 23.3877 6.996V6.984L23.4237 6.996C23.4237 6.996 23.4157 6.992 23.3997 6.984L23.3637 6.972L23.2077 6.948L22.9917 6.9L23.0157 6.912C22.9277 6.896 22.8437 6.888 22.7637 6.888C22.6837 6.88 22.6157 6.876 22.5597 6.876C22.4477 6.876 22.3197 6.884 22.1757 6.9C22.0397 6.916 21.9077 6.936 21.7797 6.96C21.5797 7 21.3837 7.044 21.1917 7.092C21.0077 7.14 20.8237 7.196 20.6397 7.26C20.2877 7.396 19.9397 7.544 19.5957 7.704C19.2517 7.864 18.9277 8.024 18.6237 8.184H18.6357C18.2917 8.368 17.9637 8.556 17.6517 8.748C17.3397 8.94 17.0397 9.132 16.7517 9.324C16.4237 9.54 16.0837 9.772 15.7317 10.02C15.3877 10.268 15.0237 10.54 14.6397 10.836C14.2557 11.124 13.8517 11.44 13.4277 11.784C13.0117 12.128 12.5677 12.508 12.0957 12.924C11.1597 13.732 10.0557 14.756 8.78372 15.996C7.51972 17.236 6.11172 18.7 4.55972 20.388V20.376C4.16772 20.808 3.77972 21.244 3.39572 21.684C3.01972 22.124 2.65972 22.548 2.31572 22.956C2.14772 23.164 1.98772 23.364 1.83572 23.556C1.81972 23.58 1.79972 23.604 1.77572 23.628C1.75172 23.652 1.73172 23.676 1.71572 23.7L1.61972 23.832C1.60372 23.864 1.57572 23.9 1.53572 23.94C1.49572 23.98 1.43172 24.024 1.34372 24.072L1.22372 24.192H1.13972C1.08372 24.224 1.02372 24.256 0.959719 24.288C0.895719 24.328 0.819719 24.368 0.731719 24.408L0.839719 24.18H0.767719C0.751719 24.18 0.739719 24.176 0.731719 24.168C0.643719 24.112 0.575719 24.064 0.527719 24.024C0.479719 23.984 0.447719 23.948 0.431719 23.916C0.407719 23.876 0.395719 23.84 0.395719 23.808C0.395719 23.768 0.395719 23.724 0.395719 23.676V23.616C0.395719 23.552 0.399719 23.508 0.407719 23.484C0.415719 23.452 0.435719 23.412 0.467719 23.364H0.455719C0.463719 23.316 0.479719 23.28 0.503719 23.256C0.519719 23.232 0.535719 23.208 0.551719 23.184L0.743719 22.8L0.779719 22.86C0.795719 22.844 0.811719 22.812 0.827719 22.764L0.815719 22.776C0.831719 22.752 0.847719 22.732 0.863719 22.716C0.871719 22.7 0.883719 22.672 0.899719 22.632C0.907719 22.616 0.915719 22.6 0.923719 22.584C0.931719 22.568 0.943719 22.552 0.959719 22.536C1.02372 22.424 1.08372 22.32 1.13972 22.224C1.18772 22.128 1.24372 22.024 1.30772 21.912L1.29572 21.924C1.75172 21.036 2.16772 20.192 2.54372 19.392C2.92772 18.592 3.28772 17.82 3.62372 17.076C4.17572 15.844 4.69572 14.668 5.18372 13.548C5.67172 12.42 6.09572 11.436 6.45572 10.596C6.50372 10.484 6.54772 10.38 6.58772 10.284C6.63572 10.188 6.67972 10.092 6.71972 9.996C6.94372 9.468 7.15972 8.96 7.36772 8.472C7.57572 7.976 7.76772 7.52 7.94372 7.104C8.11972 6.688 8.27172 6.32 8.39972 6C8.53572 5.68 8.64372 5.424 8.72372 5.232C8.76372 5.144 8.79572 5.068 8.81972 5.004C8.85172 4.932 8.87972 4.864 8.90372 4.8C8.93572 4.728 8.96372 4.66 8.98772 4.596C9.01972 4.532 9.04372 4.48 9.05972 4.44V4.452C9.15572 4.236 9.26372 4.04 9.38372 3.864C9.51172 3.68 9.63972 3.528 9.76772 3.408C9.89572 3.28 10.0237 3.192 10.1517 3.144C10.2797 3.088 10.3957 3.076 10.4997 3.108C10.7237 3.22 10.8357 3.444 10.8357 3.78C10.8357 3.948 10.8077 4.148 10.7517 4.38C10.6957 4.604 10.6157 4.84 10.5117 5.088C10.4717 5.184 10.4237 5.288 10.3677 5.4C10.3197 5.512 10.2517 5.664 10.1637 5.856C10.0997 5.992 10.0237 6.156 9.93572 6.348C9.85572 6.54 9.75572 6.772 9.63572 7.044C9.51572 7.308 9.37572 7.616 9.21572 7.968C9.05572 8.32 8.87572 8.724 8.67572 9.18C8.62772 9.284 8.57972 9.392 8.53172 9.504C8.49172 9.608 8.44372 9.716 8.38772 9.828V9.816C8.34772 9.904 8.30372 10 8.25572 10.104C8.21572 10.2 8.17172 10.296 8.12372 10.392V10.38C8.04372 10.564 7.95572 10.756 7.85972 10.956C7.77172 11.148 7.67972 11.352 7.58372 11.568C7.30372 12.2 6.99172 12.896 6.64772 13.656C6.31172 14.408 5.95172 15.2 5.56772 16.032C5.50372 16.16 5.44372 16.284 5.38772 16.404C5.33172 16.524 5.27172 16.652 5.20772 16.788C5.15972 16.892 5.10372 17.012 5.03972 17.148C4.97572 17.284 4.91572 17.408 4.85972 17.52V17.508C4.61172 18.028 4.36372 18.56 4.11572 19.104C5.74772 17.368 7.27972 15.82 8.71172 14.46C10.1437 13.1 11.3957 11.968 12.4677 11.064C13.0357 10.584 13.5677 10.148 14.0637 9.756C14.5677 9.356 15.0437 8.992 15.4917 8.664C15.9477 8.336 16.3837 8.036 16.7997 7.764C17.2157 7.492 17.6237 7.236 18.0237 6.996C18.4077 6.772 18.8197 6.556 19.2597 6.348C19.6997 6.14 20.1037 5.968 20.4717 5.832C20.6797 5.752 20.9077 5.684 21.1557 5.628C21.4037 5.564 21.6437 5.516 21.8757 5.484C21.9877 5.468 22.1037 5.456 22.2237 5.448C22.3437 5.44 22.4837 5.436 22.6437 5.436C22.7797 5.436 22.9237 5.444 23.0757 5.46C23.2277 5.468 23.3797 5.492 23.5317 5.532L23.5197 5.52C23.5917 5.536 23.6717 5.56 23.7597 5.592C23.8557 5.616 23.9517 5.652 24.0477 5.7C24.1437 5.748 24.2397 5.812 24.3357 5.892C24.4317 5.964 24.5197 6.056 24.5997 6.168C24.6877 6.304 24.7477 6.448 24.7797 6.6C24.8117 6.752 24.8277 6.896 24.8277 7.032C24.8277 7.112 24.8237 7.184 24.8157 7.248C24.8157 7.304 24.8117 7.36 24.8037 7.416C24.7397 7.744 24.6397 8.064 24.5037 8.376C24.3677 8.68 24.2157 8.988 24.0477 9.3C23.7037 9.916 23.3157 10.532 22.8837 11.148C22.4517 11.764 21.9677 12.404 21.4317 13.068C20.6957 13.972 20.0077 14.788 19.3677 15.516C18.7277 16.244 18.1317 16.912 17.5797 17.52C17.3797 17.728 17.1837 17.936 16.9917 18.144C16.7997 18.344 16.6117 18.536 16.4277 18.72C16.5237 18.704 16.6197 18.688 16.7157 18.672C16.8117 18.656 16.9077 18.64 17.0037 18.624C17.2997 18.584 17.5957 18.552 17.8917 18.528C18.1957 18.504 18.5077 18.5 18.8277 18.516C18.9957 18.532 19.1637 18.552 19.3317 18.576C19.4997 18.592 19.6677 18.632 19.8357 18.696C20.0037 18.76 20.1757 18.852 20.3517 18.972C20.5357 19.084 20.6957 19.232 20.8317 19.416C20.9597 19.608 21.0437 19.824 21.0837 20.064C21.1237 20.296 21.1317 20.512 21.1077 20.712C21.0837 20.872 21.0397 21.028 20.9757 21.18C20.9117 21.332 20.8357 21.48 20.7477 21.624C21.5797 21.24 22.2997 20.892 22.9077 20.58C23.5237 20.268 24.0557 19.996 24.5037 19.764C25.1517 19.412 25.6957 19.116 26.1357 18.876C26.5837 18.636 26.9557 18.432 27.2517 18.264C27.2837 18.248 27.3157 18.228 27.3477 18.204C27.3797 18.18 27.4157 18.16 27.4557 18.144L27.4437 18.156C27.5557 18.092 27.6677 18.028 27.7797 17.964C27.8917 17.9 28.0037 17.836 28.1157 17.772C28.3877 17.612 28.6437 17.492 28.8837 17.412C29.1317 17.332 29.3477 17.292 29.5317 17.292C29.7637 17.292 29.9397 17.36 30.0597 17.496L30.1077 17.568C30.1557 17.664 30.1597 17.776 30.1197 17.904C30.0877 18.032 30.0157 18.168 29.9037 18.312C29.7997 18.456 29.6597 18.604 29.4837 18.756C29.3077 18.9 29.1117 19.036 28.8957 19.164C28.8157 19.204 28.7477 19.24 28.6917 19.272C28.6357 19.304 28.5637 19.34 28.4757 19.38C28.4037 19.412 28.3197 19.452 28.2237 19.5C28.1277 19.548 27.9997 19.612 27.8397 19.692C27.6877 19.772 27.4997 19.868 27.2757 19.98C27.0517 20.092 26.7797 20.228 26.4597 20.388C25.9397 20.644 25.2677 20.972 24.4437 21.372C23.6197 21.764 22.5877 22.232 21.3477 22.776C20.7477 23.04 20.0597 23.336 19.2837 23.664C18.5077 23.992 17.7037 24.324 16.8717 24.66C16.8317 24.676 16.7837 24.692 16.7277 24.708C16.6717 24.732 16.6117 24.752 16.5477 24.768L16.3077 24.864C16.2917 24.864 16.2757 24.868 16.2597 24.876C16.2517 24.876 16.2477 24.876 16.2477 24.876C16.2477 24.884 16.2437 24.888 16.2357 24.888C16.2277 24.896 16.2197 24.9 16.2117 24.9L16.1997 24.888ZM16.1277 24.912L16.1757 24.888H16.1997C16.1837 24.904 16.1597 24.912 16.1277 24.912ZM0.479719 23.316C0.479719 23.324 0.479719 23.332 0.479719 23.34C0.471719 23.34 0.467719 23.344 0.467719 23.352C0.467719 23.336 0.471719 23.324 0.479719 23.316ZM54.5693 17.316C54.7453 17.236 54.9053 17.196 55.0493 17.196C55.2173 17.196 55.3653 17.232 55.4933 17.304C55.6293 17.376 55.7293 17.476 55.7933 17.604C55.8973 17.82 55.8933 18.04 55.7813 18.264C55.6693 18.488 55.4813 18.66 55.2173 18.78C55.2013 18.788 55.1893 18.792 55.1813 18.792C55.1813 18.792 55.1733 18.796 55.1573 18.804C55.1413 18.812 55.1213 18.82 55.0973 18.828C55.0733 18.836 55.0613 18.836 55.0613 18.828C55.0053 18.844 54.9253 18.876 54.8213 18.924C54.7173 18.972 54.5413 19.044 54.2933 19.14C54.0693 19.228 53.7773 19.348 53.4173 19.5C53.0573 19.644 52.6013 19.84 52.0493 20.088C51.7053 20.248 51.3093 20.424 50.8613 20.616C50.4213 20.808 49.9373 21.02 49.4093 21.252C49.2573 21.316 49.1053 21.384 48.9533 21.456C48.8013 21.52 48.6453 21.588 48.4853 21.66C48.2213 21.772 47.9453 21.896 47.6573 22.032C47.3773 22.16 47.0853 22.296 46.7813 22.44L46.2413 22.692H46.2533C46.1013 22.764 45.9453 22.836 45.7853 22.908C45.6253 22.98 45.4653 23.052 45.3053 23.124C45.0013 23.26 44.6853 23.4 44.3573 23.544C44.0293 23.68 43.6853 23.816 43.3253 23.952C42.9493 24.08 42.5613 24.204 42.1613 24.324C41.7613 24.444 41.3093 24.524 40.8053 24.564C40.6373 24.572 40.4653 24.568 40.2893 24.552C40.1213 24.544 39.9533 24.512 39.7853 24.456C39.6733 24.408 39.5653 24.352 39.4613 24.288C39.3653 24.232 39.2733 24.16 39.1853 24.072C39.0173 23.904 38.9013 23.72 38.8373 23.52V23.532C38.7733 23.356 38.7373 23.2 38.7293 23.064C38.7293 22.92 38.7333 22.784 38.7413 22.656C38.7573 22.536 38.7693 22.456 38.7773 22.416C38.7853 22.368 38.7933 22.324 38.8013 22.284C38.8013 22.276 38.8013 22.268 38.8013 22.26C38.8093 22.252 38.8133 22.244 38.8133 22.236L38.8733 22.032C38.9853 21.648 39.0973 21.328 39.2093 21.072C39.3293 20.816 39.4533 20.564 39.5813 20.316C39.6453 20.188 39.7013 20.076 39.7493 19.98C39.7973 19.884 39.8453 19.784 39.8933 19.68C39.9493 19.576 40.0133 19.46 40.0853 19.332C40.1573 19.196 40.2493 19.028 40.3613 18.828C40.1053 18.892 39.8493 18.952 39.5933 19.008C39.3453 19.056 39.0693 19.108 38.7653 19.164C37.8773 19.324 37.0533 19.432 36.2933 19.488C35.5413 19.536 34.8453 19.56 34.2053 19.56C33.5653 19.552 32.9973 19.528 32.5013 19.488C32.0133 19.44 31.5853 19.384 31.2173 19.32C30.5693 19.208 30.0653 19.104 29.7053 19.008C29.3533 18.904 29.1093 18.832 28.9733 18.792C28.9573 18.792 28.9453 18.792 28.9373 18.792C28.9373 18.784 28.9333 18.78 28.9253 18.78C28.9173 18.78 28.9133 18.776 28.9133 18.768C28.6333 18.664 28.4333 18.5 28.3133 18.276C28.1933 18.044 28.1773 17.824 28.2653 17.616C28.3613 17.424 28.5173 17.296 28.7333 17.232C28.9573 17.168 29.1853 17.176 29.4173 17.256H29.3933C30.1933 17.488 30.7373 17.636 31.0253 17.7C31.3133 17.756 31.3053 17.788 31.0013 17.796C31.2733 17.86 31.6293 17.932 32.0693 18.012C32.5093 18.084 33.0213 18.144 33.6053 18.192C33.8293 18.208 34.0693 18.224 34.3253 18.24C34.5813 18.248 34.8413 18.252 35.1053 18.252C35.5613 18.252 36.0893 18.232 36.6893 18.192C37.2973 18.144 37.9293 18.068 38.5853 17.964C39.0813 17.876 39.5373 17.792 39.9533 17.712C40.3773 17.632 40.7413 17.552 41.0453 17.472C41.0533 17.472 41.0773 17.468 41.1173 17.46C41.1573 17.452 41.1893 17.44 41.2133 17.424C41.2213 17.424 41.2333 17.424 41.2493 17.424C41.2733 17.416 41.2893 17.412 41.2973 17.412C41.2813 17.412 41.2813 17.408 41.2973 17.4L41.3213 17.376C41.3453 17.376 41.3893 17.372 41.4533 17.364C41.5173 17.356 41.5853 17.344 41.6573 17.328C41.7293 17.312 41.7973 17.3 41.8613 17.292C41.9253 17.276 41.9693 17.264 41.9933 17.256L42.1613 18.024C42.1613 18.032 42.1453 18.06 42.1133 18.108C42.0893 18.156 42.0573 18.208 42.0173 18.264C41.9853 18.32 41.9533 18.372 41.9213 18.42C41.8973 18.468 41.8853 18.496 41.8853 18.504L41.8493 18.576C41.8333 18.616 41.8133 18.656 41.7893 18.696C41.7653 18.728 41.7453 18.76 41.7293 18.792L41.7413 18.78C41.7253 18.82 41.7093 18.848 41.6933 18.864C41.6853 18.872 41.6693 18.904 41.6453 18.96C41.6053 19.024 41.5653 19.096 41.5253 19.176C41.4853 19.256 41.4493 19.32 41.4173 19.368L41.4293 19.356C41.1973 19.828 41.0013 20.248 40.8413 20.616C40.6813 20.976 40.5453 21.312 40.4333 21.624V21.612C40.3933 21.748 40.3533 21.884 40.3133 22.02C40.2733 22.156 40.2373 22.304 40.2053 22.464C40.1893 22.528 40.1773 22.596 40.1693 22.668C40.1613 22.74 40.1573 22.792 40.1573 22.824C40.1573 22.92 40.1733 22.996 40.2053 23.052C40.2213 23.084 40.2733 23.104 40.3613 23.112C40.4493 23.12 40.5573 23.116 40.6853 23.1C40.9093 23.092 41.1493 23.068 41.4053 23.028C41.6693 22.98 41.9333 22.92 42.1973 22.848C42.5173 22.76 42.8613 22.656 43.2293 22.536C43.5973 22.416 43.9293 22.3 44.2253 22.188C44.3133 22.156 44.3973 22.128 44.4773 22.104C44.5573 22.072 44.6413 22.036 44.7293 21.996C44.8173 21.956 44.9053 21.924 44.9933 21.9C45.0813 21.868 45.1613 21.836 45.2333 21.804C45.2653 21.788 45.2973 21.776 45.3293 21.768C45.3613 21.76 45.3933 21.748 45.4253 21.732C45.4733 21.716 45.5173 21.7 45.5573 21.684C45.5973 21.668 45.6373 21.652 45.6773 21.636C45.8773 21.548 46.0653 21.468 46.2413 21.396C46.4253 21.316 46.6093 21.232 46.7933 21.144H46.7813C46.8853 21.096 46.9893 21.052 47.0933 21.012C47.1973 20.964 47.3053 20.916 47.4173 20.868H47.4053C47.5093 20.82 47.6253 20.768 47.7533 20.712C47.8813 20.656 48.0013 20.604 48.1133 20.556C49.4733 19.932 50.5613 19.412 51.3773 18.996C52.2013 18.58 52.8053 18.268 53.1893 18.06C53.3573 17.972 53.4973 17.896 53.6093 17.832C53.7293 17.768 53.8333 17.712 53.9213 17.664C53.9373 17.656 53.9493 17.648 53.9573 17.64C53.9733 17.632 53.9893 17.624 54.0053 17.616L53.9933 17.628C54.0893 17.572 54.1813 17.52 54.2693 17.472C54.3573 17.424 54.4533 17.372 54.5573 17.316H54.5693ZM54.442 17.436C54.642 17.276 54.854 17.196 55.078 17.196C55.19 17.196 55.298 17.22 55.402 17.268C55.514 17.316 55.61 17.384 55.69 17.472C55.818 17.64 55.858 17.84 55.81 18.072C55.77 18.296 55.65 18.496 55.45 18.672C55.426 18.68 55.406 18.692 55.39 18.708C55.374 18.724 55.358 18.736 55.342 18.744C55.334 18.752 55.322 18.76 55.306 18.768C55.266 18.792 55.202 18.836 55.114 18.9C55.026 18.964 54.902 19.06 54.742 19.188L54.754 19.176C54.602 19.304 54.414 19.472 54.19 19.68C53.974 19.88 53.714 20.132 53.41 20.436L53.362 20.484H53.374C53.23 20.644 53.074 20.824 52.906 21.024C52.746 21.216 52.59 21.416 52.438 21.624V21.612C52.302 21.812 52.158 22.04 52.006 22.296C51.854 22.544 51.718 22.828 51.598 23.148C51.782 23.06 51.978 22.952 52.186 22.824C52.394 22.696 52.606 22.564 52.822 22.428C53.318 22.116 53.834 21.772 54.37 21.396C54.386 21.38 54.398 21.372 54.406 21.372C54.422 21.364 54.438 21.352 54.454 21.336C54.574 21.24 54.69 21.156 54.802 21.084L55.018 20.928C55.034 20.912 55.054 20.896 55.078 20.88C55.102 20.856 55.122 20.836 55.138 20.82L55.366 20.796L55.906 20.808L56.098 20.952C56.114 20.96 56.122 20.968 56.122 20.976C56.13 20.984 56.142 20.992 56.158 21C56.182 21.016 56.218 21.04 56.266 21.072C56.322 21.096 56.434 21.156 56.602 21.252C56.778 21.34 57.042 21.476 57.394 21.66C57.754 21.836 58.254 22.084 58.894 22.404C59.102 22.492 59.322 22.58 59.554 22.668C59.786 22.748 60.026 22.828 60.274 22.908C60.498 22.972 60.762 23.036 61.066 23.1C61.37 23.164 61.714 23.216 62.098 23.256C62.17 23.264 62.254 23.268 62.35 23.268C62.446 23.268 62.534 23.268 62.614 23.268C62.726 23.268 62.858 23.264 63.01 23.256C63.162 23.248 63.318 23.232 63.478 23.208C63.734 23.168 64.014 23.104 64.318 23.016C64.63 22.928 64.942 22.808 65.254 22.656C65.974 22.32 66.602 21.976 67.138 21.624C67.682 21.272 68.166 20.944 68.59 20.64C69.022 20.328 69.402 20.036 69.73 19.764C70.066 19.492 70.35 19.252 70.582 19.044C70.894 18.764 71.162 18.508 71.386 18.276C71.618 18.044 71.79 17.872 71.902 17.76L71.998 17.676C72.094 17.58 72.202 17.508 72.322 17.46C72.45 17.404 72.574 17.376 72.694 17.376C72.782 17.376 72.866 17.392 72.946 17.424C73.034 17.448 73.114 17.492 73.186 17.556C73.346 17.692 73.426 17.872 73.426 18.096C73.426 18.216 73.398 18.34 73.342 18.468C73.286 18.596 73.202 18.716 73.09 18.828C73.058 18.852 73.022 18.884 72.982 18.924C72.942 18.956 72.878 19.008 72.79 19.08C72.71 19.152 72.602 19.244 72.466 19.356C72.33 19.468 72.15 19.616 71.926 19.8C71.71 19.984 71.426 20.212 71.074 20.484C70.722 20.748 70.318 21.044 69.862 21.372C69.638 21.532 69.374 21.708 69.07 21.9C68.774 22.092 68.45 22.292 68.098 22.5C67.746 22.708 67.37 22.92 66.97 23.136C66.578 23.344 66.174 23.544 65.758 23.736C65.334 23.928 64.91 24.08 64.486 24.192C64.062 24.304 63.678 24.376 63.334 24.408C63.222 24.424 63.094 24.432 62.95 24.432C62.814 24.44 62.69 24.444 62.578 24.444C62.394 24.444 62.206 24.436 62.014 24.42C61.822 24.412 61.65 24.4 61.498 24.384C61.05 24.336 60.626 24.268 60.226 24.18C59.826 24.1 59.474 24.016 59.17 23.928C58.866 23.84 58.574 23.748 58.294 23.652C58.014 23.556 57.71 23.44 57.382 23.304C57.222 23.232 57.05 23.152 56.866 23.064C56.69 22.976 56.506 22.876 56.314 22.764L56.326 22.776C56.31 22.768 56.298 22.764 56.29 22.764C56.29 22.756 56.282 22.748 56.266 22.74C56.178 22.692 56.082 22.64 55.978 22.584C55.874 22.528 55.774 22.468 55.678 22.404C55.638 22.38 55.614 22.368 55.606 22.368C55.606 22.36 55.582 22.34 55.534 22.308C54.974 22.66 54.458 22.972 53.986 23.244C53.514 23.508 53.09 23.736 52.714 23.928C52.546 24.016 52.358 24.104 52.15 24.192C51.942 24.28 51.73 24.356 51.514 24.42C51.434 24.444 51.35 24.46 51.262 24.468C51.174 24.476 51.082 24.48 50.986 24.48C50.882 24.464 50.77 24.424 50.65 24.36C50.546 24.304 50.462 24.228 50.398 24.132C50.334 24.044 50.294 23.944 50.278 23.832L50.29 23.856C50.274 23.76 50.27 23.668 50.278 23.58C50.286 23.492 50.298 23.4 50.314 23.304L50.302 23.316C50.31 23.276 50.326 23.22 50.35 23.148C50.366 23.068 50.386 22.992 50.41 22.92V22.932C50.53 22.532 50.674 22.184 50.842 21.888C51.002 21.584 51.158 21.312 51.31 21.072C51.47 20.832 51.622 20.616 51.766 20.424C51.91 20.224 52.05 20.044 52.186 19.884C52.418 19.596 52.63 19.34 52.822 19.116C53.014 18.892 53.178 18.708 53.314 18.564L53.41 18.48C53.466 18.424 53.51 18.376 53.542 18.336C53.574 18.296 53.61 18.256 53.65 18.216C53.834 18.024 53.978 17.876 54.082 17.772C54.186 17.668 54.306 17.556 54.442 17.436ZM51.238 23.28C51.23 23.28 51.226 23.284 51.226 23.292C51.226 23.292 51.222 23.292 51.214 23.292C51.23 23.292 51.238 23.288 51.238 23.28ZM51.478 23.472C51.486 23.472 51.49 23.464 51.49 23.448C51.49 23.464 51.486 23.472 51.478 23.472ZM92.4185 17.616C92.4585 17.712 92.4625 17.82 92.4305 17.94C92.3985 18.06 92.3345 18.184 92.2385 18.312C92.1425 18.432 92.0185 18.552 91.8665 18.672C91.7225 18.792 91.5545 18.896 91.3625 18.984C91.3225 19 91.2825 19.016 91.2425 19.032C91.2105 19.048 91.1825 19.064 91.1585 19.08C91.1265 19.096 91.0985 19.108 91.0745 19.116C91.0505 19.124 91.0225 19.136 90.9905 19.152C90.9345 19.176 90.8665 19.204 90.7865 19.236C90.7145 19.26 90.6145 19.3 90.4865 19.356C90.3665 19.404 90.2145 19.468 90.0305 19.548C89.8545 19.62 89.6345 19.712 89.3705 19.824C89.2345 19.888 89.0825 19.956 88.9145 20.028C88.7465 20.092 88.5665 20.168 88.3745 20.256C88.2385 20.32 88.0905 20.388 87.9305 20.46C87.7785 20.524 87.6225 20.588 87.4625 20.652C87.1585 20.788 86.8225 20.936 86.4545 21.096C86.0865 21.248 85.6945 21.416 85.2785 21.6C85.1665 21.648 85.0505 21.696 84.9305 21.744C84.8185 21.792 84.7025 21.844 84.5825 21.9L84.1505 22.08C83.7905 22.232 83.4065 22.396 82.9985 22.572C82.5905 22.74 82.1625 22.916 81.7145 23.1C81.3625 23.236 80.9945 23.376 80.6105 23.52C80.2265 23.664 79.8305 23.804 79.4225 23.94L79.3145 23.976C79.2985 23.984 79.2825 23.988 79.2665 23.988C79.2505 23.988 79.2345 23.992 79.2185 24H79.2305C79.1985 24.016 79.1625 24.024 79.1225 24.024C79.0905 24.032 79.0585 24.044 79.0265 24.06C78.8425 24.124 78.6625 24.18 78.4865 24.228C78.3185 24.276 78.1785 24.312 78.0665 24.336L78.0785 24.324C77.9985 24.34 77.9225 24.352 77.8505 24.36C77.7865 24.368 77.7225 24.376 77.6585 24.384H77.5145L77.4545 24.372C77.4065 24.372 77.3625 24.368 77.3225 24.36C77.2825 24.36 77.2305 24.344 77.1665 24.312C77.0545 24.256 76.9625 24.18 76.8905 24.084C76.8265 23.996 76.7825 23.912 76.7585 23.832V23.844C76.7105 23.708 76.6825 23.564 76.6745 23.412C76.6665 23.26 76.6665 23.124 76.6745 23.004V22.956C76.6745 22.94 76.6745 22.924 76.6745 22.908C76.6825 22.892 76.6865 22.876 76.6865 22.86C76.7425 22.372 76.8385 21.82 76.9745 21.204C77.1185 20.588 77.2625 19.984 77.4065 19.392C77.4465 19.264 77.4785 19.152 77.5025 19.056C77.5265 18.952 77.5465 18.868 77.5625 18.804C77.0105 19.476 76.4785 20.088 75.9665 20.64C75.4625 21.192 74.9665 21.696 74.4785 22.152C73.9985 22.592 73.5145 23 73.0265 23.376C72.5465 23.744 72.0305 24.052 71.4785 24.3C71.3425 24.364 71.1905 24.42 71.0225 24.468C70.8545 24.516 70.7025 24.548 70.5665 24.564C70.3985 24.58 70.2145 24.572 70.0145 24.54C69.8065 24.516 69.6185 24.456 69.4505 24.36L69.4625 24.372C69.3745 24.324 69.2825 24.264 69.1865 24.192C69.0905 24.12 69.0065 24.036 68.9345 23.94C68.7985 23.74 68.7185 23.536 68.6945 23.328C68.6705 23.16 68.6705 23 68.6945 22.848C68.7105 22.688 68.7385 22.544 68.7785 22.416C68.8585 22.152 68.9385 21.932 69.0185 21.756C69.0905 21.58 69.1665 21.412 69.2465 21.252C69.3345 21.1 69.4225 20.948 69.5105 20.796C69.5985 20.644 69.6825 20.508 69.7625 20.388C69.9225 20.148 70.0785 19.928 70.2305 19.728C70.3745 19.528 70.5025 19.352 70.6145 19.2C70.8305 18.92 71.0145 18.688 71.1665 18.504C71.3185 18.32 71.4305 18.188 71.5025 18.108C71.6385 17.956 71.7825 17.824 71.9345 17.712C72.0945 17.6 72.2465 17.516 72.3905 17.46C72.5425 17.404 72.6825 17.38 72.8105 17.388C72.9385 17.388 73.0425 17.424 73.1225 17.496C73.2025 17.576 73.2465 17.68 73.2545 17.808C73.2705 17.928 73.2585 18.064 73.2185 18.216C73.1785 18.36 73.1145 18.512 73.0265 18.672C72.9385 18.832 72.8345 18.984 72.7145 19.128C72.6825 19.168 72.6465 19.212 72.6065 19.26C72.5665 19.308 72.5225 19.36 72.4745 19.416C72.4585 19.432 72.4385 19.452 72.4145 19.476C72.3985 19.492 72.3785 19.516 72.3545 19.548C72.3385 19.564 72.3145 19.592 72.2825 19.632C72.2585 19.664 72.2345 19.692 72.2105 19.716C72.1705 19.756 72.1385 19.792 72.1145 19.824C72.0265 19.92 71.9345 20.028 71.8385 20.148C71.7505 20.26 71.6385 20.4 71.5025 20.568L71.4785 20.592C71.4625 20.608 71.4505 20.624 71.4425 20.64C71.4425 20.648 71.4345 20.66 71.4185 20.676C71.2985 20.844 71.1625 21.032 71.0105 21.24C70.8585 21.448 70.7265 21.648 70.6145 21.84V21.852C70.5425 21.972 70.4665 22.108 70.3865 22.26C70.3145 22.404 70.2505 22.556 70.1945 22.716C70.1785 22.78 70.1625 22.844 70.1465 22.908C70.1305 22.964 70.1225 23.02 70.1225 23.076V23.124C70.1785 23.148 70.2545 23.16 70.3505 23.16C70.5825 23.16 70.8185 23.1 71.0585 22.98H71.0705C71.2785 22.876 71.5105 22.744 71.7665 22.584C72.0225 22.416 72.2785 22.236 72.5345 22.044C72.7825 21.852 73.0425 21.632 73.3145 21.384C73.5865 21.136 73.8625 20.876 74.1425 20.604C74.4305 20.324 74.7145 20.036 74.9945 19.74C75.2825 19.444 75.5665 19.144 75.8465 18.84C76.2545 18.376 76.6785 17.876 77.1185 17.34C77.5585 16.796 77.9985 16.232 78.4385 15.648C78.4385 15.632 78.4505 15.608 78.4745 15.576C78.9065 14.208 79.3785 12.764 79.8905 11.244C80.4105 9.716 81.0025 8.14 81.6665 6.516C82.0745 5.516 82.4585 4.632 82.8185 3.864C83.1865 3.088 83.5505 2.376 83.9105 1.728V1.716C83.9265 1.7 83.9345 1.684 83.9345 1.668C83.9425 1.644 83.9545 1.624 83.9705 1.608C83.9705 1.608 83.9745 1.608 83.9825 1.608C84.0625 1.472 84.1425 1.34 84.2225 1.212C84.3025 1.076 84.3865 0.955998 84.4745 0.851998V0.863999C84.5385 0.775999 84.6025 0.691998 84.6665 0.611999C84.7305 0.531999 84.7825 0.471999 84.8225 0.431999C84.8865 0.375999 84.9585 0.323999 85.0385 0.275999C85.1185 0.219999 85.2065 0.171999 85.3025 0.131999L85.2905 0.144C85.3545 0.119999 85.4305 0.103999 85.5185 0.0959988C85.6145 0.079999 85.7145 0.0839992 85.8185 0.107999V0.0959988C85.9465 0.119999 86.0465 0.163999 86.1185 0.227999C86.1985 0.283999 86.2705 0.351999 86.3345 0.431999C86.4705 0.615999 86.5705 0.819999 86.6345 1.044C86.7065 1.26 86.7505 1.46 86.7665 1.644C86.7825 1.812 86.7865 1.992 86.7785 2.184C86.7705 2.376 86.7545 2.552 86.7305 2.712C86.6825 3.04 86.6065 3.388 86.5025 3.756C86.3985 4.124 86.2785 4.488 86.1425 4.848C86.0065 5.208 85.8465 5.604 85.6625 6.036C85.4785 6.468 85.2745 6.912 85.0505 7.368C84.8185 7.832 84.5585 8.332 84.2705 8.868C83.9905 9.396 83.6705 9.964 83.3105 10.572C82.9505 11.18 82.5465 11.832 82.0985 12.528C81.6585 13.216 81.1625 13.952 80.6105 14.736L80.4305 14.988V14.976C80.2945 15.176 80.1585 15.372 80.0225 15.564C79.8945 15.756 79.7625 15.944 79.6265 16.128C79.6025 16.216 79.5745 16.304 79.5425 16.392C79.5105 16.48 79.4825 16.568 79.4585 16.656C79.4185 16.768 79.3825 16.876 79.3505 16.98C79.3185 17.084 79.2865 17.188 79.2545 17.292V17.28L79.1825 17.532C79.1585 17.636 79.1265 17.732 79.0865 17.82C78.9425 18.292 78.8105 18.74 78.6905 19.164C78.5705 19.588 78.4545 20.024 78.3425 20.472C78.2865 20.688 78.2345 20.904 78.1865 21.12C78.1465 21.336 78.1025 21.56 78.0545 21.792C78.0545 21.808 78.0505 21.824 78.0425 21.84C78.0425 21.856 78.0425 21.868 78.0425 21.876C78.0025 22.084 77.9625 22.296 77.9225 22.512C77.8905 22.72 77.8705 22.936 77.8625 23.16C78.0145 23.12 78.1785 23.072 78.3545 23.016C78.5305 22.96 78.7105 22.9 78.8945 22.836C79.2465 22.716 79.5785 22.6 79.8905 22.488C80.2105 22.368 80.5225 22.244 80.8265 22.116C81.4265 21.876 81.9825 21.644 82.4945 21.42C83.0065 21.196 83.4825 20.984 83.9225 20.784C84.8105 20.384 85.5545 20.04 86.1545 19.752C86.7545 19.464 87.2705 19.216 87.7025 19.008C88.1105 18.808 88.4505 18.64 88.7225 18.504C89.0025 18.368 89.2465 18.248 89.4545 18.144C89.6785 18.032 89.8785 17.932 90.0545 17.844C90.2385 17.756 90.4465 17.656 90.6785 17.544C90.8625 17.456 91.0465 17.392 91.2305 17.352C91.4145 17.312 91.5825 17.292 91.7345 17.292C92.0785 17.292 92.3065 17.396 92.4185 17.604V17.616ZM81.7385 10.284C81.6505 10.5 81.5825 10.664 81.5345 10.776C81.4945 10.888 81.4625 10.976 81.4385 11.04C81.4145 11.096 81.3985 11.136 81.3905 11.16C81.3825 11.184 81.3705 11.216 81.3545 11.256C81.3385 11.296 81.3145 11.356 81.2825 11.436C81.2505 11.516 81.2065 11.64 81.1505 11.808C81.9025 10.64 82.5545 9.54 83.1065 8.508C83.6665 7.476 84.1265 6.568 84.4865 5.784C84.6705 5.328 84.8425 4.856 85.0025 4.368C85.1705 3.88 85.2985 3.432 85.3865 3.024C85.4745 2.616 85.5105 2.252 85.4945 1.932C85.4865 1.82 85.4785 1.744 85.4705 1.704C85.4625 1.656 85.4505 1.712 85.4345 1.872L85.0145 2.628C84.8545 2.932 84.6985 3.24 84.5465 3.552C84.4025 3.864 84.2505 4.2 84.0905 4.56C83.7865 5.24 83.4305 6.08 83.0225 7.08C82.6225 8.072 82.1945 9.14 81.7385 10.284ZM109.522 17.256C109.802 17.256 109.998 17.348 110.11 17.532L110.122 17.52C110.178 17.616 110.202 17.724 110.194 17.844C110.186 17.964 110.146 18.088 110.074 18.216C110.002 18.336 109.902 18.46 109.774 18.588C109.654 18.708 109.51 18.816 109.342 18.912C109.286 18.944 109.222 18.98 109.15 19.02C109.086 19.052 109.006 19.092 108.91 19.14C108.87 19.156 108.826 19.176 108.778 19.2C108.738 19.224 108.69 19.252 108.634 19.284C108.442 19.372 108.182 19.488 107.854 19.632C107.534 19.776 107.114 19.96 106.594 20.184C106.074 20.408 105.43 20.672 104.662 20.976C103.902 21.28 102.978 21.62 101.89 21.996C101.362 22.18 100.774 22.376 100.126 22.584C99.4782 22.784 98.7982 22.988 98.0862 23.196C97.7262 23.3 97.3502 23.404 96.9582 23.508C96.5742 23.612 96.1742 23.716 95.7582 23.82C95.3262 23.924 94.8702 24.028 94.3902 24.132C93.9182 24.236 93.4662 24.324 93.0342 24.396C92.9462 24.412 92.8582 24.42 92.7702 24.42C92.6902 24.428 92.6062 24.44 92.5182 24.456C92.4942 24.464 92.4662 24.468 92.4342 24.468C92.4102 24.476 92.3742 24.48 92.3262 24.48C92.3102 24.48 92.2902 24.48 92.2662 24.48C92.2502 24.488 92.2342 24.492 92.2182 24.492H91.9782C91.9622 24.492 91.9462 24.488 91.9302 24.48C91.9222 24.48 91.9062 24.48 91.8822 24.48C91.8182 24.48 91.7582 24.476 91.7022 24.468C91.6542 24.468 91.5862 24.452 91.4982 24.42C91.2902 24.276 91.1382 24.14 91.0422 24.012C90.9462 23.892 90.8702 23.772 90.8142 23.652C90.7662 23.532 90.7262 23.416 90.6942 23.304C90.6622 23.184 90.6382 23.072 90.6222 22.968C90.6062 22.84 90.5942 22.712 90.5862 22.584C90.5782 22.456 90.5742 22.316 90.5742 22.164C90.5742 21.876 90.5862 21.612 90.6102 21.372C90.6342 21.124 90.6622 20.888 90.6942 20.664C90.7262 20.432 90.7542 20.248 90.7782 20.112C90.8022 19.968 90.8222 19.844 90.8382 19.74C90.8622 19.628 90.8862 19.516 90.9102 19.404C90.9422 19.284 90.9782 19.132 91.0182 18.948C90.8662 18.948 90.7462 18.92 90.6582 18.864C90.5702 18.808 90.5022 18.732 90.4542 18.636C90.3662 18.428 90.3902 18.2 90.5262 17.952C90.6702 17.704 90.8702 17.476 91.1262 17.268L91.1142 17.292C91.1462 17.26 91.1862 17.228 91.2342 17.196C91.2342 17.196 91.2422 17.192 91.2582 17.184C91.2662 17.184 91.2702 17.18 91.2702 17.172C91.2942 17.156 91.3182 17.144 91.3422 17.136C91.3742 17.12 91.4142 17.092 91.4622 17.052C91.4702 17.052 91.4782 17.048 91.4862 17.04C91.7262 16.168 91.9462 15.404 92.1462 14.748C92.3462 14.084 92.5382 13.476 92.7222 12.924C92.9062 12.364 93.0902 11.816 93.2742 11.28C93.4662 10.744 93.6822 10.172 93.9222 9.564C94.1622 8.964 94.4502 8.276 94.7862 7.5C95.1302 6.724 95.5622 5.816 96.0822 4.776C96.4422 4.08 96.7822 3.452 97.1022 2.892C97.4302 2.324 97.7742 1.808 98.1342 1.344L98.2182 1.26L98.1942 1.272C98.2582 1.184 98.3462 1.088 98.4582 0.983999C98.5782 0.871999 98.6902 0.775999 98.7942 0.695998C98.7942 0.695998 98.8022 0.691998 98.8182 0.683999C98.8262 0.683999 98.8302 0.679999 98.8302 0.671999C98.8942 0.631999 98.9582 0.599998 99.0222 0.575998C99.0862 0.543999 99.1502 0.523999 99.2142 0.515998C99.3022 0.499999 99.3902 0.503999 99.4782 0.527999C99.5742 0.543999 99.6622 0.571999 99.7422 0.611999C99.9022 0.699999 100.014 0.799999 100.078 0.911998C100.142 1.024 100.19 1.128 100.222 1.224C100.27 1.384 100.298 1.536 100.306 1.68C100.322 1.816 100.326 1.952 100.318 2.088C100.318 2.224 100.314 2.348 100.306 2.46C100.298 2.564 100.286 2.664 100.27 2.76C100.222 3.128 100.15 3.516 100.054 3.924C99.9662 4.324 99.8662 4.716 99.7542 5.1C99.6502 5.46 99.5382 5.84 99.4182 6.24C99.2982 6.632 99.1622 7.032 99.0102 7.44C98.5302 8.736 98.0382 9.884 97.5342 10.884C97.0382 11.884 96.5822 12.744 96.1662 13.464C95.7342 14.2 95.3502 14.812 95.0142 15.3C94.6782 15.788 94.3942 16.172 94.1622 16.452C93.9542 16.708 93.7502 16.944 93.5502 17.16C93.3582 17.368 93.1702 17.564 92.9862 17.748C92.8662 17.868 92.7582 17.976 92.6622 18.072C92.5662 18.16 92.4662 18.248 92.3622 18.336C92.3462 18.384 92.3342 18.42 92.3262 18.444C92.3182 18.46 92.3142 18.472 92.3142 18.48C92.3142 18.488 92.3102 18.5 92.3022 18.516V18.504C92.2142 18.864 92.1222 19.296 92.0262 19.8C91.9302 20.296 91.8502 20.82 91.7862 21.372C91.7702 21.484 91.7582 21.612 91.7502 21.756C91.7502 21.892 91.7502 22.016 91.7502 22.128C91.7502 22.296 91.7582 22.464 91.7742 22.632C91.7902 22.8 91.8182 22.968 91.8582 23.136C91.8582 23.168 91.8862 23.224 91.9422 23.304C92.0782 23.312 92.2222 23.308 92.3742 23.292C92.5262 23.268 92.6822 23.24 92.8422 23.208H92.8302C93.5982 23.072 94.3382 22.912 95.0502 22.728C95.7702 22.544 96.4102 22.372 96.9702 22.212C97.5942 22.028 98.1862 21.844 98.7462 21.66C99.3062 21.476 99.8382 21.292 100.342 21.108C101.382 20.748 102.286 20.416 103.054 20.112C103.822 19.808 104.494 19.528 105.07 19.272C106.03 18.856 106.77 18.508 107.29 18.228C107.81 17.948 108.17 17.752 108.37 17.64C108.378 17.64 108.386 17.636 108.394 17.628C108.402 17.62 108.414 17.612 108.43 17.604C108.446 17.596 108.458 17.584 108.466 17.568C108.474 17.568 108.47 17.576 108.454 17.592C108.654 17.48 108.846 17.396 109.03 17.34C109.214 17.284 109.378 17.256 109.522 17.256ZM93.4542 14.796C93.4142 14.916 93.3902 14.984 93.3822 15C93.3742 15.008 93.3662 15.012 93.3582 15.012C93.3582 15.012 93.3542 15.028 93.3462 15.06C93.3382 15.084 93.3102 15.168 93.2622 15.312C93.4622 15.08 93.6782 14.808 93.9102 14.496C94.1422 14.184 94.3942 13.824 94.6662 13.416C94.8902 13.072 95.1382 12.668 95.4102 12.204C95.6822 11.732 95.9622 11.216 96.2502 10.656C96.5382 10.088 96.8262 9.484 97.1142 8.844C97.4102 8.196 97.6942 7.528 97.9662 6.84C98.1262 6.408 98.2742 5.96 98.4102 5.496C98.5542 5.032 98.6822 4.584 98.7942 4.152V4.164C98.8422 3.956 98.8862 3.728 98.9262 3.48C98.9742 3.232 99.0142 2.964 99.0462 2.676C99.0702 2.532 99.0822 2.388 99.0822 2.244C99.0422 2.308 98.9982 2.376 98.9502 2.448C98.9102 2.512 98.8702 2.576 98.8302 2.64C98.6782 2.888 98.5222 3.152 98.3622 3.432C98.2102 3.704 98.0662 3.976 97.9302 4.248C97.6342 4.824 97.3382 5.428 97.0422 6.06C96.7462 6.684 96.4502 7.332 96.1542 8.004C95.8342 8.74 95.5462 9.42 95.2902 10.044C95.0422 10.66 94.8262 11.204 94.6422 11.676C94.6262 11.716 94.6062 11.764 94.5822 11.82C94.5582 11.876 94.5382 11.924 94.5222 11.964C94.5062 12.004 94.4942 12.04 94.4862 12.072C94.4782 12.104 94.4662 12.136 94.4502 12.168C94.4102 12.272 94.3662 12.38 94.3182 12.492C94.2782 12.604 94.2382 12.708 94.1982 12.804L94.2102 12.792C94.0742 13.128 93.9422 13.46 93.8142 13.788C93.6942 14.116 93.5742 14.452 93.4542 14.796ZM107.75 17.652C107.934 17.572 108.086 17.508 108.206 17.46C108.326 17.412 108.43 17.372 108.518 17.34C108.614 17.308 108.702 17.28 108.782 17.256C108.862 17.232 108.95 17.208 109.046 17.184L109.07 17.172C109.318 17.116 109.542 17.152 109.742 17.28C109.942 17.408 110.062 17.584 110.102 17.808C110.118 18.016 110.062 18.204 109.934 18.372C109.806 18.54 109.642 18.656 109.442 18.72H109.454C109.398 18.736 109.354 18.748 109.322 18.756C109.29 18.756 109.254 18.756 109.214 18.756C109.174 18.756 109.114 18.76 109.034 18.768C108.954 18.776 108.83 18.8 108.662 18.84C108.598 18.856 108.55 18.864 108.518 18.864C108.382 18.904 108.218 18.96 108.026 19.032C107.834 19.104 107.622 19.22 107.39 19.38V19.392C107.278 19.472 107.162 19.572 107.042 19.692C106.93 19.812 106.842 19.956 106.778 20.124C106.762 20.188 106.75 20.248 106.742 20.304C106.726 20.36 106.718 20.42 106.718 20.484C106.718 20.636 106.742 20.796 106.79 20.964C106.83 21.132 106.898 21.308 106.994 21.492C107.098 21.732 107.31 21.952 107.63 22.152C107.798 22.264 107.978 22.368 108.17 22.464C108.362 22.552 108.562 22.628 108.77 22.692C109.658 22.98 110.714 23.136 111.938 23.16C112.29 23.168 112.598 23.164 112.862 23.148C113.134 23.124 113.382 23.104 113.606 23.088H113.738C113.97 23.072 114.182 23.056 114.374 23.04C114.566 23.016 114.778 22.984 115.01 22.944C115.258 22.904 115.51 22.86 115.766 22.812C116.03 22.756 116.314 22.684 116.618 22.596H116.606C116.958 22.492 117.362 22.36 117.818 22.2C118.274 22.032 118.802 21.808 119.402 21.528H119.39C119.99 21.232 120.53 20.948 121.01 20.676C121.498 20.396 121.934 20.128 122.318 19.872C122.726 19.608 123.074 19.372 123.362 19.164C123.658 18.956 123.906 18.772 124.106 18.612C124.466 18.332 124.746 18.112 124.946 17.952C125.146 17.792 125.29 17.672 125.378 17.592C125.402 17.576 125.422 17.56 125.438 17.544C125.614 17.416 125.802 17.352 126.002 17.352C126.122 17.352 126.234 17.376 126.338 17.424C126.45 17.472 126.542 17.54 126.614 17.628C126.726 17.78 126.782 17.94 126.782 18.108C126.782 18.236 126.75 18.364 126.686 18.492C126.63 18.612 126.546 18.716 126.434 18.804C126.426 18.812 126.418 18.816 126.41 18.816C126.402 18.816 126.398 18.82 126.398 18.828C126.358 18.86 126.298 18.904 126.218 18.96C126.146 19.008 126.042 19.076 125.906 19.164C125.874 19.18 125.842 19.2 125.81 19.224C125.778 19.248 125.742 19.276 125.702 19.308C125.646 19.348 125.586 19.388 125.522 19.428C125.458 19.468 125.39 19.512 125.318 19.56C125.27 19.592 125.222 19.624 125.174 19.656C125.126 19.68 125.074 19.712 125.018 19.752C124.986 19.768 124.954 19.788 124.922 19.812C124.898 19.836 124.87 19.856 124.838 19.872H124.85C124.666 19.984 124.458 20.112 124.226 20.256C123.994 20.4 123.738 20.56 123.458 20.736C123.026 20.992 122.522 21.28 121.946 21.6C121.37 21.92 120.686 22.256 119.894 22.608C119.142 22.936 118.494 23.192 117.95 23.376C117.414 23.56 116.942 23.716 116.534 23.844C116.126 23.964 115.762 24.064 115.442 24.144C115.122 24.224 114.834 24.296 114.578 24.36C114.346 24.408 114.098 24.448 113.834 24.48C113.578 24.52 113.298 24.556 112.994 24.588C112.882 24.604 112.754 24.612 112.61 24.612C112.474 24.62 112.338 24.624 112.202 24.624C111.97 24.624 111.714 24.612 111.434 24.588C111.162 24.572 110.878 24.54 110.582 24.492C109.958 24.396 109.394 24.256 108.89 24.072C108.386 23.896 107.97 23.724 107.642 23.556C107.498 23.476 107.334 23.38 107.15 23.268C106.974 23.156 106.822 23.044 106.694 22.932C106.534 22.804 106.386 22.66 106.25 22.5C106.114 22.34 105.994 22.148 105.89 21.924V21.936C105.762 21.68 105.666 21.424 105.602 21.168C105.53 20.912 105.494 20.66 105.494 20.412C105.494 20.228 105.506 20.076 105.53 19.956C105.594 19.644 105.702 19.376 105.854 19.152C106.006 18.928 106.162 18.74 106.322 18.588C106.602 18.332 106.87 18.132 107.126 17.988C107.382 17.844 107.594 17.728 107.762 17.64L107.75 17.652ZM143.903 17.664C144.103 17.552 144.299 17.468 144.491 17.412C144.683 17.356 144.855 17.328 145.007 17.328C145.303 17.328 145.503 17.424 145.607 17.616C145.655 17.712 145.667 17.824 145.643 17.952C145.627 18.072 145.579 18.196 145.499 18.324C145.419 18.444 145.311 18.568 145.175 18.696C145.039 18.816 144.887 18.928 144.719 19.032C144.687 19.048 144.655 19.068 144.623 19.092C144.591 19.116 144.559 19.136 144.527 19.152C144.511 19.16 144.491 19.168 144.467 19.176C144.451 19.184 144.435 19.192 144.419 19.2C144.355 19.224 144.283 19.256 144.203 19.296C144.131 19.336 144.035 19.388 143.915 19.452C143.803 19.516 143.663 19.596 143.495 19.692C143.335 19.788 143.139 19.908 142.907 20.052H142.919C142.535 20.292 142.055 20.608 141.479 21C140.903 21.384 140.219 21.888 139.427 22.512H139.439C139.055 22.824 138.627 23.188 138.155 23.604C137.683 24.012 137.183 24.468 136.655 24.972C136.135 25.484 135.591 26.04 135.023 26.64C134.463 27.24 133.899 27.88 133.331 28.56C132.691 29.36 132.043 30.256 131.387 31.248C130.731 32.24 130.087 33.332 129.455 34.524C128.823 35.716 128.215 37.008 127.631 38.4C127.047 39.792 126.507 41.288 126.011 42.888V42.876C125.995 42.948 125.975 43.004 125.951 43.044C125.935 43.092 125.915 43.136 125.891 43.176C125.883 43.192 125.867 43.216 125.843 43.248C125.819 43.288 125.799 43.324 125.783 43.356L125.615 43.524L125.591 43.5C125.559 43.524 125.527 43.544 125.495 43.56C125.471 43.584 125.451 43.604 125.435 43.62C125.347 43.652 125.251 43.672 125.147 43.68C125.051 43.688 124.963 43.68 124.883 43.656C124.795 43.624 124.715 43.584 124.643 43.536C124.571 43.488 124.519 43.44 124.487 43.392L124.475 43.368C124.395 43.288 124.347 43.196 124.331 43.092C124.307 43.02 124.295 42.976 124.295 42.96C124.287 42.936 124.283 42.904 124.283 42.864C124.283 42.824 124.283 42.792 124.283 42.768V42.432C124.283 42.416 124.283 42.4 124.283 42.384C124.291 42.368 124.295 42.352 124.295 42.336C124.311 42.2 124.327 42.064 124.343 41.928C124.359 41.8 124.375 41.676 124.391 41.556C124.431 41.348 124.475 41.14 124.523 40.932C124.579 40.732 124.627 40.54 124.667 40.356L124.655 40.368C124.663 40.336 124.667 40.308 124.667 40.284C124.675 40.26 124.683 40.232 124.691 40.2C124.795 39.792 124.895 39.408 124.991 39.048C125.095 38.696 125.195 38.364 125.291 38.052C125.483 37.436 125.663 36.86 125.831 36.324C126.007 35.788 126.195 35.232 126.395 34.656L126.575 34.152C126.607 34.064 126.635 33.976 126.659 33.888C126.691 33.808 126.723 33.724 126.755 33.636C126.819 33.46 126.883 33.276 126.947 33.084C127.011 32.9 127.079 32.704 127.151 32.496C127.335 31.968 127.547 31.368 127.787 30.696C128.027 30.032 128.291 29.288 128.579 28.464C128.875 27.648 129.199 26.748 129.551 25.764C129.911 24.78 130.303 23.708 130.727 22.548C130.879 22.132 131.031 21.712 131.183 21.288C131.343 20.864 131.495 20.46 131.639 20.076C131.367 20.276 131.099 20.468 130.835 20.652C130.571 20.836 130.315 21.012 130.067 21.18C129.539 21.532 129.035 21.86 128.555 22.164C128.075 22.46 127.611 22.732 127.163 22.98C126.939 23.1 126.711 23.212 126.479 23.316C126.247 23.42 126.023 23.516 125.807 23.604C125.687 23.652 125.563 23.692 125.435 23.724C125.307 23.756 125.175 23.784 125.039 23.808H124.955C124.891 23.816 124.823 23.824 124.751 23.832C124.687 23.832 124.611 23.824 124.523 23.808C124.411 23.8 124.295 23.768 124.175 23.712C124.063 23.656 123.955 23.576 123.851 23.472L123.839 23.46C123.783 23.42 123.727 23.352 123.671 23.256L123.623 23.172C123.623 23.172 123.615 23.156 123.599 23.124C123.575 23.1 123.559 23.072 123.551 23.04C123.535 22.992 123.527 22.956 123.527 22.932C123.511 22.876 123.495 22.828 123.479 22.788C123.463 22.748 123.451 22.716 123.443 22.692C123.427 22.66 123.419 22.636 123.419 22.62C123.403 22.5 123.395 22.368 123.395 22.224C123.395 22.08 123.403 21.952 123.419 21.84C123.435 21.656 123.467 21.48 123.515 21.312C123.563 21.136 123.607 20.972 123.647 20.82C123.711 20.604 123.787 20.396 123.875 20.196C123.971 19.988 124.055 19.804 124.127 19.644C124.135 19.628 124.139 19.612 124.139 19.596C124.147 19.58 124.155 19.564 124.163 19.548L124.151 19.62C124.151 19.612 124.151 19.608 124.151 19.608C124.159 19.6 124.163 19.592 124.163 19.584C124.163 19.56 124.163 19.536 124.163 19.512C124.163 19.488 124.179 19.456 124.211 19.416C124.379 19.08 124.515 18.82 124.619 18.636C124.731 18.444 124.807 18.312 124.847 18.24C124.959 18.056 125.083 17.896 125.219 17.76C125.355 17.624 125.491 17.52 125.627 17.448C125.763 17.368 125.895 17.324 126.023 17.316C126.151 17.3 126.259 17.32 126.347 17.376C126.435 17.44 126.495 17.52 126.527 17.616C126.567 17.704 126.587 17.804 126.587 17.916C126.587 18.068 126.551 18.244 126.479 18.444C126.415 18.644 126.327 18.848 126.215 19.056L126.203 19.068V19.056C126.195 19.072 126.187 19.084 126.179 19.092C126.179 19.092 126.175 19.1 126.167 19.116C126.143 19.156 126.119 19.2 126.095 19.248C126.071 19.288 126.051 19.324 126.035 19.356C125.971 19.444 125.883 19.592 125.771 19.8C125.707 19.904 125.639 20.024 125.567 20.16C125.495 20.288 125.427 20.432 125.363 20.592C125.291 20.752 125.211 20.944 125.123 21.168C125.043 21.384 124.971 21.636 124.907 21.924C124.891 21.98 124.879 22.04 124.871 22.104C124.871 22.16 124.871 22.204 124.871 22.236V22.38C124.935 22.372 125.003 22.364 125.075 22.356C125.147 22.34 125.227 22.312 125.315 22.272C125.747 22.12 126.203 21.916 126.683 21.66C127.171 21.396 127.679 21.104 128.207 20.784C128.447 20.64 128.719 20.472 129.023 20.28C129.327 20.08 129.643 19.868 129.971 19.644C130.299 19.42 130.635 19.188 130.979 18.948C131.323 18.708 131.655 18.472 131.975 18.24L132.119 18.132C132.159 18.1 132.199 18.076 132.239 18.06C132.279 18.036 132.319 18.008 132.359 17.976C132.367 17.976 132.379 17.968 132.395 17.952C132.411 17.944 132.423 17.936 132.431 17.928C132.439 17.912 132.451 17.896 132.467 17.88L132.551 17.724L132.647 17.748L132.671 17.724L132.743 17.676C132.759 17.66 132.779 17.644 132.803 17.628C132.827 17.604 132.847 17.584 132.863 17.568L133.043 17.388C133.083 17.428 133.147 17.484 133.235 17.556C133.323 17.62 133.379 17.66 133.403 17.676C133.475 17.74 133.523 17.78 133.547 17.796C133.571 17.812 133.571 17.812 133.547 17.796H133.523C133.555 17.812 133.591 17.836 133.631 17.868C133.671 17.9 133.727 17.936 133.799 17.976C133.759 18.088 133.715 18.2 133.667 18.312C133.619 18.424 133.587 18.496 133.571 18.528C133.571 18.536 133.567 18.544 133.559 18.552C133.559 18.56 133.559 18.568 133.559 18.576C133.551 18.592 133.543 18.616 133.535 18.648C133.527 18.672 133.519 18.692 133.511 18.708C133.503 18.732 133.491 18.76 133.475 18.792C133.459 18.824 133.447 18.856 133.439 18.888C133.423 18.928 133.407 18.968 133.391 19.008C133.383 19.04 133.371 19.076 133.355 19.116C133.299 19.26 133.243 19.408 133.187 19.56C133.131 19.704 133.071 19.852 133.007 20.004C132.831 20.452 132.643 20.932 132.443 21.444C132.251 21.948 132.059 22.456 131.867 22.968C131.235 24.632 130.683 26.104 130.211 27.384C129.747 28.664 129.343 29.804 128.999 30.804C128.655 31.804 128.359 32.684 128.111 33.444C127.863 34.212 127.643 34.908 127.451 35.532C127.491 35.452 127.531 35.372 127.571 35.292C127.611 35.212 127.651 35.136 127.691 35.064C127.987 34.504 128.271 33.984 128.543 33.504C128.815 33.024 129.079 32.58 129.335 32.172C129.591 31.772 129.839 31.388 130.079 31.02C130.319 30.652 130.567 30.284 130.823 29.916C131.079 29.556 131.343 29.188 131.615 28.812C131.895 28.444 132.199 28.052 132.527 27.636C133.583 26.34 134.567 25.244 135.479 24.348C136.391 23.46 137.207 22.7 137.927 22.068C138.647 21.444 139.271 20.932 139.799 20.532C140.327 20.124 140.779 19.78 141.155 19.5C141.531 19.228 141.847 19.004 142.103 18.828C142.359 18.652 142.587 18.5 142.787 18.372C142.987 18.236 143.171 18.116 143.339 18.012C143.507 17.9 143.695 17.784 143.903 17.664ZM188.8 17.448C188.88 17.528 188.916 17.636 188.908 17.772C188.908 17.9 188.876 18.04 188.812 18.192C188.748 18.344 188.652 18.504 188.524 18.672C188.396 18.832 188.244 18.988 188.068 19.14L188.08 19.128C188.072 19.136 188.064 19.144 188.056 19.152C188.048 19.152 188.04 19.156 188.032 19.164C187.992 19.204 187.944 19.248 187.888 19.296C187.84 19.336 187.792 19.376 187.744 19.416C187.664 19.48 187.548 19.572 187.396 19.692C187.244 19.812 187.02 19.992 186.724 20.232C186.436 20.472 186.056 20.788 185.584 21.18C185.112 21.572 184.508 22.076 183.772 22.692C183.044 23.308 182.164 24.052 181.132 24.924C180.108 25.796 178.896 26.832 177.496 28.032C177.48 28.064 177.448 28.112 177.4 28.176C177.392 28.192 177.38 28.208 177.364 28.224C177.356 28.24 177.348 28.256 177.34 28.272V28.26C177.244 28.428 177.156 28.592 177.076 28.752C176.772 29.272 176.472 29.724 176.176 30.108C176 30.332 175.808 30.544 175.6 30.744C175.4 30.944 175.172 31.124 174.916 31.284C174.764 31.372 174.604 31.444 174.436 31.5C174.268 31.556 174.092 31.584 173.908 31.584C173.796 31.584 173.688 31.576 173.584 31.56C173.488 31.552 173.396 31.528 173.308 31.488C173.292 31.488 173.28 31.484 173.272 31.476C173.264 31.468 173.252 31.46 173.236 31.452L173.188 31.428C173.172 31.42 173.148 31.404 173.116 31.38C173.084 31.364 173.056 31.344 173.032 31.32C173.008 31.304 172.992 31.296 172.984 31.296C172.976 31.296 172.984 31.308 173.008 31.332C172.944 31.292 172.892 31.236 172.852 31.164C172.82 31.1 172.796 31.004 172.78 30.876C172.772 30.82 172.78 30.756 172.804 30.684C172.836 30.612 172.872 30.54 172.912 30.468C172.96 30.396 173.012 30.328 173.068 30.264C173.124 30.208 173.184 30.164 173.248 30.132H173.236C173.404 29.988 173.576 29.836 173.752 29.676C173.936 29.524 174.12 29.368 174.304 29.208C174.56 28.984 174.804 28.768 175.036 28.56C175.276 28.352 175.512 28.148 175.744 27.948C175.784 27.916 175.816 27.884 175.84 27.852C175.872 27.828 175.908 27.8 175.948 27.768L176.452 27.336C176.548 27.152 176.636 26.972 176.716 26.796C176.796 26.62 176.88 26.436 176.968 26.244C177.248 25.572 177.536 24.848 177.832 24.072C178.128 23.304 178.408 22.512 178.672 21.696C178.672 21.68 178.676 21.668 178.684 21.66C178.684 21.668 178.692 21.64 178.708 21.576C178.524 21.688 178.344 21.792 178.168 21.888C177.992 21.984 177.812 22.084 177.628 22.188C176.484 22.804 175.46 23.28 174.556 23.616C173.66 23.952 172.824 24.184 172.048 24.312H172.06C171.636 24.392 171.172 24.432 170.668 24.432C170.508 24.432 170.348 24.428 170.188 24.42C170.036 24.412 169.892 24.396 169.756 24.372C169.396 24.308 169.024 24.192 168.64 24.024C168.256 23.856 167.912 23.624 167.608 23.328C167.304 23.04 167.052 22.688 166.852 22.272C166.652 21.856 166.508 21.408 166.42 20.928V20.94C166.388 20.772 166.364 20.588 166.348 20.388C166.34 20.18 166.336 19.972 166.336 19.764C166.336 19.428 166.352 19.096 166.384 18.768C166.424 18.44 166.476 18.104 166.54 17.76C166.652 17.176 166.82 16.564 167.044 15.924C167.268 15.276 167.556 14.58 167.908 13.836C168.252 13.116 168.668 12.372 169.156 11.604C169.652 10.828 170.264 10.036 170.992 9.228C171.736 8.404 172.524 7.696 173.356 7.104C174.196 6.504 175.064 6.06 175.96 5.772C176.704 5.532 177.436 5.412 178.156 5.412C178.244 5.412 178.332 5.416 178.42 5.424C178.508 5.424 178.596 5.428 178.684 5.436C178.924 5.468 179.164 5.52 179.404 5.592C179.644 5.664 179.88 5.78 180.112 5.94C180.36 6.116 180.552 6.336 180.688 6.6C180.832 6.856 180.912 7.112 180.928 7.368C180.944 7.576 180.94 7.792 180.916 8.016C180.9 8.24 180.864 8.448 180.808 8.64C180.76 8.824 180.704 9.004 180.64 9.18C180.584 9.356 180.524 9.524 180.46 9.684C180.324 9.996 180.184 10.292 180.04 10.572C179.896 10.844 179.752 11.104 179.608 11.352C179.304 11.856 179.004 12.324 178.708 12.756C178.42 13.18 178.152 13.56 177.904 13.896C177.4 14.584 176.94 15.176 176.524 15.672C176.116 16.168 175.776 16.576 175.504 16.896C175.272 17.184 175.072 17.424 174.904 17.616C174.736 17.8 174.608 17.936 174.52 18.024C174.368 18.192 174.204 18.34 174.028 18.468C173.86 18.588 173.696 18.68 173.536 18.744C173.384 18.8 173.24 18.828 173.104 18.828C172.976 18.828 172.876 18.792 172.804 18.72H172.816C172.728 18.64 172.676 18.536 172.66 18.408C172.652 18.28 172.672 18.136 172.72 17.976C172.768 17.816 172.844 17.652 172.948 17.484C173.06 17.308 173.188 17.136 173.332 16.968C173.364 16.928 173.4 16.888 173.44 16.848C173.48 16.808 173.524 16.764 173.572 16.716C173.628 16.652 173.692 16.58 173.764 16.5C173.836 16.42 173.92 16.328 174.016 16.224L174.184 16.068C174.2 16.052 174.208 16.04 174.208 16.032C174.216 16.024 174.228 16.012 174.244 15.996C174.428 15.788 174.66 15.528 174.94 15.216C175.22 14.904 175.548 14.52 175.924 14.064C176.164 13.776 176.416 13.46 176.68 13.116C176.952 12.772 177.244 12.384 177.556 11.952C177.708 11.736 177.864 11.512 178.024 11.28C178.184 11.04 178.344 10.784 178.504 10.512C178.656 10.256 178.804 9.988 178.948 9.708C179.092 9.42 179.232 9.096 179.368 8.736C179.432 8.576 179.484 8.42 179.524 8.268C179.572 8.108 179.6 7.948 179.608 7.788C179.624 7.652 179.616 7.52 179.584 7.392C179.56 7.264 179.504 7.156 179.416 7.068H179.428C179.34 6.972 179.22 6.9 179.068 6.852C178.916 6.796 178.752 6.756 178.576 6.732C178.488 6.716 178.4 6.708 178.312 6.708C178.224 6.708 178.14 6.708 178.06 6.708C177.956 6.708 177.832 6.712 177.688 6.72C177.552 6.728 177.42 6.74 177.292 6.756C176.86 6.844 176.392 6.98 175.888 7.164C175.384 7.34 174.928 7.552 174.52 7.8C174.088 8.064 173.648 8.388 173.2 8.772C172.76 9.148 172.324 9.564 171.892 10.02C171.116 10.876 170.464 11.732 169.936 12.588C169.408 13.444 168.976 14.256 168.64 15.024C168.304 15.8 168.048 16.536 167.872 17.232C167.696 17.928 167.588 18.588 167.548 19.212C167.54 19.3 167.536 19.38 167.536 19.452C167.536 19.524 167.536 19.604 167.536 19.692C167.536 20.18 167.588 20.628 167.692 21.036C167.796 21.436 167.952 21.78 168.16 22.068C168.288 22.228 168.42 22.368 168.556 22.488C168.7 22.6 168.848 22.7 169 22.788L168.988 22.776C169.148 22.856 169.308 22.916 169.468 22.956C169.636 22.996 169.812 23.028 169.996 23.052C170.084 23.068 170.168 23.076 170.248 23.076C170.328 23.076 170.408 23.076 170.488 23.076C170.744 23.076 171 23.06 171.256 23.028C171.512 22.988 171.78 22.94 172.06 22.884L172.048 22.896C172.352 22.824 172.684 22.728 173.044 22.608C173.404 22.488 173.8 22.34 174.232 22.164C174.664 21.988 175.092 21.8 175.516 21.6C175.948 21.392 176.392 21.168 176.848 20.928C177.096 20.8 177.34 20.672 177.58 20.544C177.828 20.408 178.092 20.26 178.372 20.1C178.388 20.092 178.4 20.08 178.408 20.064C178.424 20.048 178.44 20.036 178.456 20.028C178.488 20.012 178.524 19.992 178.564 19.968C178.612 19.936 178.66 19.904 178.708 19.872H178.72C178.808 19.816 178.896 19.764 178.984 19.716C179.072 19.668 179.16 19.616 179.248 19.56C179.256 19.552 179.284 19.532 179.332 19.5L179.32 19.512C179.328 19.504 179.34 19.496 179.356 19.488C179.372 19.48 179.38 19.476 179.38 19.476C179.388 19.468 179.4 19.46 179.416 19.452L179.56 19.38C179.568 19.372 179.576 19.368 179.584 19.368C179.592 19.36 179.6 19.352 179.608 19.344C179.888 19.264 180.128 19.204 180.328 19.164C180.536 19.124 180.688 19.144 180.784 19.224C180.888 19.296 180.932 19.452 180.916 19.692C180.908 19.924 180.824 20.276 180.664 20.748C180.504 21.212 180.268 21.816 179.956 22.56C179.644 23.304 179.24 24.224 178.744 25.32C179.856 24.344 180.8 23.512 181.576 22.824C182.36 22.136 183.016 21.552 183.544 21.072C184.08 20.592 184.516 20.2 184.852 19.896C185.188 19.584 185.472 19.32 185.704 19.104C185.888 18.944 186.06 18.796 186.22 18.66C186.38 18.516 186.544 18.372 186.712 18.228C186.76 18.188 186.812 18.14 186.868 18.084C186.932 18.028 186.988 17.98 187.036 17.94C187.204 17.796 187.376 17.676 187.552 17.58C187.728 17.476 187.896 17.404 188.056 17.364C188.224 17.316 188.372 17.3 188.5 17.316C188.628 17.332 188.728 17.38 188.8 17.46V17.448ZM213.429 17.316C213.605 17.236 213.765 17.196 213.909 17.196C214.077 17.196 214.225 17.232 214.353 17.304C214.489 17.376 214.589 17.476 214.653 17.604C214.757 17.82 214.753 18.04 214.641 18.264C214.529 18.488 214.341 18.66 214.077 18.78C214.061 18.788 214.049 18.792 214.041 18.792C214.041 18.792 214.033 18.796 214.017 18.804C214.001 18.812 213.981 18.82 213.957 18.828C213.933 18.836 213.921 18.836 213.921 18.828C213.865 18.844 213.785 18.876 213.681 18.924C213.577 18.972 213.401 19.044 213.153 19.14C212.929 19.228 212.637 19.348 212.277 19.5C211.917 19.644 211.461 19.84 210.909 20.088C210.565 20.248 210.169 20.424 209.721 20.616C209.281 20.808 208.797 21.02 208.269 21.252C208.117 21.316 207.965 21.384 207.813 21.456C207.661 21.52 207.505 21.588 207.345 21.66C207.081 21.772 206.805 21.896 206.517 22.032C206.237 22.16 205.945 22.296 205.641 22.44L205.101 22.692H205.113C204.961 22.764 204.805 22.836 204.645 22.908C204.485 22.98 204.325 23.052 204.165 23.124C203.861 23.26 203.545 23.4 203.217 23.544C202.889 23.68 202.545 23.816 202.185 23.952C201.809 24.08 201.421 24.204 201.021 24.324C200.621 24.444 200.169 24.524 199.665 24.564C199.497 24.572 199.325 24.568 199.149 24.552C198.981 24.544 198.813 24.512 198.645 24.456C198.533 24.408 198.425 24.352 198.321 24.288C198.225 24.232 198.133 24.16 198.045 24.072C197.877 23.904 197.761 23.72 197.697 23.52V23.532C197.633 23.356 197.597 23.2 197.589 23.064C197.589 22.92 197.593 22.784 197.601 22.656C197.617 22.536 197.629 22.456 197.637 22.416C197.645 22.368 197.653 22.324 197.661 22.284C197.661 22.276 197.661 22.268 197.661 22.26C197.669 22.252 197.673 22.244 197.673 22.236L197.733 22.032C197.845 21.648 197.957 21.328 198.069 21.072C198.189 20.816 198.313 20.564 198.441 20.316C198.505 20.188 198.561 20.076 198.609 19.98C198.657 19.884 198.705 19.784 198.753 19.68C198.809 19.576 198.873 19.46 198.945 19.332C199.017 19.196 199.109 19.028 199.221 18.828C198.965 18.892 198.709 18.952 198.453 19.008C198.205 19.056 197.929 19.108 197.625 19.164C196.737 19.324 195.913 19.432 195.153 19.488C194.401 19.536 193.705 19.56 193.065 19.56C192.425 19.552 191.857 19.528 191.361 19.488C190.873 19.44 190.445 19.384 190.077 19.32C189.429 19.208 188.925 19.104 188.565 19.008C188.213 18.904 187.969 18.832 187.833 18.792C187.817 18.792 187.805 18.792 187.797 18.792C187.797 18.784 187.793 18.78 187.785 18.78C187.777 18.78 187.773 18.776 187.773 18.768C187.493 18.664 187.293 18.5 187.173 18.276C187.053 18.044 187.037 17.824 187.125 17.616C187.221 17.424 187.377 17.296 187.593 17.232C187.817 17.168 188.045 17.176 188.277 17.256H188.253C189.053 17.488 189.597 17.636 189.885 17.7C190.173 17.756 190.165 17.788 189.861 17.796C190.133 17.86 190.489 17.932 190.929 18.012C191.369 18.084 191.881 18.144 192.465 18.192C192.689 18.208 192.929 18.224 193.185 18.24C193.441 18.248 193.701 18.252 193.965 18.252C194.421 18.252 194.949 18.232 195.549 18.192C196.157 18.144 196.789 18.068 197.445 17.964C197.941 17.876 198.397 17.792 198.813 17.712C199.237 17.632 199.601 17.552 199.905 17.472C199.913 17.472 199.937 17.468 199.977 17.46C200.017 17.452 200.049 17.44 200.073 17.424C200.081 17.424 200.093 17.424 200.109 17.424C200.133 17.416 200.149 17.412 200.157 17.412C200.141 17.412 200.141 17.408 200.157 17.4L200.181 17.376C200.205 17.376 200.249 17.372 200.313 17.364C200.377 17.356 200.445 17.344 200.517 17.328C200.589 17.312 200.657 17.3 200.721 17.292C200.785 17.276 200.829 17.264 200.853 17.256L201.021 18.024C201.021 18.032 201.005 18.06 200.973 18.108C200.949 18.156 200.917 18.208 200.877 18.264C200.845 18.32 200.813 18.372 200.781 18.42C200.757 18.468 200.745 18.496 200.745 18.504L200.709 18.576C200.693 18.616 200.673 18.656 200.649 18.696C200.625 18.728 200.605 18.76 200.589 18.792L200.601 18.78C200.585 18.82 200.569 18.848 200.553 18.864C200.545 18.872 200.529 18.904 200.505 18.96C200.465 19.024 200.425 19.096 200.385 19.176C200.345 19.256 200.309 19.32 200.277 19.368L200.289 19.356C200.057 19.828 199.861 20.248 199.701 20.616C199.541 20.976 199.405 21.312 199.293 21.624V21.612C199.253 21.748 199.213 21.884 199.173 22.02C199.133 22.156 199.097 22.304 199.065 22.464C199.049 22.528 199.037 22.596 199.029 22.668C199.021 22.74 199.017 22.792 199.017 22.824C199.017 22.92 199.033 22.996 199.065 23.052C199.081 23.084 199.133 23.104 199.221 23.112C199.309 23.12 199.417 23.116 199.545 23.1C199.769 23.092 200.009 23.068 200.265 23.028C200.529 22.98 200.793 22.92 201.057 22.848C201.377 22.76 201.721 22.656 202.089 22.536C202.457 22.416 202.789 22.3 203.085 22.188C203.173 22.156 203.257 22.128 203.337 22.104C203.417 22.072 203.501 22.036 203.589 21.996C203.677 21.956 203.765 21.924 203.853 21.9C203.941 21.868 204.021 21.836 204.093 21.804C204.125 21.788 204.157 21.776 204.189 21.768C204.221 21.76 204.253 21.748 204.285 21.732C204.333 21.716 204.377 21.7 204.417 21.684C204.457 21.668 204.497 21.652 204.537 21.636C204.737 21.548 204.925 21.468 205.101 21.396C205.285 21.316 205.469 21.232 205.653 21.144H205.641C205.745 21.096 205.849 21.052 205.953 21.012C206.057 20.964 206.165 20.916 206.277 20.868H206.265C206.369 20.82 206.485 20.768 206.613 20.712C206.741 20.656 206.861 20.604 206.973 20.556C208.333 19.932 209.421 19.412 210.237 18.996C211.061 18.58 211.665 18.268 212.049 18.06C212.217 17.972 212.357 17.896 212.469 17.832C212.589 17.768 212.693 17.712 212.781 17.664C212.797 17.656 212.809 17.648 212.817 17.64C212.833 17.632 212.849 17.624 212.865 17.616L212.853 17.628C212.949 17.572 213.041 17.52 213.129 17.472C213.217 17.424 213.313 17.372 213.417 17.316H213.429ZM229.729 17.316C229.953 17.228 230.169 17.22 230.377 17.292C230.593 17.364 230.749 17.5 230.845 17.7C230.933 17.9 230.933 18.108 230.845 18.324C230.765 18.532 230.609 18.688 230.377 18.792C230.353 18.8 230.317 18.812 230.269 18.828C230.221 18.836 230.189 18.844 230.173 18.852H230.137C230.097 18.868 230.037 18.888 229.957 18.912C229.877 18.936 229.753 18.98 229.585 19.044C229.425 19.108 229.209 19.188 228.937 19.284C228.665 19.38 228.349 19.488 227.989 19.608C227.605 19.736 227.149 19.884 226.621 20.052C226.093 20.212 225.469 20.384 224.749 20.568C224.661 20.592 224.561 20.62 224.449 20.652C224.345 20.676 224.245 20.7 224.149 20.724C223.845 20.804 223.509 20.892 223.141 20.988C222.781 21.076 222.409 21.156 222.025 21.228C221.513 21.324 220.949 21.408 220.333 21.48C219.717 21.552 219.065 21.58 218.377 21.564C217.945 21.556 217.569 21.544 217.249 21.528C216.937 21.512 216.661 21.496 216.421 21.48C216.397 21.48 216.369 21.48 216.337 21.48C216.305 21.472 216.281 21.468 216.265 21.468C216.201 21.46 216.161 21.456 216.145 21.456C216.137 21.456 216.113 21.456 216.073 21.456C216.065 21.464 216.057 21.472 216.049 21.48C216.049 21.488 216.045 21.496 216.037 21.504C216.013 21.528 215.997 21.548 215.989 21.564C215.965 21.588 215.949 21.608 215.941 21.624C215.925 21.64 215.909 21.656 215.893 21.672C215.885 21.688 215.873 21.704 215.857 21.72C215.841 21.736 215.821 21.756 215.797 21.78C215.781 21.804 215.765 21.824 215.749 21.84C215.605 22 215.437 22.188 215.245 22.404C215.053 22.62 214.857 22.824 214.657 23.016V23.004C214.513 23.14 214.337 23.292 214.129 23.46C213.929 23.628 213.713 23.78 213.481 23.916H213.493C213.237 24.084 212.933 24.224 212.581 24.336H212.593C212.505 24.368 212.413 24.392 212.317 24.408C212.229 24.432 212.129 24.448 212.017 24.456C211.985 24.464 211.945 24.468 211.897 24.468C211.849 24.468 211.817 24.468 211.801 24.468C211.769 24.468 211.737 24.468 211.705 24.468C211.673 24.468 211.641 24.464 211.609 24.456C211.449 24.44 211.301 24.396 211.165 24.324C210.901 24.196 210.693 24.02 210.541 23.796C210.381 23.564 210.269 23.336 210.205 23.112V23.124C210.141 22.916 210.101 22.728 210.085 22.56C210.069 22.384 210.057 22.212 210.049 22.044C210.049 21.86 210.057 21.688 210.073 21.528C210.081 21.368 210.093 21.22 210.109 21.084C210.125 20.956 210.149 20.824 210.181 20.688C210.205 20.552 210.241 20.408 210.289 20.256V20.268C210.369 19.98 210.469 19.724 210.589 19.5C210.701 19.268 210.825 19.06 210.961 18.876C211.113 18.684 211.265 18.52 211.417 18.384C211.561 18.24 211.705 18.12 211.849 18.024L211.837 18.036C212.125 17.836 212.385 17.688 212.617 17.592C212.849 17.496 213.045 17.42 213.205 17.364C213.389 17.308 213.521 17.272 213.601 17.256C213.689 17.232 213.753 17.216 213.793 17.208C213.921 17.184 214.045 17.188 214.165 17.22C214.285 17.252 214.389 17.304 214.477 17.376C214.573 17.448 214.649 17.536 214.705 17.64C214.761 17.736 214.789 17.844 214.789 17.964C214.789 18.172 214.721 18.356 214.585 18.516C214.449 18.668 214.277 18.764 214.069 18.804C214.053 18.804 214.033 18.808 214.009 18.816C213.985 18.816 213.965 18.816 213.949 18.816H213.937C213.921 18.824 213.897 18.828 213.865 18.828C213.841 18.828 213.817 18.828 213.793 18.828C213.777 18.828 213.757 18.832 213.733 18.84C213.717 18.84 213.701 18.84 213.685 18.84C213.677 18.84 213.673 18.844 213.673 18.852C213.673 18.852 213.661 18.852 213.637 18.852C213.549 18.868 213.441 18.9 213.313 18.948C213.193 18.988 213.073 19.028 212.953 19.068L212.965 19.056C212.877 19.096 212.777 19.148 212.665 19.212C212.561 19.268 212.453 19.344 212.341 19.44C212.229 19.528 212.117 19.636 212.005 19.764C211.901 19.892 211.805 20.052 211.717 20.244C211.613 20.436 211.533 20.66 211.477 20.916C211.421 21.172 211.377 21.452 211.345 21.756C211.321 21.924 211.309 22.068 211.309 22.188C211.309 22.34 211.325 22.496 211.357 22.656C211.373 22.776 211.405 22.892 211.453 23.004C211.501 23.116 211.573 23.196 211.669 23.244C211.725 23.268 211.789 23.28 211.861 23.28C211.933 23.28 212.009 23.272 212.089 23.256C212.169 23.232 212.253 23.204 212.341 23.172C212.485 23.124 212.617 23.068 212.737 23.004C212.865 22.932 212.981 22.864 213.085 22.8C213.277 22.672 213.457 22.524 213.625 22.356C213.801 22.188 213.965 22.024 214.117 21.864C214.301 21.664 214.449 21.504 214.561 21.384C214.673 21.264 214.753 21.152 214.801 21.048C214.865 20.92 214.941 20.776 215.029 20.616C215.117 20.456 215.233 20.316 215.377 20.196C215.529 20.076 215.713 19.996 215.929 19.956C216.153 19.916 216.429 19.956 216.757 20.076H217.045C217.093 20.076 217.141 20.08 217.189 20.088C217.245 20.088 217.301 20.088 217.357 20.088C217.485 20.088 217.621 20.088 217.765 20.088C217.909 20.088 218.061 20.092 218.221 20.1C218.405 20.108 218.629 20.116 218.893 20.124C219.165 20.124 219.421 20.124 219.661 20.124C220.285 20.116 220.825 20.088 221.281 20.04C221.745 19.984 222.157 19.924 222.517 19.86C222.877 19.796 223.221 19.728 223.549 19.656C223.885 19.584 224.213 19.504 224.533 19.416C224.773 19.344 225.017 19.268 225.265 19.188C225.521 19.108 225.769 19.028 226.009 18.948C226.249 18.86 226.473 18.78 226.681 18.708C226.897 18.628 227.085 18.556 227.245 18.492C227.525 18.38 227.761 18.284 227.953 18.204C228.145 18.116 228.321 18.032 228.481 17.952C228.497 17.944 228.521 17.932 228.553 17.916C228.585 17.9 228.617 17.884 228.649 17.868C228.785 17.804 228.901 17.748 228.997 17.7C229.101 17.644 229.189 17.596 229.261 17.556H229.273C229.353 17.516 229.425 17.48 229.489 17.448C229.553 17.408 229.629 17.368 229.717 17.328L229.729 17.316ZM244.591 17.604C244.631 17.7 244.647 17.804 244.639 17.916C244.631 18.02 244.599 18.128 244.543 18.24C244.495 18.352 244.427 18.46 244.339 18.564C244.251 18.66 244.147 18.748 244.027 18.828C243.995 18.844 243.963 18.864 243.931 18.888C243.907 18.904 243.871 18.928 243.823 18.96L243.775 18.984C243.759 18.992 243.743 19 243.727 19.008C243.719 19.008 243.711 19.012 243.703 19.02C243.623 19.06 243.511 19.116 243.367 19.188C243.231 19.26 243.059 19.36 242.851 19.488C242.611 19.632 242.303 19.82 241.927 20.052C241.559 20.284 241.095 20.58 240.535 20.94C239.983 21.292 239.327 21.72 238.567 22.224C237.807 22.728 236.923 23.32 235.915 24C235.363 24.368 234.791 24.772 234.199 25.212C233.607 25.652 232.963 26.136 232.267 26.664C231.667 27.128 230.999 27.644 230.263 28.212C229.535 28.788 228.803 29.364 228.067 29.94C228.035 30.068 228.003 30.2 227.971 30.336C227.939 30.472 227.903 30.608 227.863 30.744C227.663 31.392 227.435 31.996 227.179 32.556C226.915 33.116 226.607 33.596 226.255 33.996C226.071 34.204 225.875 34.388 225.667 34.548C225.459 34.708 225.239 34.836 225.007 34.932C224.783 35.02 224.555 35.092 224.323 35.148C224.083 35.204 223.863 35.236 223.663 35.244C223.551 35.244 223.443 35.24 223.339 35.232C223.227 35.224 223.127 35.212 223.039 35.196C222.879 35.164 222.731 35.104 222.595 35.016C222.451 34.928 222.347 34.788 222.283 34.596L222.295 34.608C222.223 34.44 222.195 34.288 222.211 34.152C222.227 34.024 222.255 33.904 222.295 33.792C222.335 33.688 222.375 33.596 222.415 33.516C222.455 33.436 222.495 33.364 222.535 33.3C222.671 33.092 222.815 32.892 222.967 32.7C223.119 32.516 223.263 32.34 223.399 32.172L223.375 32.196C223.391 32.18 223.411 32.156 223.435 32.124C223.451 32.1 223.467 32.08 223.483 32.064C223.755 31.768 224.055 31.464 224.383 31.152C224.703 30.848 225.051 30.536 225.427 30.216C225.659 30.008 225.899 29.796 226.147 29.58C226.395 29.372 226.695 29.14 227.047 28.884C227.103 28.604 227.155 28.34 227.203 28.092C227.243 27.852 227.283 27.604 227.323 27.348C227.387 26.9 227.447 26.448 227.503 25.992C227.559 25.536 227.607 25.12 227.647 24.744C227.655 24.688 227.663 24.624 227.671 24.552C227.679 24.488 227.687 24.428 227.695 24.372C227.703 24.316 227.707 24.26 227.707 24.204C227.715 24.156 227.723 24.108 227.731 24.06C227.747 23.948 227.759 23.832 227.767 23.712C227.783 23.592 227.799 23.476 227.815 23.364C227.871 22.884 227.919 22.448 227.959 22.056C228.007 21.656 228.059 21.288 228.115 20.952C228.195 20.496 228.279 20.076 228.367 19.692C228.463 19.308 228.555 18.996 228.643 18.756C228.731 18.532 228.819 18.336 228.907 18.168C229.003 18 229.075 17.884 229.123 17.82C229.211 17.7 229.315 17.596 229.435 17.508C229.563 17.42 229.695 17.356 229.831 17.316C230.039 17.268 230.215 17.284 230.359 17.364C230.503 17.436 230.607 17.536 230.671 17.664C230.727 17.776 230.747 17.888 230.731 18C230.715 18.112 230.687 18.232 230.647 18.36L230.611 18.432C230.587 18.472 230.559 18.524 230.527 18.588C230.495 18.644 230.463 18.696 230.431 18.744L230.407 18.768C230.375 18.808 230.339 18.856 230.299 18.912C230.267 18.96 230.231 19.028 230.191 19.116C230.127 19.244 230.051 19.416 229.963 19.632C229.875 19.848 229.787 20.136 229.699 20.496C229.611 20.848 229.519 21.312 229.423 21.888C229.327 22.464 229.219 23.188 229.099 24.06C229.059 24.316 229.023 24.58 228.991 24.852C228.975 24.988 228.955 25.124 228.931 25.26C228.915 25.396 228.895 25.54 228.871 25.692C228.839 25.9 228.807 26.112 228.775 26.328C228.751 26.552 228.719 26.776 228.679 27C228.671 27.032 228.663 27.06 228.655 27.084C228.647 27.116 228.639 27.144 228.631 27.168C228.623 27.184 228.619 27.204 228.619 27.228C228.619 27.252 228.615 27.272 228.607 27.288C228.567 27.328 228.543 27.392 228.535 27.48C228.535 27.576 228.539 27.672 228.547 27.768C228.611 27.72 228.667 27.68 228.715 27.648L228.703 27.66C229.231 27.276 229.703 26.932 230.119 26.628C230.543 26.332 230.931 26.06 231.283 25.812C231.403 25.724 231.523 25.64 231.643 25.56C231.763 25.48 231.875 25.4 231.979 25.32C232.067 25.256 232.155 25.192 232.243 25.128C232.339 25.072 232.427 25.012 232.507 24.948C232.755 24.78 232.995 24.612 233.227 24.444C233.315 24.38 233.415 24.308 233.527 24.228C233.639 24.148 233.739 24.076 233.827 24.012C233.971 23.9 234.119 23.796 234.271 23.7C234.423 23.596 234.579 23.488 234.739 23.376H234.727C234.831 23.304 234.939 23.232 235.051 23.16C235.163 23.08 235.275 23 235.387 22.92V22.932C236.211 22.356 236.935 21.852 237.559 21.42C238.191 20.988 238.747 20.604 239.227 20.268C239.731 19.924 240.171 19.62 240.547 19.356C240.923 19.084 241.227 18.86 241.459 18.684C241.635 18.564 241.791 18.452 241.927 18.348C242.071 18.244 242.195 18.156 242.299 18.084L242.323 18.072C242.483 17.944 242.627 17.836 242.755 17.748C242.883 17.66 243.019 17.572 243.163 17.484C243.419 17.324 243.675 17.244 243.931 17.244C244.203 17.244 244.423 17.364 244.591 17.604ZM225.619 32.94C225.779 32.716 225.935 32.456 226.087 32.16C226.231 31.864 226.359 31.552 226.471 31.224C226.231 31.424 226.011 31.608 225.811 31.776C225.603 31.944 225.411 32.108 225.235 32.268C225.219 32.284 225.203 32.3 225.187 32.316C225.163 32.34 225.143 32.356 225.127 32.364C224.871 32.596 224.627 32.824 224.395 33.048C224.163 33.272 223.931 33.52 223.699 33.792C223.699 33.792 223.695 33.8 223.687 33.816C223.663 33.856 223.639 33.896 223.615 33.936C223.583 33.976 223.559 34.016 223.543 34.056C223.775 34.072 224.003 34.052 224.227 33.996C224.443 33.924 224.683 33.796 224.947 33.612C225.211 33.428 225.435 33.204 225.619 32.94ZM228.619 27.288L228.607 27.312V27.288H228.619ZM271.695 17.496C271.759 17.584 271.783 17.692 271.767 17.82C271.759 17.948 271.719 18.084 271.647 18.228C271.575 18.372 271.471 18.52 271.335 18.672C271.207 18.816 271.055 18.952 270.879 19.08C270.863 19.096 270.839 19.112 270.807 19.128C270.783 19.144 270.759 19.16 270.735 19.176L270.747 19.164C270.731 19.18 270.719 19.188 270.711 19.188L270.699 19.2C270.627 19.248 270.539 19.304 270.435 19.368C270.339 19.432 270.211 19.516 270.051 19.62C269.819 19.764 269.495 19.964 269.079 20.22C268.663 20.476 268.187 20.76 267.651 21.072C267.347 21.248 266.999 21.44 266.607 21.648C266.223 21.856 265.795 22.076 265.323 22.308C264.875 22.524 264.351 22.76 263.751 23.016C263.151 23.272 262.511 23.508 261.831 23.724C261.463 23.836 261.087 23.944 260.703 24.048C260.319 24.152 259.919 24.24 259.503 24.312C259.199 24.36 258.875 24.4 258.531 24.432C258.195 24.464 257.843 24.48 257.475 24.48C257.363 24.48 257.235 24.48 257.091 24.48C256.955 24.48 256.831 24.472 256.719 24.456C256.215 24.424 255.691 24.336 255.147 24.192C254.611 24.056 254.095 23.864 253.599 23.616C253.079 23.344 252.579 23.004 252.099 22.596C251.627 22.18 251.207 21.704 250.839 21.168C250.503 20.664 250.223 20.164 249.999 19.668C249.951 19.556 249.903 19.44 249.855 19.32C249.815 19.2 249.775 19.084 249.735 18.972C249.415 19.18 249.107 19.38 248.811 19.572C248.515 19.756 248.227 19.94 247.947 20.124C247.243 20.58 246.599 21.004 246.015 21.396C245.431 21.78 244.887 22.152 244.383 22.512C244.127 22.688 243.887 22.856 243.663 23.016C243.447 23.176 243.235 23.336 243.027 23.496C242.987 23.512 242.943 23.54 242.895 23.58C242.855 23.612 242.811 23.648 242.763 23.688C242.715 23.72 242.667 23.752 242.619 23.784C242.579 23.816 242.503 23.876 242.391 23.964C242.375 23.98 242.367 23.988 242.367 23.988C242.351 24.028 242.303 24.1 242.223 24.204C242.143 24.308 242.039 24.368 241.911 24.384C241.879 24.432 241.851 24.476 241.827 24.516C241.811 24.564 241.799 24.592 241.791 24.6L241.143 23.94L241.155 23.712L241.167 23.304C241.175 23.304 241.187 23.3 241.203 23.292C241.219 23.292 241.243 23.284 241.275 23.268L241.359 23.172C241.399 23.06 241.443 22.956 241.491 22.86C241.539 22.764 241.583 22.668 241.623 22.572V22.584C241.735 22.328 241.843 22.08 241.947 21.84C242.051 21.6 242.155 21.364 242.259 21.132L242.247 21.144C242.295 21.024 242.347 20.904 242.403 20.784C242.459 20.664 242.511 20.548 242.559 20.436H242.547C242.603 20.3 242.659 20.172 242.715 20.052C242.779 19.924 242.839 19.796 242.895 19.668C242.959 19.532 243.007 19.424 243.039 19.344C243.071 19.256 243.107 19.168 243.147 19.08C243.163 19.048 243.171 19.028 243.171 19.02C243.179 19.004 243.183 18.992 243.183 18.984C243.191 18.968 243.199 18.948 243.207 18.924C243.223 18.892 243.243 18.844 243.267 18.78C243.219 18.756 243.155 18.724 243.075 18.684C243.003 18.636 242.959 18.592 242.943 18.552C242.895 18.456 242.883 18.348 242.907 18.228C242.931 18.108 242.983 17.984 243.063 17.856C243.143 17.72 243.243 17.584 243.363 17.448C243.491 17.312 243.627 17.184 243.771 17.064C243.803 17.04 243.839 17.012 243.879 16.98C243.919 16.94 243.951 16.912 243.975 16.896C243.991 16.88 244.019 16.86 244.059 16.836C244.099 16.804 244.139 16.772 244.179 16.74C244.499 16.02 244.863 15.204 245.271 14.292C245.679 13.38 246.167 12.316 246.735 11.1C246.759 11.044 246.787 10.98 246.819 10.908C246.859 10.828 246.891 10.76 246.915 10.704C247.083 10.32 247.251 9.944 247.419 9.576C247.595 9.2 247.759 8.848 247.911 8.52C248.023 8.288 248.127 8.064 248.223 7.848C248.327 7.624 248.431 7.4 248.535 7.176C248.863 6.464 249.171 5.796 249.459 5.172C249.747 4.54 250.007 3.98 250.239 3.492C250.247 3.46 250.263 3.428 250.287 3.396C250.279 3.404 250.275 3.404 250.275 3.396C250.283 3.38 250.291 3.368 250.299 3.36C250.339 3.272 250.375 3.192 250.407 3.12C250.447 3.048 250.487 2.968 250.527 2.88C250.591 2.744 250.651 2.612 250.707 2.484C250.763 2.356 250.823 2.232 250.887 2.112V2.124C250.935 2.012 250.983 1.9 251.031 1.788C251.087 1.676 251.143 1.568 251.199 1.464L251.271 1.32C251.287 1.296 251.307 1.26 251.331 1.212C251.363 1.164 251.387 1.124 251.403 1.092L251.427 1.044L251.439 1.032C251.455 0.999999 251.471 0.971999 251.487 0.947999C251.511 0.923998 251.531 0.895998 251.547 0.863999V0.887999L251.571 0.911998C251.603 0.839999 251.631 0.787999 251.655 0.756C251.687 0.715999 251.719 0.683999 251.751 0.659999C251.807 0.619999 251.883 0.579999 251.979 0.539999C252.083 0.5 252.191 0.483999 252.303 0.491999C252.463 0.507998 252.595 0.571999 252.699 0.683999C252.811 0.787999 252.883 0.879999 252.915 0.959999C252.963 1.072 252.991 1.176 252.999 1.272C253.015 1.36 253.023 1.436 253.023 1.5C253.031 1.612 253.031 1.732 253.023 1.86C253.015 1.98 253.003 2.084 252.987 2.172C252.987 2.18 252.983 2.192 252.975 2.208C252.975 2.216 252.975 2.224 252.975 2.232V2.352C252.951 2.552 252.907 2.792 252.843 3.072C252.779 3.344 252.707 3.636 252.627 3.948C252.395 4.828 252.143 5.644 251.871 6.396C251.607 7.14 251.347 7.836 251.091 8.484C250.827 9.116 250.571 9.704 250.323 10.248C250.075 10.784 249.835 11.28 249.603 11.736C249.131 12.648 248.695 13.416 248.295 14.04C247.903 14.656 247.555 15.172 247.251 15.588C246.963 15.988 246.703 16.32 246.471 16.584C246.247 16.848 246.043 17.08 245.859 17.28L245.847 17.292C245.735 17.412 245.627 17.52 245.523 17.616C245.427 17.712 245.323 17.812 245.211 17.916C244.987 18.412 244.799 18.828 244.647 19.164C244.495 19.492 244.355 19.792 244.227 20.064C244.107 20.328 243.987 20.588 243.867 20.844C243.747 21.092 243.603 21.388 243.435 21.732C243.643 21.588 243.851 21.444 244.059 21.3C244.275 21.156 244.507 21 244.755 20.832C245.203 20.528 245.683 20.208 246.195 19.872C246.715 19.528 247.287 19.152 247.911 18.744C248.031 18.672 248.151 18.6 248.271 18.528C248.391 18.448 248.515 18.364 248.643 18.276L248.751 18.204C248.767 18.188 248.787 18.176 248.811 18.168C248.835 18.16 248.855 18.148 248.871 18.132C248.959 18.076 249.043 18.024 249.123 17.976C249.211 17.92 249.299 17.864 249.387 17.808L249.351 17.844C249.359 17.836 249.367 17.832 249.375 17.832C249.383 17.832 249.391 17.828 249.399 17.82C249.415 17.804 249.427 17.788 249.435 17.772C249.451 17.748 249.475 17.736 249.507 17.736C249.531 17.72 249.567 17.7 249.615 17.676C249.663 17.652 249.699 17.632 249.723 17.616L249.747 17.748V17.616C249.795 17.608 249.835 17.6 249.867 17.592C249.899 17.584 249.927 17.572 249.951 17.556C250.031 17.524 250.099 17.504 250.155 17.496C250.211 17.48 250.263 17.488 250.311 17.52C250.367 17.544 250.423 17.6 250.479 17.688C250.535 17.768 250.607 17.888 250.695 18.048L250.707 18.096L250.719 18.156L250.743 18.24C250.847 18.608 250.991 18.988 251.175 19.38C251.359 19.772 251.579 20.148 251.835 20.508C252.091 20.868 252.375 21.196 252.687 21.492C252.999 21.788 253.335 22.044 253.695 22.26C254.031 22.468 254.383 22.64 254.751 22.776C255.127 22.904 255.507 23.004 255.891 23.076H255.879C256.135 23.116 256.383 23.148 256.623 23.172C256.863 23.196 257.095 23.208 257.319 23.208C257.823 23.208 258.299 23.176 258.747 23.112C259.203 23.04 259.639 22.952 260.055 22.848C260.679 22.696 261.263 22.52 261.807 22.32C262.359 22.112 262.875 21.9 263.355 21.684C263.555 21.596 263.763 21.5 263.979 21.396C264.203 21.284 264.423 21.176 264.639 21.072C264.855 20.96 265.063 20.852 265.263 20.748C265.463 20.636 265.643 20.536 265.803 20.448C266.451 20.072 267.015 19.732 267.495 19.428C267.983 19.124 268.379 18.868 268.683 18.66C268.699 18.644 268.719 18.628 268.743 18.612C268.767 18.596 268.787 18.58 268.803 18.564C269.115 18.356 269.363 18.188 269.547 18.06C269.731 17.932 269.859 17.84 269.931 17.784C270.107 17.664 270.287 17.564 270.471 17.484C270.655 17.404 270.823 17.348 270.975 17.316C271.135 17.284 271.275 17.284 271.395 17.316C271.523 17.34 271.623 17.4 271.695 17.496ZM250.515 5.868C250.459 5.996 250.403 6.124 250.347 6.252C250.291 6.372 250.235 6.5 250.179 6.636C250.091 6.82 250.007 7.008 249.927 7.2C249.855 7.392 249.775 7.584 249.687 7.776C249.575 8.04 249.459 8.308 249.339 8.58C249.219 8.844 249.099 9.116 248.979 9.396C248.859 9.676 248.759 9.908 248.679 10.092C248.607 10.268 248.543 10.424 248.487 10.56C248.431 10.696 248.375 10.828 248.319 10.956C248.271 11.076 248.215 11.212 248.151 11.364C248.087 11.516 248.007 11.7 247.911 11.916C247.815 12.132 247.695 12.4 247.551 12.72C247.639 12.576 247.711 12.452 247.767 12.348C247.831 12.244 247.911 12.112 248.007 11.952C248.271 11.472 248.555 10.936 248.859 10.344C249.163 9.752 249.471 9.116 249.783 8.436C250.063 7.764 250.355 7.024 250.659 6.216C250.963 5.4 251.243 4.532 251.499 3.612C251.363 3.916 251.227 4.224 251.091 4.536C250.955 4.848 250.819 5.168 250.683 5.496L250.695 5.484C250.679 5.516 250.663 5.548 250.647 5.58C250.639 5.604 250.627 5.632 250.611 5.664L250.527 5.88L250.515 5.868ZM251.655 0.756L251.559 0.851998C251.591 0.795999 251.611 0.767999 251.619 0.767999C251.627 0.759999 251.639 0.756 251.655 0.756Z" fill="#4F78AB"/>
</svg>
