<svg width="272" height="97" viewBox="0 0 272 97" fill="none" xmlns="http://www.w3.org/2000/svg">
<mask id="mask0_1012_9100" style="mask-type:alpha" maskUnits="userSpaceOnUse" x="0" y="0" width="272" height="97">
<rect y="0.0117188" width="272" height="96" rx="8" fill="#C4C4C4"/>
</mask>
<g mask="url(#mask0_1012_9100)">
</g>
<g clip-path="url(#clip0_1012_9100)">
<path d="M93.7955 61.3484L91.5215 53.4534L90.567 49.2007C90.7078 49.1639 90.5931 48.8797 90.5878 48.8375C89.7794 42.0952 84.6213 42.8531 81.2729 44.0111C81.2729 44.0111 81.0954 44.1795 81.1007 43.9585C81.1112 43.6848 81.1163 40.953 81.1163 40.2162C81.1163 40.0425 81.2677 39.9899 81.2677 39.9899C85.4506 38.1372 91.5057 38.2951 95.2298 40.1741C98.0252 41.5899 99.6525 43.7322 101.191 50.1639C101.614 51.9429 102.099 54.3904 103.444 59.7063C104.091 62.259 104.774 63.2117 106.167 62.9433C106.339 62.9117 106.344 63.0012 106.344 63.1538C106.339 64.3644 106.339 66.3907 106.339 66.5328C106.339 66.9539 106.339 66.9539 106.198 66.9487C106.021 66.9434 102.349 66.9539 102.349 66.9539C100.675 66.9434 98.6355 66.9434 95.986 64.6065L93.7955 61.3484Z" fill="#ECEFF5"/>
<path d="M93.7952 61.3392C93.8577 61.5287 93.5865 61.7181 93.4092 61.8024C87.6251 65.1235 85.5231 55.2864 91.156 53.3916C91.3856 53.3284 91.5212 53.4442 91.5212 53.4442L90.5667 49.1914C87.5573 49.8598 82.8267 51.2336 80.7771 53.1863C76.1926 57.5549 78.1693 64.5919 83.2023 66.413C86.0135 67.4289 91.8236 68.2342 95.9856 64.5972L93.7952 61.3392Z" fill="#ECEFF5"/>
<path d="M133.112 38.1413C136.298 38.1413 138.885 36.036 138.885 33.4359C138.885 30.8358 136.298 28.7305 133.112 28.7305C129.92 28.7305 127.338 30.8358 127.338 33.4359C127.338 36.036 129.92 38.1413 133.112 38.1413Z" fill="#ECEFF5"/>
<path d="M231.774 38.1413C234.96 38.1413 237.547 36.036 237.547 33.4359C237.547 30.8358 234.96 28.7305 231.774 28.7305C228.582 28.7305 226 30.8358 226 33.4359C226 36.036 228.582 38.1413 231.774 38.1413Z" fill="#ECEFF5"/>
<path d="M75.479 64.8048C75.4738 66.0734 75.7659 66.5576 75.8649 66.7681C75.9484 66.9576 75.698 66.9313 75.698 66.9313H73.7475H65.6163C65.6163 66.9313 65.4181 66.9418 65.4807 66.7681C65.6007 66.426 65.8458 65.8102 65.8458 64.8048L65.8353 63.489V50.9834V48.6306C65.8302 47.7464 65.2878 45.8464 63.165 45.8411C61.4073 45.8569 59.7696 47.4675 59.7645 49.6991V54.3677L59.7593 63.6838C59.7593 63.6838 59.7645 64.7575 59.7645 64.8048C59.7593 66.0734 60.0513 66.5576 60.1503 66.7681C60.2339 66.9576 59.9835 66.9313 59.9835 66.9313H58.038H49.9018C49.9018 66.9313 49.7036 66.9418 49.7661 66.7681C49.8862 66.426 50.126 65.8102 50.1313 64.8048V64.1048V50.9992V48.6465C50.126 47.7569 49.5836 45.8621 47.4557 45.8516C45.7033 45.8674 44.0603 47.478 44.0603 49.7096V50.915V64.0522L44.05 64.8048C44.05 66.0734 44.3421 66.5576 44.4358 66.7681C44.5194 66.9576 44.2743 66.9313 44.2743 66.9313H42.3235H34.1925C34.1925 66.9313 33.9891 66.9418 34.0516 66.7681C34.1769 66.426 34.4115 65.8102 34.422 64.8048V63.9206C34.422 60.6521 34.4168 46.299 34.4115 44.9779C34.422 44.1147 34.1508 43.4989 34.0204 43.162C33.9421 42.9884 34.1142 42.9095 34.1142 42.9095C34.1142 42.9095 37.8226 41.2305 43.8986 38.3987C43.9612 38.3725 44.0656 38.4093 44.0603 38.5198V40.9883V43.1094C44.0603 43.2252 44.1856 43.2884 44.2794 43.1884C44.3316 43.1358 44.3941 43.0515 44.4777 42.9568C47.8103 37.8303 58.1842 36.9987 59.8166 43.1358C59.8479 43.241 59.9627 43.2305 60.0305 43.1358C62.0853 40.3567 64.1456 38.9567 68.3805 38.9567C76.6629 38.9567 75.4685 46.0832 75.4633 50.4728L75.4685 63.489L75.479 64.8048Z" fill="#ECEFF5"/>
<path d="M118.646 64.8293C118.641 66.0926 118.933 66.5821 119.027 66.7926C119.116 66.9821 118.865 66.9558 118.865 66.9558H116.398H108.267C108.267 66.9558 108.064 66.9611 108.126 66.7926C108.246 66.4452 108.486 65.8347 108.492 64.8293L108.497 64.0714C108.497 60.8135 108.492 46.9025 108.492 45.5814C108.492 44.8445 108.001 43.4708 107.907 43.2234C107.845 43.0918 108.048 43.0392 108.048 43.0392C108.048 43.0392 112.44 40.776 118.49 37.9495C118.553 37.9232 118.652 37.9601 118.652 38.0706V40.8181C118.652 41.1865 118.688 42.3392 118.688 42.4918C118.688 42.6129 118.813 42.676 118.902 42.576C118.954 42.5181 119.022 42.4391 119.1 42.3392C121.358 37.8654 124.947 38.0075 127.675 38.418C128.024 38.4706 127.977 38.5864 127.883 39.0496C127.706 39.9338 126.501 44.9393 126.397 45.3077C126.313 45.6182 126.23 45.7551 125.86 45.6761C122.433 44.9498 118.652 46.0762 118.652 50.3868V51.0079C118.652 54.1501 118.652 61.8346 118.657 64.0767L118.646 64.8293Z" fill="#ECEFF5"/>
<path d="M138.512 64.8224C138.507 66.0857 138.799 66.5752 138.893 66.7857C138.981 66.9752 138.731 66.9489 138.731 66.9489H136.248H128.117C128.117 66.9489 127.914 66.9594 127.971 66.7857C128.096 66.4383 128.336 65.8278 128.341 64.8224L128.347 64.6751V43.3376C128.347 42.8112 128.347 42.8059 128.717 42.6375C128.91 42.5481 128.842 42.5796 128.842 42.5796C128.842 42.5796 132.347 40.8322 138.194 38.0532C138.256 38.0216 138.501 38.0637 138.496 38.1743C138.496 39.0163 138.507 62.4593 138.512 64.7224V64.8224Z" fill="#ECEFF5"/>
<path d="M237.174 64.8224C237.169 66.0857 237.461 66.5752 237.555 66.7857C237.643 66.9752 237.393 66.9489 237.393 66.9489H234.91H226.779C226.779 66.9489 226.576 66.9594 226.633 66.7857C226.758 66.4383 226.998 65.8278 227.004 64.8224L227.009 64.6751V43.3376C227.009 42.8112 227.009 42.8059 227.379 42.6375C227.572 42.5481 227.504 42.5796 227.504 42.5796C227.504 42.5796 231.009 40.8322 236.856 38.0532C236.918 38.0216 237.164 38.0637 237.158 38.1743C237.158 39.0163 237.169 62.4593 237.174 64.7224V64.8224Z" fill="#ECEFF5"/>
<path d="M174.623 62.093C172.187 63.3457 168.552 63.751 166.382 60.9667C164.223 58.1929 163.159 55.7665 163.164 51.7928C163.169 42.7609 169.381 41.5766 174.096 44.2346V39.5923C171.436 38.2291 167.926 37.9923 165.287 38.2713C157.427 39.1187 152.837 45.7662 152.832 53.3296C152.827 61.572 158.042 71.4355 174.623 66.8511V62.093Z" fill="#ECEFF5"/>
<path d="M191.644 61.631C191.706 61.8311 191.602 61.8942 191.419 61.989C190.157 62.7995 187.993 62.9785 186.72 61.7837C185.52 60.352 184.895 58.7152 185.4 56.6677C185.802 55.4098 187.08 53.215 189.213 52.8308L188.53 48.7148C188.535 48.7886 188.53 48.7833 188.316 48.8307C187.669 48.9938 187.325 49.057 186.204 49.2464C183.841 49.6412 181.171 50.4517 178.949 52.1992C172.612 57.1678 175.585 64.4785 180.733 66.6259C183.737 67.8786 189.041 68.6102 193.422 64.9206L191.644 61.631Z" fill="#ECEFF5"/>
<path d="M191.644 61.6321L189.292 52.8686C189.292 52.8686 189.292 52.8055 189.214 52.8318L188.53 48.7159C188.061 41.363 182.209 42.042 178.96 43.2683C178.96 43.2683 178.777 43.442 178.788 43.2104C178.793 42.9263 178.803 40.0893 178.803 39.3261C178.798 39.1419 178.954 39.0945 178.954 39.0945C183.09 37.2629 189.412 37.5103 193.063 39.3577C196.265 40.9736 197.856 43.9421 198.497 46.4948C198.497 46.4948 201.371 59.7267 201.694 61.1584C201.955 62.3058 202.696 63.3058 203.854 63.3005C204.313 63.3005 204.375 63.3901 204.38 63.869C204.386 65.0269 204.391 66.8112 204.386 67.0586C204.38 67.3586 204.36 67.4691 204.135 67.4691C203.953 67.4691 200.161 67.4743 200.161 67.4743C198.122 67.4638 196.442 67.4586 193.422 64.9216L191.644 61.6321Z" fill="#ECEFF5"/>
<path d="M223.735 45.4511C221.242 45.4143 220.616 45.2564 219.302 45.7248C217.664 46.3564 216.537 47.6722 216.506 49.6776V50.8934V64.8307V65.3886C216.506 66.1991 216.866 66.8097 216.949 67.0255C216.96 67.0465 216.928 67.0623 216.928 67.0623H214.19H205.793C205.793 67.0623 205.762 67.0465 205.767 67.0202C205.845 66.8254 206.21 66.1886 206.21 65.3886V64.7886V44.8984C206.153 44.1458 205.851 43.2353 205.762 42.9984C205.699 42.8668 205.903 42.8194 205.903 42.8194C205.903 42.8194 210.206 40.8089 216.339 37.9561C216.397 37.9245 216.506 37.9614 216.501 38.0772V40.5667C216.501 40.9352 216.542 42.1089 216.542 42.2668C216.542 42.3826 216.668 42.4457 216.762 42.3457C216.814 42.2878 216.876 42.2089 216.96 42.1089C219.432 37.4877 223.469 38.0719 225.524 38.3982C225.878 38.4509 225.826 38.5666 225.732 39.0351C225.55 39.9299 224.387 44.7037 224.282 45.0774C224.194 45.3932 224.116 45.4617 223.735 45.4511Z" fill="#ECEFF5"/>
</g>
<defs>
<clipPath id="clip0_1012_9100">
<rect width="205" height="40" fill="white" transform="translate(34 28)"/>
</clipPath>
</defs>
</svg>
