<svg width="310" height="56" viewBox="0 0 310 56" fill="none" xmlns="http://www.w3.org/2000/svg">
<path d="M98.28 18.235V40H94.305V26.635C94.305 26.355 94.31 26.055 94.32 25.735C94.34 25.415 94.37 25.09 94.41 24.76L88.185 36.565C87.845 37.215 87.32 37.54 86.61 37.54H85.98C85.63 37.54 85.32 37.46 85.05 37.3C84.78 37.13 84.565 36.885 84.405 36.565L78.15 24.715C78.18 25.065 78.205 25.405 78.225 25.735C78.245 26.055 78.255 26.355 78.255 26.635V40H74.28V18.235H77.7C77.89 18.235 78.06 18.24 78.21 18.25C78.36 18.26 78.49 18.29 78.6 18.34C78.72 18.38 78.825 18.45 78.915 18.55C79.015 18.64 79.11 18.77 79.2 18.94L85.29 30.55C85.48 30.9 85.655 31.26 85.815 31.63C85.985 32 86.145 32.38 86.295 32.77C86.445 32.37 86.6 31.98 86.76 31.6C86.93 31.22 87.11 30.855 87.3 30.505L93.345 18.94C93.435 18.77 93.53 18.64 93.63 18.55C93.73 18.45 93.835 18.38 93.945 18.34C94.065 18.29 94.195 18.26 94.335 18.25C94.485 18.24 94.66 18.235 94.86 18.235H98.28ZM107.345 40H102.815V18.235H107.345V40ZM130.542 18.235V40H128.217C127.867 40 127.572 39.945 127.332 39.835C127.092 39.715 126.857 39.515 126.627 39.235L115.782 25.435C115.812 25.785 115.832 26.13 115.842 26.47C115.862 26.81 115.872 27.125 115.872 27.415V40H111.897V18.235H114.267C114.457 18.235 114.617 18.245 114.747 18.265C114.887 18.275 115.012 18.31 115.122 18.37C115.232 18.42 115.337 18.49 115.437 18.58C115.537 18.67 115.647 18.79 115.767 18.94L126.687 32.8C126.647 32.42 126.617 32.055 126.597 31.705C126.577 31.345 126.567 31.005 126.567 30.685V18.235H130.542ZM154.615 29.11C154.615 30.7 154.345 32.165 153.805 33.505C153.275 34.835 152.52 35.98 151.54 36.94C150.57 37.9 149.4 38.65 148.03 39.19C146.66 39.73 145.14 40 143.47 40H135.1V18.235H143.47C145.14 18.235 146.66 18.505 148.03 19.045C149.4 19.585 150.57 20.34 151.54 21.31C152.52 22.27 153.275 23.415 153.805 24.745C154.345 26.075 154.615 27.53 154.615 29.11ZM149.995 29.11C149.995 27.97 149.845 26.945 149.545 26.035C149.245 25.125 148.815 24.355 148.255 23.725C147.695 23.095 147.01 22.61 146.2 22.27C145.4 21.93 144.49 21.76 143.47 21.76H139.63V36.475H143.47C144.49 36.475 145.4 36.31 146.2 35.98C147.01 35.64 147.695 35.155 148.255 34.525C148.815 33.885 149.245 33.11 149.545 32.2C149.845 31.29 149.995 30.26 149.995 29.11Z" fill="#4F78AB"/>
<path d="M187.203 18.235L180.453 40H176.388L171.933 25.765C171.863 25.565 171.793 25.345 171.723 25.105C171.653 24.865 171.588 24.61 171.528 24.34C171.468 24.61 171.403 24.865 171.333 25.105C171.263 25.345 171.193 25.565 171.123 25.765L166.623 40H162.543L155.808 18.235H159.588C159.978 18.235 160.303 18.325 160.563 18.505C160.833 18.685 161.008 18.925 161.088 19.225L164.463 31.495C164.543 31.835 164.623 32.205 164.703 32.605C164.793 32.995 164.878 33.41 164.958 33.85C165.048 33.4 165.143 32.98 165.243 32.59C165.343 32.2 165.453 31.835 165.573 31.495L169.503 19.225C169.583 18.975 169.753 18.75 170.013 18.55C170.283 18.34 170.608 18.235 170.988 18.235H172.308C172.698 18.235 173.013 18.33 173.253 18.52C173.503 18.7 173.688 18.935 173.808 19.225L177.723 31.495C177.843 31.815 177.953 32.165 178.053 32.545C178.153 32.915 178.248 33.31 178.338 33.73C178.418 33.31 178.493 32.915 178.563 32.545C178.643 32.165 178.723 31.815 178.803 31.495L182.178 19.225C182.248 18.965 182.418 18.735 182.688 18.535C182.958 18.335 183.283 18.235 183.663 18.235H187.203ZM194.181 21.76V27.355H201.441V30.76H194.181V36.475H203.511V40H189.651V18.235H203.511V21.76H194.181ZM219.793 36.34V40H206.878V18.235H211.378V36.34H219.793ZM235.466 36.34V40H222.551V18.235H227.051V36.34H235.466ZM256.87 18.235V40H254.545C254.195 40 253.9 39.945 253.66 39.835C253.42 39.715 253.185 39.515 252.955 39.235L242.11 25.435C242.14 25.785 242.16 26.13 242.17 26.47C242.19 26.81 242.2 27.125 242.2 27.415V40H238.225V18.235H240.595C240.785 18.235 240.945 18.245 241.075 18.265C241.215 18.275 241.34 18.31 241.45 18.37C241.56 18.42 241.665 18.49 241.765 18.58C241.865 18.67 241.975 18.79 242.095 18.94L253.015 32.8C252.975 32.42 252.945 32.055 252.925 31.705C252.905 31.345 252.895 31.005 252.895 30.685V18.235H256.87ZM265.958 21.76V27.355H273.218V30.76H265.958V36.475H275.288V40H261.428V18.235H275.288V21.76H265.958ZM290.445 22.405C290.305 22.635 290.16 22.805 290.01 22.915C289.87 23.015 289.685 23.065 289.455 23.065C289.235 23.065 288.995 22.99 288.735 22.84C288.485 22.68 288.19 22.51 287.85 22.33C287.51 22.15 287.12 21.985 286.68 21.835C286.24 21.675 285.725 21.595 285.135 21.595C284.095 21.595 283.315 21.83 282.795 22.3C282.275 22.76 282.015 23.365 282.015 24.115C282.015 24.595 282.155 24.995 282.435 25.315C282.725 25.625 283.1 25.895 283.56 26.125C284.03 26.355 284.56 26.56 285.15 26.74C285.74 26.92 286.345 27.12 286.965 27.34C287.585 27.55 288.19 27.8 288.78 28.09C289.37 28.38 289.895 28.745 290.355 29.185C290.825 29.625 291.2 30.165 291.48 30.805C291.77 31.435 291.915 32.205 291.915 33.115C291.915 34.105 291.74 35.035 291.39 35.905C291.05 36.765 290.555 37.52 289.905 38.17C289.255 38.81 288.45 39.315 287.49 39.685C286.54 40.055 285.46 40.24 284.25 40.24C283.56 40.24 282.87 40.17 282.18 40.03C281.5 39.89 280.84 39.695 280.2 39.445C279.57 39.195 278.975 38.895 278.415 38.545C277.855 38.195 277.365 37.805 276.945 37.375L278.265 35.245C278.375 35.085 278.52 34.955 278.7 34.855C278.88 34.745 279.07 34.69 279.27 34.69C279.54 34.69 279.825 34.79 280.125 34.99C280.425 35.19 280.77 35.41 281.16 35.65C281.55 35.89 282 36.11 282.51 36.31C283.03 36.51 283.65 36.61 284.37 36.61C285.42 36.61 286.23 36.37 286.8 35.89C287.38 35.41 287.67 34.695 287.67 33.745C287.67 33.195 287.525 32.75 287.235 32.41C286.955 32.07 286.585 31.785 286.125 31.555C285.665 31.325 285.14 31.13 284.55 30.97C283.96 30.8 283.355 30.615 282.735 30.415C282.115 30.215 281.51 29.975 280.92 29.695C280.33 29.415 279.805 29.045 279.345 28.585C278.885 28.125 278.51 27.555 278.22 26.875C277.94 26.195 277.8 25.35 277.8 24.34C277.8 23.53 277.96 22.745 278.28 21.985C278.6 21.225 279.07 20.55 279.69 19.96C280.31 19.37 281.07 18.895 281.97 18.535C282.88 18.175 283.92 17.995 285.09 17.995C286.4 17.995 287.61 18.2 288.72 18.61C289.84 19.01 290.785 19.57 291.555 20.29L290.445 22.405ZM306.968 22.405C306.828 22.635 306.683 22.805 306.533 22.915C306.393 23.015 306.208 23.065 305.978 23.065C305.758 23.065 305.518 22.99 305.258 22.84C305.008 22.68 304.713 22.51 304.373 22.33C304.033 22.15 303.643 21.985 303.203 21.835C302.763 21.675 302.248 21.595 301.658 21.595C300.618 21.595 299.838 21.83 299.318 22.3C298.798 22.76 298.538 23.365 298.538 24.115C298.538 24.595 298.678 24.995 298.958 25.315C299.248 25.625 299.623 25.895 300.083 26.125C300.553 26.355 301.083 26.56 301.673 26.74C302.263 26.92 302.868 27.12 303.488 27.34C304.108 27.55 304.713 27.8 305.303 28.09C305.893 28.38 306.418 28.745 306.878 29.185C307.348 29.625 307.723 30.165 308.003 30.805C308.293 31.435 308.438 32.205 308.438 33.115C308.438 34.105 308.263 35.035 307.913 35.905C307.573 36.765 307.078 37.52 306.428 38.17C305.778 38.81 304.973 39.315 304.013 39.685C303.063 40.055 301.983 40.24 300.773 40.24C300.083 40.24 299.393 40.17 298.703 40.03C298.023 39.89 297.363 39.695 296.723 39.445C296.093 39.195 295.498 38.895 294.938 38.545C294.378 38.195 293.888 37.805 293.468 37.375L294.788 35.245C294.898 35.085 295.043 34.955 295.223 34.855C295.403 34.745 295.593 34.69 295.793 34.69C296.063 34.69 296.348 34.79 296.648 34.99C296.948 35.19 297.293 35.41 297.683 35.65C298.073 35.89 298.523 36.11 299.033 36.31C299.553 36.51 300.173 36.61 300.893 36.61C301.943 36.61 302.753 36.37 303.323 35.89C303.903 35.41 304.193 34.695 304.193 33.745C304.193 33.195 304.048 32.75 303.758 32.41C303.478 32.07 303.108 31.785 302.648 31.555C302.188 31.325 301.663 31.13 301.073 30.97C300.483 30.8 299.878 30.615 299.258 30.415C298.638 30.215 298.033 29.975 297.443 29.695C296.853 29.415 296.328 29.045 295.868 28.585C295.408 28.125 295.033 27.555 294.743 26.875C294.463 26.195 294.323 25.35 294.323 24.34C294.323 23.53 294.483 22.745 294.803 21.985C295.123 21.225 295.593 20.55 296.213 19.96C296.833 19.37 297.593 18.895 298.493 18.535C299.403 18.175 300.443 17.995 301.613 17.995C302.923 17.995 304.133 18.2 305.243 18.61C306.363 19.01 307.308 19.57 308.078 20.29L306.968 22.405Z" fill="#D3DFF0"/>
<path fill-rule="evenodd" clip-rule="evenodd" d="M28 0C43.464 0 56 12.536 56 28C56 43.464 43.464 56 28 56C12.536 56 0 43.464 0 28C0 12.536 12.536 0 28 0ZM27.4104 3.38889C29.8583 3.38889 30.7778 4.91633 30.7778 7.44444C30.7778 9.42222 30.8638 11.0067 30.4444 11.8889C29.9333 12.9634 28.8222 13.2222 27.7778 13.2222C26.0143 13.2222 23.2222 9.80267 23.2222 7.22222C23.2222 4.72478 25.5082 3.38889 27.4104 3.38889ZM6.66667 9.77778C6.66667 9.77778 18.0184 14.0352 28.3461 13.1936C33.3745 12.7839 38.2038 10.9294 41.4444 9.33333C44.4151 7.87022 46 6.55556 46 6.55556C46.429 6.86154 46.8373 7.19561 47.2222 7.55556C47.6174 7.93974 47.9884 8.34792 48.3333 8.77778C48.3333 8.77778 36.4381 12.4272 35.1111 17.2222C34.8376 18.2111 34.0431 20.5667 34.3333 23.4444C34.5044 25.1411 36.2816 30.4247 36.5556 37.8889C36.8491 45.885 35.3333 55 35.3333 55C35.3333 55 34.5343 55.2569 33.6667 55.4444C32.5186 55.6927 31.2222 55.8889 31.2222 55.8889C31.2222 55.8889 33.0523 48.1612 33 45.2222C32.9694 43.5026 33.6601 30.8641 31.4134 31.569C29.7017 32.106 27.7751 37.8622 27.4444 38.5556C25.8906 41.8136 22.3333 55.4444 22.3333 55.4444C22.3333 55.4444 21.3259 55.2682 20.3333 55C19.2726 54.7133 18.2222 54.3333 18.2222 54.3333C18.2222 54.3333 21.5619 47.237 23.8889 40.2222C25.7752 34.5358 26.4229 28.671 26.4444 28.4444C26.699 25.769 25.9096 22.2988 25.7731 21.4478C25.0572 16.9837 17.3478 14.5916 11.3333 13.5556C9.05105 13.1598 6.74217 12.9367 4.42633 12.8882C4.44344 12.8861 5.02744 11.9364 5.66667 11.1111C6.37578 10.1956 6.66667 9.77778 6.66667 9.77778Z" fill="#4F78AB"/>
</svg>
